<mxfile host="app.diagrams.net" modified="2021-08-04T19:22:46.512Z" agent="5.0 (Macintosh; Intel Mac OS X 10_15_7) AppleWebKit/537.36 (KHTML, like Gecko) Chrome/92.0.4515.107 Safari/537.36" etag="3lI60m1VnIVMY2qVnE6k" compressed="false" version="14.9.3" type="google" pages="8">
  <diagram id="ZCBVNAM9pfqBi0ZzbCPV" name="Business Requirement">
    <mxGraphModel dx="2350" dy="1274" grid="1" gridSize="10" guides="1" tooltips="1" connect="1" arrows="1" fold="1" page="1" pageScale="1" pageWidth="850" pageHeight="1100" math="0" shadow="0">
      <root>
        <mxCell id="0" />
        <mxCell id="1" parent="0" />
        <mxCell id="jHWC_mb8SmMqi0jVtHKr-1" value="" style="shape=image;verticalLabelPosition=bottom;labelBackgroundColor=#ffffff;verticalAlign=top;aspect=fixed;imageAspect=0;image=data:image/png,iVBORw0KGgoAAAANSUhEUgAAAggAAAIICAYAAAAL/BZjAAAgAElEQVR4XuzdeXxcddU/8M+5M1m6l02UtlCgSNvMBLAqgsomLig8qNiCIKXJzJ1QoGURVFAgILIJFFvaksySsvrQKm783FCoK4hWMJO0LFWhLZsgdKVNMnPP7zVteQRsm9zJnbnbZ/7lu5zzPrfldObe7xXwQwEKUIACFRZQiZm5zwpwf4U34vIUcExAHFuJC1GAAhSgwH8LtLYasTVjThcx7iIPBfwkwAbBT9VirBSggL8EWluNhjXjZhui3wYk6q/gGW3YBdgghP0KYP4UoECFBFQazUUzFdb1AEZUaBMuS4GKCbBBqBgtF6YABUIsIPFU5mSo/CDEBkzd5wJsEHxeQIZPAQp4TkAmJ9P/ExHjh56LjAFRwIYAGwQbWBxKAQpQoB8BiZnZFgEWUooCfhdgg+D3CjJ+ClDAMwLxVOY8qFzLew48UxIGMggBNgiDwONUClCAAm8KxFOZqVDcy6cVeE0ERYANQlAqyTwoQAHXBOJm9gQAP3UtAG5MgQoIsEGoACqXpAAFwiPQmMqcpSqLwpMxMw2LABuEsFSaeVKAAo4LxMzsLAFK5xwMdXxxLkgBlwXYILhcAG5PAQr4U2D7NwcL2Bz4s36Mun8BNgj9G3EEBShAgbcJ8J4DXhBhEGCDEIYqM0cKUMAxgW1PK8hixxbkQhTwqAAbBI8WhmFRgALeE9h2zgHm8FFG79WGETkvwAbBeVOuSAEKBFAgnsq0QOXbPAQpgMVlSjsUYIPAC4MCFKBAPwIxM3eiQH9CKAqESYANQpiqzVwpQAHbAmwObJNxQkAE2CAEpJBMgwIUcF5g+88Ktzu/MlekgPcF2CB4v0aMkAIUcEGAL15yAZ1bekqADYKnysFgKEABLwjwxUteqAJjcFuADYLbFeD+FKCApwR4CJKnysFgXBRgg+AiPremAAW8JdCQzE4XYJEI+Hejt0rDaFwQ4B8CF9C5JQUo4D2BeDJ9LsQovXhpuPeiY0QUqL4AG4Tqm3NHClDAYwIxM3OmAAsAYXPgsdowHPcE2CC4Z8+dKUABDwgcYuY+aUEfABD1QDgMgQKeEWCD4JlSMBAKUKDaArFk+vMich/frVBtee7nBwE2CH6oEmOkAAUcFygdgqQqtwpQ7/jiXJACARBggxCAIjIFClDAnkDM7GgWFG8CZDd7MzmaAuERYIMQnlozUwpQAEBjS+ZTasmPANQShAIU2LkAGwReHRSgQGgEGhOZT1kGfiiQutAkzUQpUKYAG4Qy4TiNAhTwl0A8mW6CGAsBsDnwV+kYrUsCbBBcgue2FKBA9QQaU7mkWno9BHtUb1fuRAF/C7BB8Hf9GD0FKNCPQDyZPhkid/MQJF4qFLAnwAbBnhdHU4ACPhJobFn0MbWsHwE6zEdhM1QKeEKADYInysAgKEABpwViZnaaKHIQsDlwGpfrhUKADUIoyswkKRAugZiZaRaVG3nPQbjqzmydFWCD4KwnV6MABVwWKH1zAGC+AHu6HAq3p4CvBdgg+Lp8DJ4CFHirQGMyd5wF/aEIRlCGAhQYnAAbhMH5cTYFKOARgVgq8xmo3CvASI+ExDAo4GsBNgi+Lh+DpwAFSgINqdxZhuocAHy3Ai8JCjgkwAbBIUguQwEKuCMQN7NnQHETBO92JwLuSoFgCrBBCGZdmRUFQiHQmMh8TA18H5BRoUiYSVKgigJsEKqIza0oQAHnBEo3JKroEgC7O7cqV6IABd4UYIPAa4ECFPCdQEMy90UDugCC0b4LngFTwCcCbBB8UiiGSQEKbBOIJXNfEtEbAOxDEwpQoHICbBAqZ8uVKUABhwUaWzKfUkvuBLCXw0tzOQpQ4B0CbBB4SVCAAr4QiJvtRwOR0j0HbA58UTEG6XcBNgh+ryDjp0AIBOLJ3MkqVkYgPD45BPVmit4QYIPgjTowCgpQYCcC8VTmdJRevASMIRIFKFA9ATYI1bPmThSggE2BhpaOkwzLWgDIGED595VNPw6nwGAE+AduMHqcSwEKVEygIZH5sGHIYj6tUDFiLkyBXQqwQeAFQgEKeE6gIZk+zoCxCIJxnguOAVEgJAJsEEJSaKZJAb8IxMzs50TxHTYHfqkY4wyqABuEoFaWeVHAhwIxM3eiwJoDyAQfhs+QKRAoATYIgSonk6GAfwUak+kPqWHcA8UB/s2CkVMgOAJsEIJTS2ZCAd8KTE5kPhgRuROCg32bBAOnQMAE2CAErKBMhwJ+E4ilsp+A4jYBDvJb7IyXAkEWYIMQ5OoyNwp4XGDbuxWMmwBt8HioDI8CoRNggxC6kjNhCnhDoHTPgSVGViCTeAiSN2rCKCjwVgE2CLweKECBqgtMNjsOjaLYoZBDq745N6QABQYkwAZhQEwcRAEKOCUQM3NHiuhtUBzm1JpchwIUcF6ADYLzplyRAhTYiUBDKnusAdzM5oCXCAW8L8AGwfs1YoQUCIRAYyp3uCrmQ/V9EPDvnkBUlUkEWYB/SINcXeZGAY8INCYyMTWMNKAf8khIDIMCFOhHgA0CLxEKUKCiAg0t2UPEwnwBPlzRjbg4BSjgqAAbBEc5uRgFKPBWge2vbJ4D4AOUoQAF/CXABsFf9WK0FPCNwLZ7DvQ7AD4I8J4D3xSOgVJguwAbBF4KFKCA4wKxZHoSxMgIcKTji3NBClCgKgJsEKrCzE0oEB6BeKptIjQ6H8Bx4cmamVIgeAJsEIJXU2ZEAdcE4slFUyDWHEA/6loQ3JgCFHBEgA2CI4xchAIUaDDbPyBqzBERPq3Ay4ECARBggxCAIjIFCrgtULrnQETaAPkIb0h0uxrcnwLOCLBBcMaRq1AgtAKTZnQcFKmx5gnwydAiMHEKBFCADUIAi8qUKFAtgclme4OByC0CfKJae3IfClCgOgJsEKrjzF0oEDiByWb7oRE15kDkmMAlx4QoQAEeXsJrgAIUsC+w7Z6DyG2AlpoDw/4KnEEBCnhdgN8geL1CjI8CHhOIN+cOQETnAviMx0JjOBSggIMCbBAcxORSFAi6wPbm4GYAnw16rsyPAmEXYIMQ9iuA+VNggALbflYwbgVvSBygGIdRwN8CbBD8XT9GT4GqCEw0298bRWSeKD4O4b1LVUHnJhRwWYANgssF4PYU8LpAYzI9ViG3QeRkr8fK+ChAAecE2CA4Z8mVKBA4gcOas/sUDP02RE4PXHJMiAIU2KUAGwReIBSgwA4FDj174fhCsfYmAU4hEQUoED4BNgjhqzkzpkC/AhNnLBwfjdbNFdGT+h3MARSgQCAF2CAEsqxMigLlC0yeMf/dRk39baL4PG9ILN+RMyngdwE2CH6vIOOngIMCsWR6bwPGt1SQcHBZLkUBCvhQgA2CD4vGkClQCYFScyAwroOgqRLrc00KUMBfAmwQ/FUvRkuBighMntHx7khNcS4gUyuyARelAAV8J8AGwXclY8AUcFbgvam2PWs1Os8ApioQcXZ1rkYBCvhVgA2CXyvHuCnggEBDIrO7CK4RkZkOLMclKECBAAmwQQhQMZkKBewITJh198j6Lb1XC/R8O/M4lgIUCIcAG4Rw1JlZUuBtAvGZ9+yGvs1zIHIWaShAAQrsSIANAq8LCoRM4NAZHaOL0eJ8iJwGwAhZ+kyXAhQYoAAbhAFCcRgFgiAw4Yy7R9YP7blBgLODkA9zoAAFKifABqFytlyZAp4SOLg5O6ImolcI5GJPBcZgKEABTwqwQfBkWRgUBZwVmHDG3JH1Q4Zez6cVnHXlahQIsgAbhCBXl7lRAMDhZ9w98o0hW0r3HHyJIBSgAAUGKsAGYaBSHEcBHwo0nnnnMKuucKuINvOGRB8WkCFTwEUBNggu4nNrClRSoPSzwpChQ78OyFcquQ/XpgAFginABiGYdWVWIReYkmob2mdFr1bBl0NOwfQpQIEyBdgglAnHaRTwqsDkc+YPj/TWz+VbGb1aIcZFAX8IsEHwR50YJQUGJLBPqm3oHlozD9DSCYl88dKA1DiIAhTYkQAbBF4XFAiIQOmbA6NQe4WocUlAUmIaFKCAiwJsEFzE59YUcEpgwqyf1tVvfvEKEVzm1JpchwIUCLcAG4Rw15/ZB0Bg7NRbhuw+etQtyuOTA1BNpkAB7wiwQfBOLRgJBWwLjJ/RUT+i1loARemeA754ybYgJ1CAAjsTYIPAa4MCPhXY2hzUFK8F5EKfpsCwKUABDwuwQfBwcRgaBXYmULrnYGjPi5eq4koqUYACFKiEABuESqhyTQpUUGDy1MW10VEbruUhSBVE5tIUoADYIPAioICPBCZPba01Ro9bIEDCR2EzVApQwIcCbBB8WDSGHE6BY1pbo/9+fuwcQM7hDYnhvAaYNQWqKcAGoZra3IsCZQpsuyFRvwLoVWUuwWkUoAAFbAmwQbDFxcEUcEFg6uJIfNSGKyG43IXduSUFKBBSATYIIS080/aJwNTFkdio9fNEZKZPImaYFKBAQATYIASkkEwjgAKtrUbs+XHzBGjhi5cCWF+mRAGPC7BB8HiBGF44BSbMmls3dPOwr6mgNZwCzJoCFHBbgA2C2xXg/hT4bwGJJdOXiRjXEIcCFKCAWwJsENyS574U2IlAPJWdA8UFBKIABSjgpgAbBDf1uTcF3iHQaGYXKpDiOQe8NChAAbcF2CC4XQHuT4GSwNanFTZeJaJfJwgFKEABLwiwQfBCFRhDuAVK5xyMXn8xINeHG4LZU4ACXhJgg+ClajCWUArEkrlr+M1BKEvPpCngaQE2CJ4uD4MLusD2ew7ODnqezI8CFPCfABsE/9WMEQdEIG5mbgHkfN6QGJCCMg0KBEyADULACsp0vC8weeri2shuGy6C4jrvR8sIKUCBsAqwQQhr5Zm3awLxZPZyCK52LQBuTAEKUGAAAmwQBoDEIRRwSiBuZuYBcp5T63EdClCAApUSYINQKVmuS4F3CGxtDkTOhiJKHApQgAJeF2CD4PUKMT7fC2y952DUhq/yZwXfl5IJUCBUAmwQQlVuJuuGQDyV/RpvSHRDnntSgAKDEWCDMBg9zqVAPwLbH2W8kFAUoAAF/CbABsFvFWO8vhHgi5d8UyoGSgEK7ECADQIvCwo4LcAXLzktyvUoQAEXBNgguIDOLQMswBcvBbi4TI0C4RJggxCuejPbCgvEzdw3Af1Ghbfh8hSgAAUqLsAGoeLE3CAsAvFk9jYIzgHAP1dhKTrzpECABfgXWYCLy9SqJxAzc98WaOlphUj1duVOFKAABSonwAahcrZcOQQCk6e21kZ2G3sBVEovXjJCkDJTpAAFQiLABiEkhWaalRGImZlLBfJNfnNQGV+uSgEKuCfABsE9e+7sc4G4mb0ZwPlsDnxeSIZPAQrsUIANAi8MCpQh0JjM3qSCWQBqy5jOKRSgAAU8L8AGwfMlYoBeEpiSaqvp1chFgFwD8K2MXqoNY6EABZwVYIPgrCdXC7hA3MxeBOB6ADUBT5XpUYACIRdggxDyC4DpD1wglsx+SwSXsDkYuBlHUoAC/hVgg+Df2jHyKgrEzczNgJTuOeA3B1V051YUoIB7AmwQ3LPnzn4QaFUjtqbjUhG9ks2BHwrGGClAAacE2CA4Jcl1gidQag6ez84SyA0A6oKXIDOiAAUosHMBNgi8OiiwE4GYmbtUoFcAqCcSBShAgbAJsEEIW8WZ74AE4mbmBkAu4DkHA+LiIApQIIACbBACWFSmNDiBWCrbKoqv8WeFwTlyNgUo4G8BNgj+rh+jd1CgdAhSD2pmSumcA9UhDi7NpShAAQr4ToANgu9KxoArJRBPZS6Ebj0hcWil9uC6FKAABfwiwAbBL5VinBUVaDBzVxmil0DBbw4qKs3FKUABvwiwQfBLpRhnxQQazMxVBuRifnNQMWIuTAEK+FCADYIPi8aQnRHYes+BRs4RyLVsDpwx5SoUoEBwBNggBKeWzMSmQDyZPRei1wMy3OZUDqcABSgQeAE2CIEvMRPckUAsmb1MBJcCYHPAS4QCFKDADgTYIPCyCJ0A7zkIXcmZMAUoUIYAG4Qy0DjFpwKtrUb8hX3PhyofZfRpCRk2BShQPQE2CNWz5k5uCmxrDkxVvVGAkW6Gwr0pQAEK+EGADYIfqsQYBy0QMzvOF1hXARg16MW4AAUoQIEQCLBBCEGRw55iPJW9HIqvAhgWdgvmTwEKUGCgAmwQBirFcb4UiJmZiwVyJZ9W8GX5GDQFKOCiABsEF/G5deUEth6CZEWni+i3AdmtcjtxZQpQgALBFGCDEMy6hj6rhkQmKQauE8ieoccgAAUoQIEyBNgglIHGKd4WaDQz5yvkCgC7eztSRkcBClDAuwJsELxbG0ZWhkDMzM4SoPS0An9WKMOPUyhAAQq8KcAGgddCIASOaX04+tqaf5yugpsA7BWIpJgEBShAARcF2CC4iM+tnROIpzKnQ+UGAGOdW5UrUYACFAivABuE8NY+MJnHk7kmyNbjk/cJTFJMhAIUoIDLAmwQXC4Atx+cQNzMmqq4TgR7DG4lzqYABShAgbcKsEHg9eBPgdZWo2HNvqcaonMA7O3PJBg1BShAAe8KsEHwbm0Y2c4EWluN2Iv7fVas4k2A7E8oClCAAhRwXoANgvOmXLHCAg3J9BcMkesBObDCW3F5ClCAAqEVYIMQ2tL7M/F4ouN0NYo3CeQ9/syAUVOAAhTwhwAbBH/UiVECaDCzpxjAPABsDnhFUIACFKiwABuECgNz+cELTJ26OLJi9MYTAL1FgIMGvyJXoAAFKECB/gTYIPQnxP/uukAslfkMVG4UYLLrwTAAClCAAiERYIMQkkL7Nc14quOz0K1PK/CGRL8WkXFTgAK+FGCD4MuyhSPoeDJ9MsS4jccnh6PezJICFPCWABsEb9WD0QAo3XOwfPTG4wU6j/cc8JKgAAUo4I4AGwR33LnrLgRiqewnxNJvQ6SRUBSgAAUo4I4AGwR33LnrTgTiTe1HIxqdD2gDkShAAQpQwD0BNgju2XPnHQjEzewzACYQhwIUoAAF3BVgg+CuP3d/i0A8uWgKpPgHAHWEoQAFKEAB1wQUkOVsEFzz58ZvE2htNeLPj/sZgE9QhgIUoAAFXBPoA/Aby9JT2SC4VgNu/FaBmJk7EtBFfGqB1wUFKEABtwS0AMgvCoZx4Yq2pmfYILhVB+77NoHGZPYyFVwNIEIaClCAAhSovoAAD0OtRGfG/GdpdzYI1a8Bd3yHQENLbrJh6V0A3kccClCAAhRwQUCR3zxk0wdWzpvd8+bubBBcqAO3fJuAxJLpz4kY36cLBShAAQpUXaB0z8HDxTEjTlreOq33rbuzQah6LbjhWwUmT11cGxm94f8BOJ4yFKAABShQVYEeBR4oWvrlFdnkc+/cmQ1CVWvBzd4pEG/OHYCI/p0yFKAABShQVQFLgR9JUS7O55r/saOd2SBUtR7c7L8ahGT2SQgOpgwFKEABClRRQPFQZLhxyhO3Nq3d2a5sEKpYD271doEJs3J7Ddmi/yrDpaBqfa0rY9785twpqbY9ezX6SQU+KdAjAaMGogLIUEBHQREtYx9OoQAFKBA0gT4FftGVTpzUX2JsEPoT4n+vmEBjMvN9Ffm8/Q309Xw6uXt/88bP6KgfUaOHA3oKgD0BDAEkDuh+ABuG/vz43ylAgcAJbAZwv6r15a6M+XJ/2bFB6E+I/70iApPN9oYIoj8C9EDbGwjOy7cn5tud13jmncOKdT2HG0bkIMCqgYXPQnA0IPx2wS4mx1OAAn4TKH1z8L81ll7++A5uSNxRMmwQ/FbigMQbS2W/JYpLANTYTWmPMQfULG09tmB33jvHHzJ94ZjCkNo9IwXd0xLjfBHt9yu3we7J+RSgAAXcEBCV+xDtmd15+8wB/6zLBsGNSoV8z0mptvdEUNMmav9/yJbiwu5M4tZKER5iLmqwYC0EdMr25sV2A1Op2LguBShAgTIELEDuz6ebp9qdywbBrhjHD1ZA4mb2dCjugtg9yVNfNxD96N/SM7oHG8RA5seTuRREpwL6LkBKT1rwLZMDgeMYClDAKwKbFHLfljdqL1x5z5fW2w2KDYJdMY4flMCEWXePHLKl53YAX7S7kAILtrxRd2k5F7rdvd4yXhqacpOkRk8Qlb0A/RKAMYNYj1MpQAEKVEPgDUDuEi1e05kx15SzIRuEctQ4p2yBWFNunER1JYBam4tsVOg5Xelk6Z0NrnympNpqCsXIYcWosb9YmA3VI+x/C+JK6NyUAhQIm4BIezEqVy5f0PRSuamzQShXjvPKEoib2fsATLM/WZbUSt8Zy9pbSueGu/xRmTBrXu2onrrIFtTcYKie53JA3J4CFKDA/wkoNFcnxbMH+/clGwReVFUTOHRGx+hijfV6GRv2ATInn27+ahlzKz6ldN7C8JrieQIpNT6lxzb7PaOh4kFxAwpQIIwCmxS4o04KFwy2OSjhsUEI4yXkUs4xM3erQM8vY/vnEa2P5xeeUU5zUcZ25U+JmZkzATlaBB+B8gjp8iU5kwIUsCmwQRQdiNZ8q/P26QN+lHFXe7BBsFkBDi9PID7znt1Q2JIv5wY/Ebm5s7354vJ2rv6sCbPm1g3ZNOx9GtFJAK4RyHuqHwV3pAAFQiRQVMhtRem7YUV7y4tO5c0GwSlJrrNLgXgiezMMzCrnYCTZUjO8867pm3xH3NpqTHrhwL3risUDikYxDaDUMPBDAQpQwFEBUcwt1G75+vIF5250cmE2CE5qcq0dCjRefOcwXdd7DyAn2yZSvTufSZ5pe54HJzQ0Z481IvgOgLEAdvNgiAyJAhTwl8AWQBbm080XVSJsNgiVUOWabxOIm9kzIFgAxUibNH1akAO7OppX25zn6eGxVOYzsIwWEf0ggL09HSyDowAFvCqwTgXt0V7j2icW7fyVzYMJng3CYPQ4t1+Bw2fdPXLzlp4bFDi738H/PWBRbxGzn8olNpQx19NTth4Ytbn3WBX9vADTPR0sg6MABbwlILIZas1T1VsG8lbGcoNng1CuHOcNSKAxkYmpIX8AbH97UFr/S/l04p4BbeTTQQ2JzO6RiHGQqi4CMNGnaTBsClCgmgKK6yMF44ZKfXPwZipsEKpZ1BDuFTOzswSYazd1Ff1JEcUWJ+/ItRtDVce3qtGwuuNiMfQbAoyo6t7cjAIU8ItAURU3dGUSX69GwGwQqqEc0j1KRxP3aHSLAIZNgl5Ars+nm6+0Oc/3wyfO6BhfU1OcD8hRAIb7PiEmQAEKOCWwVhUL6ozCt5a1t7zh1KK7WocNQjWUQ7pHLJn9sghuKiP9lRDjpHx705NlzA3ElNI3LwA+J8CxgUiISVCAAoMR2KCqc7cUje+s7Gh+ZTAL2ZnLBsGOFsfaEogns69CsIetSQAU+EFXOvF5u/MCNb611Yiv2ne8RvQSAZr4qulAVZfJUMCWgCiuKqrO7c4mX7M1cZCD2SAMEpDTdywQS2YvEcG1AKJ2jTb0GUOeXdS0xe68II4/pvXh6EvPP3NADSJPBTE/5kQBCuxaQIv4+p7/WH3j0qWthWpbsUGotngI9puSahvaqzX/D9Bj7Karis6uTOIQu/OCPv6wptxehai1GJDDAIwKer7MjwJhF1BgvShumrhuxLVLlkwruuHBBsEN9YDv2WBmTzEUt0HwbrupRvp6939i0cxn7c4Lw/gpqbZRvag5DapX8YClMFScOYZXQEsvprsV0d55+YXnuPaSOjYI4b0CK5L51hcVbRlW+mnB/tGfip8X1404efmSab0VCS4gi8ZaOj4ulvVNAIcHJCWmQQEK/EegoIorVfX2at9z8M4isEHgZemoQMzMHQnVH0sZNycKcHJnOvFjRwMK6GKNZy98lxZqmyG4LqApMi0KhFJA1Tp/YyHa7oX7sNgghPISrFTSKo3JjtNU9F67O6jiMcPC9M5cgjfj2cBrNDPnqMjVUPtPi9jYhkMpQIFKCyg2qejXu9LJ0gvdPPFhg+CJMgQjiPEzOupH1BSfAaT0tsIBfwQoQuTKzvbmbw14Egf+n0As2fF5EWsmgOPJQgEK+FLgFYXeaGypXeilV9uzQfDlteTNoBvN7CkKfK+M6FaogeldbYm/lDGXUwA0JtNjLRgXiODLBKEABXwlsBGiV9SimFvW3rLOS5GzQfBSNXweS9zMvlTm3fW/yrc3fwIi6nMCV8NvPPPOYVrfeyEglwIY6mow3JwCFBiQgCVq1qN4b7WOTx5QUNsHsUGwo8WxOxWIJzJHwZDf2CfSniKsDy1Pp56wP5czdiQQS6ZPFTHmAdiLQhSggGcF+lSt5q6MebdXI2SD4NXK+CmuqYsj8VEb/gxB6RAfu5/l+XSiwe4kjt+1QGMyvT9g3KWCD9OKAhTwmoD8S6FXWmtH5Lz8WDcbBK9dNz6MJ5bKfkIUHQD2sR9+8Zh8OlXGNw/2dwrbjIZEZvdIxFigap0CiO0jr8PmxXwpUCWB1wR6OUbV3tF50/RNVdqzrG3YIJTFxklvFYibuVsAPR82X+us0JVd6eRB1KycQOPZd75Li72lGxfPAYSvj64cNVemwIAELMVZ9Ubhe1685+CdCbBBGFBJOWhnAo3Jjg+pYS2C4mC7SqLWEZ0Z81G78zjensAxx7RGX52w30dErIftzeRoClDASQEDxU/9bcwLD6K11XJy3UqtxQahUrJhWLf0SuLnxyUAtNtPV1ZJUT/Bg5Hsy5U7Iz5zwW4o1D0GyIGA8s9+uZCcRwGbAgq8aqjM7hy76j6/NAelFPmXhM1Cc/h/BN6batuzTmt+BOiR9l30a3uMWXPz0tbqv8LUfqzBmdHYnD3YMjQrIkfY/UkoOArMhAJVFBC8BEsu21CQ73rh+GQ7mbNBsKPFsW8TmJzKHR5RLeMnAv27JWJ2tyf4lbcL11QsmZ4kYpRuKuXLnlzw55ahEugTlbPWF+QHfmsO+A1CqK5T55ONm5l/ALK//ZVlSa30nbGsvaXP/lzOcEJgSqptz16N/r5UCHAAACAASURBVK28J0+ciIBrUCAMAnLMHs+s+sPSpf78ppTfIIThGq1Ajgc3Z/epjeD5MpbeoNBzu9LJu8qYyykOC8TN7IqtN5gKf250mJbLhVtgnVh6Wmc2+XM/M7BB8HP1XIw9bmaXAjjadgiKp/KZxETb8zihIgKxptw4iepdAnxEgUhFNuGiFAiTgOIFGHpJLYpL/P4tKRuEMF24DuUaT6anQIyflXWUr+gZ+fak7ddBOxQ6l9mBQOmeBEhkgUCP4o2LvEQoMCiBdaIy843nN96/8mezewa1kgcms0HwQBH8FkKjmV0IwCznX5z5MasjfnrMx2+1KTfebd8kWD8DhMdel4vIeRSAfHyPMfsvXdp6bCEIGGwQglDFKuZQOuNfDaN0MFLpX5u2PqrGKV2ZpvttTeLgqgrEzew/AdmP5yRUlZ2b+V+gF0Uck88lHvF/Kv/JgA1CkKpZ8VxUYqmOWaL6nTK2ejlaxPsezyVeKGMup1RJYOK5d+xR09v3A0BKZ1vwnoQquXMbXwu8YAGzu9eO+CGWTCv6OpN3BM8GIUjVrHAusWR6bxiRtKieZH8ruXpz/buvXTnv077/Xc5+7v6aUTpMSSMyD9Dj2CT4q3aMttoC8i9RXFBj9JXerRC4x7bZIFT7evLxfg0t2UMMC38GUGMzjVfE0ul+f+THZs6+Hh5LtR0oGrkbkA/5OhEGT4FKCqjxmVqj98EgNgclNjYIlbx4ArZ23Mz+FMAJdtMSkYWdrw+fFbSv3+w6+G38hFlz6+q3DHtKgP38FjvjpUDFBcRozLfP6AJEK76XSxuwQXAJ3m/bbvttuvBqGXFvUsGVXe2Jm8uYyykuC5SahCFbhj8EaOlYZt6T4HI9uL0nBP5VLBZnLM+ZPw9yc8BvEDxxrfkjiJiZuVMgZ5YRbWetFI7ww7vPy8gtFFPiM3MHoE/nQ/R4QKKhSJpJUmDHAi8ocOGeY1bfH4YXzfEbBP4x6FfgsFm5vQpb8BygQ/od/M4BikvzmcT1tudxgqcEDjHb32shUjr/4lj+NOmp0jCY6gn0CjB19zEH/DQo5xz0R8cGoT8h/nfEzWwHFGeVc17/8LXrhj6y5KLNZPS/wMTpt+0RrRvyWwEm+z8bZkABewJWEYd277s6H6aD3tgg2LtGQjf6gFTbqGEa+QkgH7WdvMicfHvzRbbncYKnBRrN7J8UmMJ7EjxdJgbnnMBay9ITu7PJPzi3pD9WYoPgjzq5FmXMzM4SoPQTwVCbQbwxfPiIPR+ZM43fHtiE8/rwQ6YvHGPV1aYBHF/GI69eT4/xUeA/AoLVgM7O77Pmx2H65uBNADYI/MOwU4HDmnJ7FaJbT038ol0mUdy8+9jVXwvDjTx2bYIwfvs9CbcA+BS/SQhCRZnDDgTWQmXGxHXDH1gSsBMSB1ptNggDlQrhuLjZfjQQeQDAcLvpq+CTXe2JX9qdx/H+ETisObtPIYIlAErHMvNDgUAJiMiHOvdZ9ecwfnPAbxACdSk7n8zUqYsjT43a8A0VtJaxerpWCpcsa29ZV8ZcTvGZQDyZ/SuAQ8u5idVnqTLccAj0WoW+w7o7zl4ejnR3niW/QQj7FbCT/Kek2kb1anRtGTxvKPC1rnRiXhlzOcWHAg2JzO6G4B6IlN7dUOvDFBgyBd4UWINiMZUPwSFIAyk5G4SBKIVwTIOZucqAXGE7dcVfikbhlOXtLatsz+UE3wo0JDITDAM3AfJp3rjo2zKGPfCXodKSH7vqJ2H+WeGtFwEbhLD/kdhJ/nEzW3r6oN4mjwXFwnwmcZ7NeRweAIFDz144vlioaYfIxwOQDlMImUDB0KNXvGfN79kc/KfwbBBC9odgIOk2pLLXGYqvDWTsO8a8USuF0UF9s1kZHqGbMrl1cW3khQ2PQnFY6JJnwr4V2KzWuJUZc41vE6hQ4GwQKgTr12UnnzN/eKSv/o8A4rZzUP11PpMsPRvPT4gFJk9dXGuM3vBjAUr3JNh9NXiI5Zh61QUELxUta9ryjPm7qu/tgw3ZIPigSNUMMWZmmkXlZghG29138xubRq28Z/Z6u/M4PngCkxKZ/WoEtyjkRAhvXAxehQOQkWC1FPXczmzigaC/lbHcarFBKFcugPMaz7xzmNYVSm/tO8t2eir35jPNZ9iexwmBFdj6FsiCzoHiJD4CGdgy+zMxRa+ofrozm3iIzcHOS8gGwZ+Xd0Wijpm5EwV6N4BRtjco4sh8LvGI7XmcEGiB+MwFu2mhrvRzw0cCnSiT85VAwdLxK7LJ53wVtAvBskFwAd2LWx5zTGv01YPGzRRgrt34FPhFUQpNK9pbXrQ7l+PDIRA3M6VTNY8FJBqOjJmlNwX0dUjx6Hx7S96b8XkrKjYI3qqHa9FsOzZX/wrI3jaD6ANwbj6dKL28hx8K7FBg8oyOd0dqrNLhWSeW8fgsVSkwaAEBniui2NKdTv1i0IuFZAE2CCEpdH9pNiYySTWkjP/Jy6OQvqZ8e8uT/e3B/x5ugW33JJTeDGp9jt8khPtaqH72+rqKnMb3w9iTZ4Ngzyuwo2Nm9hUB9rSdoOq9+UzySwDU9lxOCJ3Atm8SitntJy6GLn8m7I6AgUjsb+kZ3e7s7t9d2SD4t3aORd6YyHxKDfmZ7QUVLwmsIzsz5j9tz+WEUAvEzNwvBfoxAEaoIZh8pQV6tCAHdXU0r670RkFcnw1CEKtqI6djWluj/14z7h8QjLMx7c2hv8mnE8eUMY9TQi5w6IyO0Vat3q7A/0B1SMg5mH4lBASrLeCs7vbEw5VYPgxrskEIQ5V3kWMsmf68iJEr69FGtd6fz5jLQk7I9MsUKB2mFBVcA8FUQOrKXIbTKLAjgRehVjKfMX9KnvIF2CCUbxeImTEzc6dASvcQ2L0W/ppPJ6YEAoFJuCbQmEyPtSA3iciprgXBjQMnIGod0ZkxHw1cYlVOyO7/FKocHrerpMAhZu6TFqx2QPa1u49l6UHd2eRKu/M4ngLvFJg8tbXWGLXv90T0JOpQYFACCu2ri+715Pyz/j2odTh5qwAbhJBeCNvvPbgYguvKIFihah3blTFfLmMup1DgvwSmpNpqeq2aRSr6ebH/mnGKUgAKfdEQ43Od7c1/IoczAmwQnHH03SqNyfT+ahjfL+u1vGo159PJRRDho42+q7x3A952WJd8E9DTAAz1bqSMzGsCClkl0LPz6YT9p7G8loyH4mGD4KFiVDOUeDL9aYjx/2zvKXjcKGrib9nk47bncgIF+hGINeXGIYpWgc7gI5C8XAYioNAeaORTXZmmpQMZzzEDF2CDMHCrQI2Mm9nSc8Fj7SYlwO0Hrx1x3pIl04p253I8BQYiMOGMu0cOGdqzAADfDjoQsBCPUYWiKPvxnIPKXARsECrj6ulVJ6fa9o1otJw3mb0ohjZ3tiV/7ukEGVwgBGJm9vcCfDgQyTAJxwUUeM1C8ajl6RRPSHRcd9uCbBAqBOvlZRvNXJdCG8qIkQcjlYHGKeUJTJyxcHxNtHYJBO8vbwXOCqqAKp6DgRTfrVDZCrNBqKyv51ZvSGQ+bBjyawD2D6ZR6zM8eMRzJQ10QJPNjkMjYuXKupk20DLhTa70zQEEX2RzUPlrgA1C5Y09tUPczC0G9At2vz1SoLcr3VwP8MkFTxU08MGoNLZkj1NLFgPYPfDpMsFdCpTuObCkGOfPCtW5UNggVMfZE7vEkulJYhjfheIQuwFZMD7YnW76s915HE8BJwRiZu5SUf0WhD+LOuHpxzVUscWAdVBnxlzjx/j9GDMbBD9WrZyYW1uN+PNjrwLkG/an65oNfZGDnl3UtMX+XM6ggDMCMTP7PQFOcWY1ruIvAXkWwIx8uvk3/orb39GyQfB3/QYcfbw5d4BGNCPAsQOetH2gArO7xqyej9ZWy+5cjqeAUwJTUm2jejWaAVD6iYyf8AisEUvNziyfnqp2ydkgVFvcpf0aE5mPaUR+DkXUXgiyykLhC93pFH9esAfH0RUQmHh2x/iaYrH0/pCPV2B5Luk1AUVvUfWjy7PJx7wWWhjiYYMQgipPmDW3bsjmYb+E4Cj76co1+TGrruS3B/blOKMyAlubXUPuADCmMjtwVU8IKHr7eqP7PHknX7zkVj3YILglX8V9JyUy+0WNrb/h2f28Ziku7M4k7rQ7keMpUEmBWDLdKmJczuOYK6ns1tqlJ6Ws1RYiX+CN0W7VYNu+bBDc9a/K7vFk5ocQOdn+ZvJQce2qE5Yvae21P5czKFBZgUYzd6tCz6/sLly9+gLydxU9h+ccVF/+nTuyQXC/BhWN4ODm7D61ETxfxiZ9Yuk5ndlk6aYwfijgOYHSK8tffX7fm4RNgudqU35Auk40clJnpul35a/BmU4JsEFwStKj68SS2Z+I4MQywnujuHbEbsuXTOO3B2XgcUp1BA5LZPYrGLIQwAnV2ZG7VExAscmIRg/+2+1nlfMPmoqFFeaF2SAEuPoNFy7e3di48bco470LqvhKVybx7QDzMLWACDSYmdMMGN8B9F0BSSlkaZTuOdAXIMbx+famJ0OWvKfTZYPg6fIMLrjGVLZVLVwKQa29lXRdPp0cbW8OR1PAPYFYMnuZCK4GEHEvCu5sX0AUqk8bBmb+rT3xsP35nFFJATYIldR1ce3GZHqsitFe1levgkvz7YnrXQyfW1PApoBKzOy4UaAX25zI4W4KCFZbwFndbA7crMJO92aD4MmyDD6omJn9nAD3ABhic7W+IowPLk83PWFzHodTwFWByefMHx4p1P+Wb350tQx2Nl8LKRyRb2/hzwp21Ko4lg1CFbGrtdWUVNvQXitaerHNBfb3lGs29Mm3+N4F+3Kc4b5AQ3P2EMPAY/Z/VnM/9pBF8Eq0iEMfzyVeCFnevkqXDYKvyjWwYBsSmQmGIc8MbPR/RimwXoBz8ulE6ZsHfijgP4GtLyUbNx3AXAAj/JdAwCNWKARPWZYmu7PJPwQ8W9+nxwbB9yX87wTiZuYWQC60m5oCv4Ra07sy5st253I8BbwiMHlGx7uNqLYL9ES+HtorVXkzDn1a1JjZmWl+yGuRMZ7/FmCDEMCrIm5mewDbTy6U5lybTydLd4LzQwFfC8RTHROh1lIAe/s6kQAFr8CrhsgnO9ub/xqgtAKdChuEgJU3lswuFMHZttNSrN5j7AEHLG09tmB7LidQwIMC8ZbMUbDkNx4MLXQhKfRViQ55b37hGa+HLnkfJ8wGwcfFe2foE2bdPXLIlp7lZb7l7p58OvGlAHEwFQogbuZKB4V9lBSuCVgAni5aevrybPJx16LgxmUJsEEoi82bk+Kp3IVQvQbAULsR1kph2LL2ljfszuN4CnhZIJZM7w0xfifAQV6OM5ixlQ5BsroVkVldmabSzz38+EyADYLPCrazcEvfHtRv7r1bRE+ynZJifj6TOM/2PE6ggMcFpqTaanqs6GwBvs0bFqtbLFVdYyAytTPT9Gh1d+ZuTgmwQXBK0uV1GpLZ6QawAIJhdkOJGMZ7n2hrsv1YpN19OJ4CbggcOqNjdLHGWgDgi27sH9I9XyhI4f0r2lteDGn+gUibDUIAyjh56uJaY9SGS0XQajsdlXs3b944c+U9s9fbnssJFPCJQCyZngkxrhdgpE9C9muYFqArC0bkxBX8R4dfa/h/cbNB8H0Jgclme0NEo7+B6B720pHNCj2jK534gb15HE0B/wnEzOz3BDjFf5H7JmJLoZ2WyKzl7Ynf+yZqBrpTATYIAbg4Yqnsl0Vxk91UFPiFJYXU8vaWVXbncjwF/CYQS6YbRYy/+S1uH8X7pGVFkt3ZGTwh0UdF21WobBACUMi4mf03gN1tplJ6/OjWfDrxZZvzOJwCvhWIp3LnQXWebxPwaOAKXaUWPtadTa70aIgMqwwBNghloHlpyiHJ9OctMb5vPyZdIZHaYzpvn/4v+3M5gwL+FNj6IjONrgVQ488MvBa1KET/Wew1Prx8UdNLXouO8QxOgA3C4PxcnV16hGv7X3a2zz1Q1fu7Mkn+HutqBbl51QVa1YityV0oYv8nuarH6v0NS99CPlG0dObybPIx74fLCO0KsEGwK+ah8VsfbRRkyvnXkKo1uStjrvBQOgyFAlURaEzl3qdqLQbkwKpsGNRNFI8bBmb/jTckBrXCYIPg49LGzexPAZxgOwXFb/OZxNG253ECBQIgMH5GR/2IWus6KC4IQDqupKDAMyKFU/LtLXlXAuCmVRFgg1AVZuc3iZnZaQKUbrZ6l93VI33Gbk8sair9DssPBUIpEDfbz1BEbhVgz1ACDCZp1adqjeLhy9pb1g1mGc71vgAbBO/X6L8i3How0uj13xLIxfbDlz9vrt/40ZXzZpde78wPBcIpcExrND5h3M8h+Fg4AcrKugjgL5Yhzd1tzaWXwvETcAE2CD4scENL9hDDwv8CmGg3fIWc1JVufsDuPI6nQNAE4mbmFkDOB2AELbcK5KMK/MEQubizvflPFVifS3pQgA2CB4uyy5BUpcHMnWkI7rAduupv1Yg2d7XP+LvtuZxAgYAJNCbTY9WIPA3VIQFLzfl0VJcVxUouT6eecH5xruhVATYIXq3MTuI6YuotQzaOHvlPQPa2H7pckx+z6kq0tpYeT+KHAqEXiJuZfwCyf+ghdg3w52hBPvN4R/MrdAqXABsEn9X7ELO9wUKky37Y+rREI2d1LuSrV+3bcUZQBSab7YdGEHk8qPkNMq8ioH8sSvFLPI59kJI+nc4GwWeFi5m55wS6r82wFZDv5dPN02zO43AKBF4gbubeAPgzwzsKXboh8eEiipfwZ4XA/xHYaYJsEHxU+7iZOx7QB8sIuUfU+nhnxvxdGXM5hQKBFoglM2kRSQY6SfvJPWQVcVF3LsGXW9m3C8wMNgg+KmXczP4awHG2Qxa8lG9P7ANAbc/lBAoEXKAhkfmwYQhfT/yfOj8kap3VmTHXBLz0TK8fATYIPrlEth0Pq6WXMo23G7JKYUJXewufXLALx/GhEJhstjcYiPxW7L8RNWg+pZuXH7IsPbU7m3wtaMkxH/sCbBDsm1V/RmurEXth39tEdab9zeXv+XTzBPvzOIMC4RDY9obHyJWAfCUcGe8wyz6B/EL7+i7JL2p5MsQOTP0tAmwQfHA5xFMdcaiVBfABu+Fa0C92p5OlQ5X4oQAFdiIQM7NnC3AbgEhIkX4sln69M5ss4wmpkIqFIG02CD4ociyZPtUQ4x61+5eX4ilL9cTubHKlD9JkiBRwTWByU+7wSLTUhEuDa0G4tLGq/iQajcx+4vamZ10Kgdt6VIANgkcL82ZYU1L37tmrW34KqO1vDwR6QWc6MRcQ3pzo8TozPJcFVKXRzH5XRU51OZLqbq/yI+mJntF51/RN1d2Yu/lBgA2Cx6u0/ebEZfbDlOdVjJau9hn/z/5czqBA+ATiZuZ2gSRtf1PnT6peUX2gT3HRimzyOX+mwKgrLcAGodLCg1w/ZmZ/IcAnylhm8R7PrD5j6dLWQhlzOYUCoRNoMDs+ICj+VCBBfwW0BcX9MIzL8+1NvCExdFf6wBNmgzBwq6qPnJTI7Bc1pJzfBddZQKI7nSg9FskPBSgwIAGVuNnxLOyfVDqg1T0zSGSJ9vRd2nUHH332TE08GggbBI8WphRWzMz9QaBH2g5RsbrWKBy4rL2lz/ZcTqBAiAXiZmYxIFMDTPDdWinMXNbesi7AOTI1hwTYIDgE6fQysWR6bxHjrwBKJyDa+6jVnM+YHfYmcTQFKHBYc3afQgTPB1CiT4HvG5He8ztvn/mvAObHlCogwAahAqhOLBk3M/MgcjYUUZvrvZJPJ95lcw6HU4AC2wViZmaLQOoCBNIHlSVq9F3BE1UDVNUqpMIGoQrIdrdoSGQmRAxZpMCH7c6FWi35jNluex4nUIACWwViZvYOAaYHhkP0bhSMK/O55n8EJicmUhUBNghVYba3SSyZTYhgPgCb/4qRTVrApK6O5tX2duRoClDgTYHtJ5d2BkJE0REtylcf72h+JRD5MImqCrBBqCp3/5vFZy7YDYW6WwDM6H/020co9II9x6yZv7SVjzbateN4CrwpEDsnN076tPT0kOFjFQsqd/VaOuupXGKDj/Ng6C4KsEFwEX9HWzemcoer6qO2w1L8G4Iz8+nEz2zP5QQKUOD/BKakFo/q1Y0dgH7OnyzaAzX+V4u4nN8m+rOCXomaDYJXKrE9jlgykxaRZBlhfTfSZ5zzxKKmtWXM5RQKUOBNgdZWI75m37MgmvMlikpHX1SufpLvVvBl+bwUNBsEL1UDQNzM9gKosRWWYL2oXtqZTi6wNY+DKUCBHQo0mtlTVHEvBLV+IhLg9kKfcdXyRU0v+SluxupNATYIHqpLPJm+D2JMsxuSQJ7Y/ZlVH+CxynblOJ4COxaIN+cOgKFpCI7zi5GKLtzYG7no2UVNW/wSM+P0tgAbBI/UZ/vNiaUDWobYDcmCzulOJy+yO4/jKUCBnQvEzdw8QM/zgVGpIbhLIjXf6Lx9Og9B8kHB/BIiGwSPVCpuZq4C5OsAIvZCUmtz/RtDV86b3WNvHkdTgAK7Etj+Z/JrgHd/ZhCgqJCMaPGazoy5hhWlgJMCbBCc1CxzrYZEZncx5MdSzsFIkKvz6eYry9ya0yhAgZ0ITEymp9SI8T0A4z2LJLi12GvcwHsOPFshXwfGBsED5WtMZS+wFNcJUG83nMgwY7cnbuWTC3bdOJ4C/QpMXRxpHL3xLwo9tN+xrgzQG2qlePWy9pY3XNmemwZegA2CyyWekmob2ofodaqYbT8UuW2PMftfuLT12IL9uZxBAQr0JxA3c78E9OP9javyf+8BdMHQ+vrWP8370voq783tQiTABsHlYjcmOz5qifWAACPthaIbYeAz+bbkb+3N42gKUGCgAnEzdzSgSwc6vgrjelTRBljXdmXMl6uwH7cIsQAbBBeLP3Xq4siKUeuvEtl6c6KtjwL/W1OQ2Txj3RYbB1PAroDEzaxld1LlxuuN0Xrjpsfn8d0KlTPmym8KsEFw8Vo44sLFQzZu3PAigFE2w+gD9PJ8OnmDzXkcTgEK2BSIm5kuQBpsTnN8uAW9vFCU7/DdCo7TcsGdCLBBcPHSiCfTTRCjjONc5XebZPhJ/2ifts7F8Lk1BUIh0NDcdqwRiT7kYrJFVVyzsWBcz0OQXKxCCLdmg+BS0SdPXVwbGb2hnLMLLCgy+UyixaXQuS0FQiVQupG4V6ObXEr6DUBvi/RFruN7VlyqQIi3ZYPgUvHjyfS5EOO2MrbfUrB04ops8rky5nIKBShgU2D8jI76ETXWXwFMsjl10MNV9VtSM+Tm/MIzXh/0YlyAAjYF2CDYBHNqeNzMPgbgA3bXU+D7XenEF+zO43gKUKBMgdLbHV8Ya0Ll9jJXKG+a6EXF6Mj08gXTNpa3AGdRYHACbBAG51fW7Hgql4LqjWXcnIji2tV1y5e0lt74yA8FKFAlgViy4+Mi1i+rtB0ExgW7jxk/n2ecVEuc++xIgA1Cla+LbV9X6nxAm+1uban+ujuTPN7uPI6nAAUGJ9BgdnzAUOv7EIwb3Er9zt4E6I21UryJJyT2a8UBFRZgg1Bh4HcuH09kjoIhiwDsb3Nrq1goHLm8o+VPNudxOAUoMEiBCWfMHTlk2LBvQ5Ea5FI7ny4oqIVrrNoRN/NnhYopc2EbAmwQbGANdugxrQ9H//3C32dB5Ra7a6nqTwA1eXqaXTmOp4AzArFkulXEqNiL0UTl/BqjL8NvDpypF1cZvAAbhMEbDniFw5qz+/QZ6BTBHgOetH1g6TfJzvSMuYCo3bkcTwEKDF4gnsw1QfRmALsNfrW3r2CJmnvtc+Ai3nPgtCzXG4wAG4TB6Nmcu/3nhd/YnAYo/iJRbeq8Pdlley4nUIACjghMnH7bHrV1Q36kZb2WfachbFZLr7DWj5y7fMk03nzsSKW4iFMCbBCckhzAOjEz+4IA7xnA0LcOKapqe1cmeY7NeRxOAQo4JFA62Cw6at37VIx2AHGHlt0MxXW1RuFm/qzgkCiXcVSADYKjnDtfrKElc5JhyY/L2O4VqHVCPmMuK2Mup1CAAoMUKP3ZlSL+R0Q+AmDiIJd76/Qv10rhdjYHDopyKUcF2CA4yrnzxeJm9gkAh5SxXWc+nShnXhlbcQoFKPCmQEMic3rEkHMUmABgbydlikU0YcOIe/mzgpOqXMtpATYITovuYL1DUtmPWBZ+iDJuTixIYZ8V7S2lNz7yQwEKVFKgtdU4Yt3kuo1r134Q0cjPAAypwHYFVZk9ad3w9iVLphUrsD6XpIBjAmwQHKPc8UJTpy6OPDl6w70AptneSrA8355w/TWztuPmBAr4SKB0eNmwGsQNWB+FyJVQHVmh8Dcq5NqNfTKHb2WskDCXdVSADYKjnP+9WGOy40OWWFkBJtvdyhIc192eeNjuPI6nAAX6FzjmmIejrx3095TCmADRL0Are0qiKL6yvmDMY3PQf204whsCbBAqXIfGVG6mqpbe2mjY2krxl2hRPv14R/MrtuZxMAUosEuByefMH2701reIgROgOBzA8EqTWYqzdN2I/+U9B5WW5vpOCrBBcFLzHWvFm3MHwLB+BJGY3W3UkDO72prvQekUBH4oQAFHBGLJ7GUi+AaAGgBRRxbtZ5FSc9A9dvXdaG21qrEf96CAUwJsEJyS3ME6cTN3PKAP2t1CFStVdUZ3NvkHu3M5ngIU+I/AlFTb0C2F6EGGgdMAzIJgWBV9Nqqitc4ozF3W3tJXxX25FQUcEWCD4AjjjheJJ7O/geAom1soFAvy60acD97lbJOOwymwTWDyOR3vNnqtz4joe6FyAQS1VbYpQPTrm+ve+M7KebN7qrw3t6OAIwJsEBxh/O9FJs3oOChaYz1dxvIvqBozujJNtr95KGMvTqFAoAQmTr9jj2ht4TwR+TCgpea8rvoJ6kZVucBat/qu5Uta6irspAAAIABJREFUeXxy9QvAHR0SYIPgEOQ7l4mZ2acFOMju8gJ5YvdnVn1g6dLWgt25HE+BsApMSbXVbNHIjwwxGqG6pzuNAf6l0EsN1V92jn3+Bd5zENarMTh5s0GoQC3fO33hmLr6umegavugFQv4Qnc68f0KhMUlKRAogQmz7h5Z19s71rD0MkBOB9SNv8/WKnQ9gG90pZN3BQqYyYRewI0/UIFHj5mZ7wrkVAC2fBV4sSud2CfwQEyQAoMQaEhkJkQMOcRSmSqipT9n1f8IVqvqH8TCfXuMO/ABvqa5+iXgjpUXsPU/sMqH4/8dGs/OxLQopZMTbb/xjd8e+L/+zKByAo3J9FhI5HxV6/2AHOnCjYelh467RDRTNCJPdb827EHeSFy5enNl9wXYIDhcg3gq8xWoXLP9OWs7q68bPnzEex6ZM22znUkcS4GgC0w22xsMROZtf1V66b6eSPVz1qcFcpkW5fF8rumfgPB8kuoXgTtWWYANgoPgk1Jt74lqdD6Az9ld1oJ+sTuduI9/8diV4/ggCmx9P0KkONaISBZq+1FhJ0hKDUAvFP8uGoUjlre3rHJiUa5BAT8JsEFwsFqxVOYzovKA7SUVLwmsz3VmzEdtz+UECgREYOuLzXbbdJAUi+OtiNwsav/9JY5QqD4lhvGEpZjblW7+oyNrchEK+FCADYJDRSs9ZtWjkTsFUjqxzeZHb6uV4leXtbe8YXMih1MgEAIxM3ekAetES+VjIviA3Rt8B42gUBUsFcXvi6oPLM8mHxv0mlyAAj4XYIPgUAFLR7r2anRdGee7/0vVmt2VMe9zKBQuQwHfCMTN7AkAUgo0lHNuiBOJKvBHUeNbsPTJ/L6rnuX5BU6oco0gCLBBcKiK8WTmZxD5lO3lFL/OrxvxSd4NbVuOE3ws0NCUm2xEt76nZE9Aatw4w0ChD0b7ItM2jtiwmcch+/hiYugVE2CD4ADtxHPv2KOmt/BqGUsVBXJ5Z7r5ujLmcgoFfCOw9aTDYmQ/GHi/ASwAZDcXgi8q8BSg3VqDy7oXJFe6EAO3pIBvBNggOFCqWDL7HRHMLmOpXlh6Kg9aKUOOU/wh0NpqxJ4fd7IhMlktPROCg10IvHRvz28U2t0rxRuebm8pp5l3IWxuSQF3BdggDNI/lkzvLSIPAzKpzKWeB7DUQvE73enUX1A6ioUfCvhcYMKsn9bVb3l5msAq3WPwMQDvciMlBe4E8EMUtvylq+Pc1W7EwD0p4FcBNgiDrFwsmblGRL5SxsFIb91ZFfpvAV621uKo7iXJ1wYZFqdTwDWBWHM2IVFcCcVoACNcCMSCYK5V1PkFlZefyiU2uBADt6SA7wXYIAyihAc3Z0fURmUBVL80iGXeNlWhFiD3FA3jm/LasOeWL5nG18U6hct1KiJQur+gzzL2tgzjVFFcDmBURTba9aJboHgFBn41fNi6cx+ZcxFPJHWhCNwyWAJsEAZRz3gi81kYcjeAYYNYZmdT+wC9WmE8saX+3Q+unPfpngrswSUpULbAlNTiUT264ThYeqAYuBKQ4WUvVv7EdVA8osDv9hx7wI18aVL5kJxJgXcKsEEo85poPPPOYVpfuB7Q88pcYqDTSmcrLLYsvX+vcWt+tbS1tTDQiRxHgUoITEm1jerTyBkK+QiAzwKw/VpzB+IqfWPwbQuyot7oe3AZbzx0gJRLUODtAmwQyrwiSm+WU5EV1flXU+nFMPqSAmssiX5heftZPBe+zLpx2iAEWtWIrcnNFwMfAWRfqI4cxGplTtXXReW6YgS/7Knd9CTPLyiTkdMoMAABNggDQNrRkLiZvQjAzWVOH9Q0VV1aNIqnx17f7V9LlkwrDmoxTqbALgSOaX04+tIrq0bV9BS+AWAWxI03KaIPQJ/C+FpXumkeC0YBClRHgA1CGc6lN82NqLHcvgmqD4rrLQMP16Pw+2XtLaW/RPmhgCMCk1J3vSdibTkYMD4vglmOLGpzEQFeVcXfILi7uHbEvbxh1yYgh1NgkAJsEMoAjJuZrwJyfRlTKzFliwpuMYr6UGc28RBfF10J4vCs+d5U2571WjNDYX0YMD4JqBv3FzwL6N2APFkrhcVsfsNz/TFTbwmwQSijHvFk9u8QHFDG1MpMUSgEz6rqr6OFyCVPLGpaW5mNuGpQBSafece+kfriTYCOAfB+ALXVzlUVzxmqN1oqj3Xtu/qvfGlStSvA/SjwdgE2CDaviHgqVzoUqRXqyr+s+ovWAlB6HPIb+XTilv4G879ToHQSKMRYKEDpxMO6qr9meWsJdGNBikdv7q1d/uz453rZGPC6pIA3BNgg2KjD9lc637P90S4bM6s/VBWPicjXa6Xvj8vaW0pn0fNDAaC11Th41bh3R0T3NiIyV7T0RIIrnxe2vjhJcH1Xe/OD/GnMlRpwUwrsUoANgo0LJGbmThRoG4B9bExzc2gvILcCeDCfbv6Vm4Fwb/cFYsn0JFH5FAQniMhxCjeeSNBlAvmzQr7Pa9L9a4IRUGBXAmwQBnh9bHtyQb8OaOlxL799nlXBHVZ0y03LF5y70W/BM97BCUxuzn4kEsF0AI0ADh/camXP7gQwxyri8e4NI7rAx3PLhuREClRLgA3CAKUbE5mYGvg9IG6cMz/AKHc5rAeQxyGSyrc35Z1YkGt4W+Dg5J3710rffVAcAMFuAIxqR6zAn9XS0yM1fes7F579CqR06Bc/FKCAHwTYIAywSvFU5rNQ+cEAh3t8mBxTrNm8jN8meLxMdsObujhy2PCNuxeimFw6nhvQ6r9iedsTNS9BscKK4KLutsTf7KbB8RSggDcE2CAMsA4xM/OKQPYc4HA/DEuLpXM7s8kuPwTLGHct0Jjs+KglVoMAJoD3ueBVenpmGYCntUau6FrQvNqFGLglBSjgoAAbhAFgNiQypxmGfHcAQ30zRIDSEc3LCpbOWp5NPuabwBno/wmUXrPcozWfBHC8QP8HwP4u8fxYFD/uleLvnkynnik9t+hSHNyWAhRwUIANwgAw42a29K+hsQMY6rshAjxXsHQamwR/lW5SMv3pqBjXQrA3FHu7cn6B6h0Cvd0C/tmVMV/2lyCjpQAF+hNgg9CP0CFm7pMW9MdunCzXX/Gc/e/y8fyYVQ/xkBpnVR1bTVWOmDanfv2oUVMN4BYI9nBs7YEvVDqIawsgS3uLetpTucSGgU/lSApQwG8CbBB2UbHSV7i9Gv05gOP8Vli78SqwXkVm16NvCQ9WsqtXufFHXLh4yKYN694PI3KAKm505cZDYJMA3RbkkTrpu4TvRqhcvbkyBbwkwAZhF9WIm7njAU0DGO+lolUuFlkF6GXFtSOW8M15lVMeyMqNZ945rFjfe5KoHCGCswC48XhtH6A5WOgS0R92Zsw1A4mdYyhAgWAIsEHYZYOQuQIqrRCEx0mxGhGcmm9LPBKMS9x/WcTNzBWAHAfIJJe+MdgA6ALA+FVvUf/EnxL8dw0xYgo4IRCe//HZ1DokkTmsaMhiASbYnBqE4T2vDx+x25o50zYHIRk/5DBh1ty6+p7hF4ulF0MwAq4cg7z1+YNvDh8x4rq6x5f3LV3aWvCDHWOkAAUqI8AGYYeuKjEzN1WA+yrD7otVtxQsnbgim3zOF9H6MMhDZ3SMLtZiHLT4aUCudycF3aiKf4hi0eah+yxYOe/TpfMM+KEABSgQoq/ObRR767/mNg/7rQg+aGNa0IaqQn5ZlL6mFe0tLwYtOTfzmTK1bVTfqOjJluAogZ4KyHAX4nlZRO631Hpq7dr17WuWXMRvi1woArekgJcF+A3CDqpzyNl3HGYVC3/1cuGqFNsGiFyWf334Qr5cZ/DiE5pye9VHSi/7kv0FehwEwwa/qr0VFHgRijZYeKRr3+ZfoVVKjy7yQwEKUOC/BNgg7OCiiJnZFwR4D6+XrUfirTfUOLEz0/Q7epQnMPHcO/aI9BWuNRQnAii9HyFa3kqDmaU9CusLRRmyrK/u9ddWzpvNnxIGw8m5FAiBABuEdxR54oyO8TU11j9DUPuBpyj68w29kc89u6hpy8AnhXqkTEm1jezpqxlpRHSBytbGwI3POihWW7Cu6h77/P08BMuNEnBPCvhXgA3CO2oXN7MPls62929JKxO5qpzTlWleWJnVg7NqrGn+OETrjhGV/4HgZAA1Vc9O8RREO2FhST6bXFL1/bkhBSgQCAE2CG8pY4PZ8QGBtUSA/QJRXYeTEJEPdbY3/8nhZQOxXCx5R6MhxdMUeiiAE9xJSv+uKm2WhUfete/qR5e28jFFd+rAXSkQDAE2CG+pY9zM3ADIl117Bt3719Qv8+lE6e2B/GwXOLg5u09tBAsBjQMYB0jV7y9QYLkh0myIvHbQa8P+sWTJtNKbOvmhAAUoMCgBNgjb+WKptgNFo+1heO/CIK6YLVBcm88kvjmINXw+VWXCrHm1QzcNG28Z+KkIDnApoS2qeBoiM7vSzX90KQZuSwEKBFiADcLW4qo0prLTVWVRgGvtVGq/LFiaCuMBSvFUW1ysmoNVrNmAfNQp0IGvowWFPF16Rbeq9eWujLli4HM5kgIUoIA9ATYIAEon2hWieqeInmSPL6yj9Wu1UrwlFG/1m7o4Eh+5/sMwcBQUp0Ik5k7V5XcQ/WmxqL9Ynk08AYi6Ewd3pQAFwiLABgHApERmv6ghf+e9BwO87AWrCygcHvQTFhuTHR9SWNdAdHzpcCMAxgCFHBum0B8CRlYt68nubHKlYwtzIQpQgAL9CLBBABBPZn8DwVG8WgYuoJYu6Momzx34DP+MjCc7Pg2x5mPbYVl17kSuj4rq1MK65/+1fElrrzsxcFcKUCDMAqFvEBrPXvguLda+HOaLoNzcRa0DOjOm7w+VmpJqq+mxjAkC7K8wFoi48phrjwKrBPjL5jWbmlb+jCcdlntdch4FKOCMQOgbhHgqtwiqZznDGbZV5Hf5dLNvv3kZP6OjfnitHCVa+CAg5wHYu9oVVKD0LoQfQJFX1Xv4M0K1K8D9KECBnQmEukFoTKbHqhiPbf8qmVeJXQHBehR1Zj6bvNfuVLfHx5Ppc8WIHAfVKerKwViyGdC7LZWH642+B5e1t7zqtgn3pwAFKPBWgVA3CLFkZoGIpHhzYrl/KEp30uu9+TGrp/vhnP/STwl9GjEVcj6AMUD136ZYkrYU7RFY3yzU9q5dvuDcjeXqcx4FKECBSgqEtkGIz1ywGwp1dwH4TCWBA7+2YpMFnNOdSdzpxVyPuPCWIW9s3mP3Ql/xeBHtEIEb13zpzYmvQNExfMSI6x6ZM22zF60YEwUoQAF+gwAgZmaaAZkvQD0vicEJKJCN9hkXP7Goae3gVnJu9pRU29CeYuRYRORoUZgARju3+gBXUqyFyIOW6pM9mzfdtPKe2esHOJPDKEABCrgu4Ma/plxPuiGR2V0MuVWAM10PJhgB9KiBj3S1Jf7idjpTUm2jejUyC5ADga1vU9yt2jEp8Cog9yisR/cac+D3lrYeW6h2DNyPAhSgwGAFQtkgxFMdcaj1KIChgwXk/O0CikfymcSRbnmUGoMeq+YSMfRkKCbAnW+GimqgRSGPaGTzKt5f4NbVwH0pQAEnBMLZIJi5bwL6DScAucZ/BNZF63dftfCM16tlUrrpEEBNj0YXCjC9Wvu+fR8tAPKaKi6btG7EIr5J0Z0qcFcKUMB5gdA1CKXfpns1usl5Sq4IwT/ybc0T8P/bu/Poqqp7D+DffW4SQkwMYYqQEBlkCrlhEAcsj0F8llaL1AqyHAqEDFaty9fW9rV9vma1z1dfXa4qFTXDTRAUgTwUqihSIKAoooCQhBAwgQAJIRBIQkJI7s09v7fOUSkgeWa68/es5R+t5+zhs097v9lnn7OVa/cJGPXYa3162J0TnaLfp5R6yEOzBRWAOqTr+pr9tuSXOfoUoAAF/E0g4AJCQqrtGSX4nb8NpHf0R9nFIvOKXl30tivaM3pB7nBLiD5L6WoclDzgib0RAFQIZCWgb9PrTmzkZ5BdMdIskwIU8AaBwAoI6elawolBtUpwrTfg+2MbBOrdosyFs7pzFmFE6oq+IfqFZ5WGCRDEe2h/hCMKeFLpctJx7tq9xXlzuT+CP97A7BMFKHBRIKACgjU5989K6U8JYOE94BoBUTinRPtVYdbCrK7WEL8g9zotWN5VMEKBGJsmuX03RQDlAB5tcGj55UsXNne1T7yeAhSggK8IBExAiH90dbjF3rCeuza64dZUWKIuBP+mYPlPO7zWI+HRnEHKgaEC+ZUC7nZDa6+sQodCJXTUOEUeKbYlG5/i5kEBClAg4AQCJiBYU2wPKuAFAfoG3Ci7ucPGLIKma3cXZC/8qF1Vp6dr8cdjx1osuFkEDyuo77Xruu4/qRDAP5ToawtiKz/2hc9Hdz8BS6QABSjwlUBABIT4R5eEa47Q/1HAoxx4NwmIrAjRnAt2Z6Y5/r8aR6XmWoN1579DU6MhsAIIclMLL1YjQL4ClomGIm/42JO7+8/6KEABClxNICACgjUtewp0tR5AOG8Dtwk4QlRrr92ZaU1XqzEhOWuagvYclIoD0A8Qt9+LArUPTkkWJYf3Zy+q7c6FlW5TZkUUoAAFXCTg9v9TdlE/2i7WeHOhImahUlq22+sO8AqVyBcF2ckTTIY5qy2jo2r7W1qDYpSG16Ew0gM8xiePz0JQ6KyPmF2cN5c7KXpgEFglBSjgGwJ+HxAm/dvqno2NDSc8slmPb9wDLm2lpvAvAuXQRcYryO8BFevSCtsoXAH5uhEMRLIO2JKLPNEG1kkBClDAlwT8PiBYk7NSobQMXxoU/2qrlAHK+GbAaA/0yw7IOhHZDqfl7aLcpOMeaAOrpAAFKOCTAv4fEFJsZz2xo59P3g1+1GgB1oiGP4XY1YkvcpNqAIgfdY9doQAFKOByAb8OCInJOfeJkjyXK7ICbxDQAbRA9OXOEPsvuZOiNwwJ20ABCviygN8GhPg5q0MsvRqMj9yM9eUBYtu/S0CaBGongAN21fqHQ5lpxmwBDwpQgAIU6KKA3waEhBTbjxXwKoD+XTTi5d4pUCfAO0rJZw12SzY/g+ydg8RWUYACvivgpwFBlDUl50VAPe6J9+t993bw/paLmGsJ/sOi4cOW5gsHSpY9fsb7W80WUoACFPA9Ab8MCGNSbdM14DUIBvnekLDFVxMQoBmQp5tDQzNLT4acR95cJ6UoQAEKUMB1An4XEObMWW05GNWYKiIvu46NJbtJ4CwgFQDWFGYl/9FNdbIaClCAAhTwx70Yxv88p19rs/yDixN99/4WSI0SrNehtpxv1VZzfYHvjiVbTgEK+K6A380gJCTn/qtS+kbfHZIAbrngpK6ppy1KrwgW54dt7eMQwELsOgUoQAG3CfhdQEhMyT4tUNzS2W23ULdUVCmQ3zqcavPBuOMnuc1yt5iyEApQgAJdEvCrgDA6LXd4kK4f6pIIL3aHgPEmQp1AGjQ9KKnAtmCzOyplHRSgAAUo0H4BvwoICSnZXyioce3vPs90v4AcEaiPFLCysC5iI99GcP8IsEYKUIAC7RHwm4BgTcmZCoU1EOnTno7zHPcKiGAXNKzUnLK3wJbMGQP38rM2ClCAAh0W8JuAkJCak6VEkgBoHVbgBS4TEOBLJfqTjtbW4pLzfY5zxsBl1CyYAhSgQLcK+EVAsC7ItSJIz4HCxG7VYWGdETDWF9gFKGttuTCFXzrsDCGvoQAFKOB5Ad8PCOnpmrVy0JMAnvc8Z2C3QIB9SmS/U/BisS3Z2CiLBwUoQAEK+KiAzweEsY+8EqM7Q5YBuN1Hx8DXm90KYAsEO6FpKwozF5b4eofYfgpQgAIUAHw+IIxOzZkQJPI51x545HbepHR51gGUHshedAxKGY8XeFCAAhSggB8I+HxASEix7VTAzX4wFj7UBZUn4vy5HhtZW5w+1+5DDWdTKUABClCgnQI+HRDiH829zuLQq9rZV57WeQEjBBw0/tEsQU/ue3V+ZeeL4pUUoAAFKOALAj4dEKwptnUAZvkCtI+2sVGAbUqwx67XPHcw5zcNPtoPNpsCFKAABToo4LMBITE5a4gorRhAaAf7zNO/Q0AEooAXAbVVs7fs2rfsZ5wx4F1DAQpQIMAEfDYgWFNyVgNynz9uWe3Be9AuUM9DabYeaKnibooeHAlWTQEKUMDDAj4ZEMYvzOnXapF1UJjkYT9/qL4JwFkAbxdmLXrCHzrEPlCAAhSgQNcFfDIgJKbanhLBMwCCu04QsCXUK+AjHbIpIvzazB1/nXshYCXYcQpQgAIU+JaAzwWE8Um2ga0W9TIg93A8OyVQK5DnlLIcDYF9/e7MtPpOlcKLKEABClDArwV8LiAkJOdOg9LfV1yc2LEbU3AaIn/WtKCNUTHXH9yaPt34AiIPClCAAhSgwFUFfCogTEvPDzpTcfgFKDzG8WyXgAMCO0QWFtqS89p1BU+iAAUoQAEK+NobAObixCA5xZH7ToFqAHt0yLJQ5VyzOzPN8Z1X8AQKUIACFKDAJQI+NYOQkGJbrICfcwSvLiBAsRL8XVnU7oKMpDUAuDcCbxYKUIACFOiUgM8EhDlzVltKejW0ALB0qqf+fJFIBZR6WkTf0ze2snhrejrXF/jzeLNvFKAABdwg4DMBwZpqy4Ag1Q0mPlSFVCHIPrnhQs8T5bkLWribog8NHZtKAQpQwMsFfCIg3JiaEWlH0HYIErzc0+XNU8BRgTqkBM8WZCdtcXmFrIACFKAABQJSwCcCgjXZ9hgU/gwgIiBHCdAB9ZmI/oUuWFpsS/4sQB3YbQpQgAIUcJOA1weEcQtye7UG668oYJ6bTLyqGgE+E8hfBXphcV2vEuTNdXpVA9kYClCAAhTwSwGvDwgJKbYfK+ANAD39cgTa6JQAH1hg+WWQaqnenZlWE0h9Z18pQAEKUMDzAl4dEG5MzQhu0YOeVAp/8TyVy1tgzAycFJEyaM6kosy0MpfXyAooQAEKUIACbQh4dUBITM6KFaUOACrcX0dQgGYo7IKgSPT63++3/cLYWZEHBShAAQpQwKMC3h4QnhKl+efsgfEJI4U3BLIFKmhbUeYCzhh49H8KrJwCFKAABS4V8OqAkJBiM7Ykvta/hkxaBSpbU2qpPdhSWrJk/hn/6h97QwEKUIAC/iDgtQEhYVFuktJ0mz8gAzDWF9gheKdP6fEHt27llw79ZFzZDQpQgAJ+K+CVAWHwgtzQiBD9EASDfFy+CVB7deibJLjlueKXH2v08f6w+RSgAAUoECACXhkQElKyH1ZQS3z4w0hNgGSISHmz0/JmaW7S6QC5n9hNClCAAhTwEwHvCwjp6Zq1Im45lDzgc8aCOij1EoBNDQ61s3zpwmaf6wMbTAEKUIACFDDX0XvZ8fWHkV4F0N/LmtZmc0Qg0PQnI66JzIqtgD2PXzv0laFjOylAAQpQoA0BrwoIxoeRHLr2a1Haf/nAiNUDUmq8kdAcej639G9PGFtR86AABShAAQr4hYBXBYQxi7Jv0DT1DoBRXqxbDuAfAuwpqovI4t4IXjxSbBoFKEABCnRawKsCQkJy1v1KaSs73RsXXihAtSZ4XkR2Os9VfFqcl253YXUsmgIUoAAFKOBRAa8KCNaU7LOAivKoyLcrr1NB2g9aWvRj4UGtp3dnpjm8rH1sDgUoQAEKUKDbBbwmIMSnZI6xwFLU7T3sVIFSC6XKlVP7Q4FtofHIgwcFKEABClAgoAS8JiBYU2wVAGI8pm+8iaCkWKD2Q8FWlLloo8fawoopQAEKUIACHhbwioCQmJY9U3S1DkCIJzwEKIboGRrwWe/Yyl1b0/kpZE+MA+ukAAUoQAHvEfCKgGBNsb0FqNmAuLU9AmxXmvxexFlZlJl6GFDGHos8KEABClCAAgEv4NYf5KtpJybn3irK+RqgRrh+NMwA0AzRDyvBvAJbspeseXB9z1kDBShAAQpQoCMCHg0Ic+asthyMavijCH7XkUZ3/FxlB+QggFKRnj8ryn6guuNl8AoKUIACFKBA4Ah4NCAkJtlGikUtBeRWl5ErbFA6tojWuqEwM63QZfWwYApQgAIUoIAfCXg0IIxNyfm+DnkPgNadpgLoAFYD6g1dOQqKM9OOdWf5LIsCFKAABSjg7wIeCwiDF+SGRgTrOwEkdiuyyGY02eeEhFsa+VGjbpVlYRSgAAUoEEACHgsICalLhylxlnbZWmCHwmEBtjQ39fht6RsPnetymSyAAhSgAAUoEOACHgsI1hTbZgC3d8G/RYzHCILDGvTsguwU40NLPChAAQpQgAIU6AYBjwSErxYnoqST7W+AwjIlyG8Njvig+OW5jZ0sh5dRgAIUoAAFKNCGgEcCQmdmD0QgSskzSiQDLT1qC5b/9DxHlQIUoAAFKEAB1wi4PSCMTLINDLHAeLwwqh1daja2WQZURg/leHF3ZlpTO67hKRSgAAUoQAEKdFHA7QEhIdX2FyX4BQBL222XaoHaDqV/oddWPlecl27vYj95OQUoQAEKUIACHRBwa0BISM0YBgnKUsD0q7VRBGeUUtkQ7GhoVR+UL13Y3IG+8FQKUIACFKAABbpJwK0BITHF9hMB3gDQ44r2N0LJw7rSDoWKo5yPErppdFkMBShAAQpQoJMCbgsII5NsESFB6mWIPPR1Wx0AqnVN/Xp/RtKbnWw/L6MABShAAQpQwAUCbgsICclZo5XSigU4qqDKBJJRlLVotQv6xCIpQAEKUIACFOiigNsCgjUl5z8BBIuSj/TaiK3FeXO58LCLg8fLKUABClCAAq4ScFtAGLsoe/y+c9cWIG+u01WdYbkUoAAFKEABCnSPgNsCQvc0l6VQgAIUoAAFKOAOAQYEdyizDgpQgAIUcJuAiGTouo76hvNobmkBpB1VKyA8LAwR4WHtODkwTmFACIxxZi8pQAEKBIyA0+nMOHaiGhs/3IHqmrPt6remaYgbGI3vT7mBfmayAAAI0ElEQVQN/ftGtesafz+JAcHfR5j9owAFKBBgAmfPNWSsWb8JVadqOtxz66jh+MH029AjOLjD1/rbBQwI/jai7A8FKECBABc4WX0mI3PlW51SCA8LRfK8e/moAQADQqduIV5EAQpQgALeKnCy+nRG5sq1F5sXGRGOiPBrEGTRcKauAQ2NjW02PbRHMB55cM5VA0JjUxNEB8J69oDF8u3thPJ37EJU5LVIHHUDjEcWVx4OhwP5O/dgeFwshsTFtJtPB2BvbkGLw/i+INAjJBihPa78IHG7izNP3LBtB/r3jsIEa9v7JjIgdMyUZ1OAAhSggJcLXBoQIsPDkfrAj3Gmvh5NF+xwOFqx5v1NZg8sFuNHXMHp/Ofb920FBIfTiSWvrYKzVcecu2YgLmbAtxSez3wdgwcNwOw7p39d9uWnGAHjpdxVmHLLBNw2cWy7Fauqa7D5489x9EQVjMWX48aMwI9mTGn39Vc78U+LszF8cCzmzZrZZjkMCF0i5sUUoAAFKOBtApcGhAljRmHG5JuwbuM2HKuqRp/ISJw8XYMZk29BcLAFGjRccLRgy/bPzR/ftgLC2foG5OatQ1iPnpiYOBo3WuNhTBIYf91XVZ/CscpqbDNmBwbHmgFBKWB/SRma7HZz8eOA/n1hBITFOSsxNG6gOYMwYshgREVGmHyNTc04dKQcDocTY0YMMd+o+OZYsXYDHE4H4m8YagaakOAgJIy6ATVn63CssgqtTh1D42IQ3bc3dB0oO3oMp8/UondUpFmPsZ5i/6EjiIwIQ4ujFX2jIrE4d+XFgFBeUYXzTc1mvZceDAjedmezPRSgAAUo0CWBy2YQIsLx+Py5qKtvQOGhMuzcW2gGgafS5qOwpNScUTCm2fcUHjCn3dsKCHnrN6GpuQUx0X1RUlaOnz10H5RSKCgpxYc796Cp+YL54x4/fAjuvmMK3t30IQ4fPwGnU0d4aChmz5yGXpER+Gv2Clg0DZrFYj7GuOeOKQgLDUX+p7sunj8sLgYzp9528THHkuV5EF3H3TMmY3BsjNn+smMn8MG2j9HU1AwdOiLCwzH5pnEYOTgOmW++bbYnODgYU24ajwkJo/GCbQWCg4Ogi4577piK19e+bwaExNEjzbpn3HYTRg0bzIDQpTuPF1OAAhSggFcLXLkGoXdkBB6Y/UNERlyDqtM1WP7WejyV+lNs/niXGRh+nTYfZ+vrkb1y7VUDgvGD/MxLORgXPxx9ekVi66d78ETyAzjf2GRec0viGEydNBGLc980HzEMjO6Pj3buMYOCMXPw7ubtaHU6cO/M27FkWR4m3zweY0cMQ07eOwi2WDB10gSs37wdD913F4z1En/LXYUZ35uIW8ZZTWfjL/wV6zaYj0KMUPHIgz9B2dEKvLUhH8nzZiMqKhIvZL+OMcOHYfptExGkGesjBDu/KMKOvfvx2MM/weKlq9G7VyR+MO1WDBpwHf57Sa5ZV1jPUAweGI3bJ9/yrXUTnEHw6tucjaMABShAgY4KXDmDYMwSGAv8Zk6bBOORw7Ov5JoBwVhUWHSoDI89PAeV1V8Fh6vNIJSVV2DF3zcgun9vBCkNp2pqMc46CmNHDkf2qrW4d+Z0jBkxDN+sQQgL7YldhcV4+olk86/9/E9345Nd+/D4wvvxyrL/NQPClJvGYXHuKugimHbrBLy3ZTsiIyPM8qEp3GSNv2wBofHK5ud796O4rBzGmxZTb5mItRvzkTpvNvr17Y0Ptn2CU2frMXbUMDP4GAspWxxOc0HmEwvn4aXXVmP0DUPMthqHsQbBOIzAMfv70zH4KmsqGBA6eufxfApQgAIU8GqBSwPCpAlW86/42nMNGBYXC+NNAuPH3pg1OFJRBafTgbiBMVi3aRsOlZVfNSAY0/HHKk9i0vgEs9/7vzyMc41NmH/vXcjJ+7s5tT954viLMwj9ekeZgWDWndMwaEA/vJf/CerrG3D/PXdiydcBYVjcQKxct9F86+HGsaPx/ubtmD75ZvOH2lhTYPx1bwQB49hbfAjXxwxAz9AQc8ZC1wXTJ92ItRu3mQHBeJSwav0mxF7XD6fP1KGy+hSS7p+F0vIK8/FHWwHBqCO0Zwgir7kW9/5wujmbcenBgODVtzkbRwEKUIACHRW4fAYhAsOHDkKviAicra1H+Ykq869qIyAYX1s88GWZ+Ze3sdjPOK6cQWhsbMLyt9djQHRfzLpjqnnOJ7sLzAWJd98+2QwZZeXH0b9PFI5XVWP4kDjzef43axaMH+EzdfWYOfVWc8Hgi9krzJkCYx1Cc4sD82bdaZb5zqYP4dTF/IveWEhpBIDQ0K9eZXzptVXma43GosrKkzWwjhyKoXGx5iOGmOj+5roCY4bkR7dPQdnR4/hkTwGujx2AhoZG1NTWtxkQjPYYayaMNyQGDYjG3LvuuOwxAwNCR+88nk8BClCAAl4tcOUaBPOLBOYrB8ZyPpg/tE+lzsfWHbvx6Z595n/3zXFlQDB+ZE+dqUNcTLT5l7pxGK88lh+rRFhYKK7r2wfHqk7i2PEq9O0ThWHXx5o/5sZ6AeNxQMO5RowYGmc+/ze+jVD85RHUnK01f9hjY6IvfrHR2DOipPQo6s+dw7DBgxA7IPpimxoam3DwSDmam+0YdcP1iIqMREnpETMgjIsfgZFD4sxrjG8zGI80jM9LG29E9IqINN9uMEKH8Z8jwsLNoGMcxmxJWFhPDIzuhxNVp81FjQMH9L/s7QkGBK++zdk4ClCAAhToqIDxJcXslW9d9sN/aRnGD+n8++7C5/sOoLDky8uKN14vNBb+efumTfsPlZkBwXjEEN3/qx/97j4YELpblOVRgAIUoIBHBerONWSs3ZBvfvego4fxEaI7p0zy+r0YjEWL+w4cwvduTDRfcXTFwYDgClWWSQEKUIACHhMwdnM8UX0a7+V/3O7dHI3GDomLxQ+nTjI/MMSDezHwHqAABShAAT8TEJEM41m88czeWLxnfGTouw5LkIYewSEXFwZ+1/mB8O//D1fgTU/bVvS6AAAAAElFTkSuQmCC;" parent="1" vertex="1">
          <mxGeometry width="520" height="520" as="geometry" />
        </mxCell>
      </root>
    </mxGraphModel>
  </diagram>
  <diagram name="Technical Requirement" id="bgl59KYOsI1eCWbRol7I">
    <mxGraphModel dx="1106" dy="997" grid="1" gridSize="10" guides="1" tooltips="1" connect="1" arrows="1" fold="1" page="1" pageScale="1" pageWidth="850" pageHeight="1100" math="0" shadow="0">
      <root>
        <mxCell id="M6P-3ecTp5NmkTmpraIK-0" />
        <mxCell id="M6P-3ecTp5NmkTmpraIK-1" parent="M6P-3ecTp5NmkTmpraIK-0" />
        <mxCell id="M6P-3ecTp5NmkTmpraIK-3" value="" style="shape=image;verticalLabelPosition=bottom;labelBackgroundColor=#ffffff;verticalAlign=top;aspect=fixed;imageAspect=0;image=data:image/png,iVBORw0KGgoAAAANSUhEUgAAAggAAAIICAYAAAAL/BZjAAAgAElEQVR4XuzdeXwcdf0/8Nd7dpO0pbQUimBBBeQQ8UBRkUOItNlNgIrX0uym5VKKIOW+euxmmvQCOYRC0aJSbbMpRBFBSTcFrAeCB+pPUQ5PBAsIcpQCTTY7799j2uoXsMfO7DHXa//lc7zfz/e0vLs7Mx8BPxSgAAUoUFsBhXR0tnxSYdxW2424OgWqJyDVW4orUYACFKDAmwVM0zQeLT2QEdHl1KFAkATYIASpWoyVAhQIlMCm5uD+c0TwJQDxQAXPYCMvwAYh8pcAAShAgZoIKCQ9N3GmWLIIwI412YOLUqCGAmwQaojLpSlAgcgKSHpO4gQx5LuRFWDigRdggxD4EjIBClDAZwKSySU/AeB2n8XFcCjgSIANgiMuDqYABSiwTQHpyCbPUMGNdKJA0AXYIAS9goyfAhTwjUAmmzwbggW858A3JWEgFQiwQagAj1MpQAEK/Ecgk2tNAZrn0wq8JsIiwAYhLJVkHhSggGcCHblEm0Lu8iwAbkyBGgiwQagBKpekAAWiI9CRS5yskGXRyZiZRkWADUJUKs08KUCBqgukc4kZgo3vORhV9cW5IAU8FmCD4HEBuD0FKBBMgc3fHCxhcxDM+jHq7QuwQdi+EUdQgAIUeIMA7zngBREFATYIUagyc6QABaomsPlphVurtiAXooBPBdgg+LQwDIsCFPCfwOb3HFzDRxn9VxtGVH0BNgjVN+WKFKBACAXSudYzRPVLEB68FMLyMqUtCLBB4GVBAQpQYDsCHWbieLXkTkJRIEoCbBCiVG3mSgEKOBZgc+CYjBNCIsAGISSFZBoUoED1BTb+rAD9SvVX5ooU8L8AGwT/14gRUoACHghsvCERWMB7DjzA55a+EGCD4IsyMAgKUMBPAjx4yU/VYCxeCbBB8Eqe+1KAAr4U4EuQfFkWBuWBABsED9C5JQUo4E+BTDZ5kkKXiQj/bvRniRhVHQX4h6CO2NyKAhTwr0B7LvlFA7APXhrt3ygZGQXqJ8AGoX7W3IkCFPCpQCaXnAboEkDYHPi0Rgyr/gJsEOpvzh0pQAEfCWRyrUmFfl+AuI/CYigU8FyADYLnJWAAFKCAVwKZOa2fVkNvYXPgVQW4r58F2CD4uTqMjQIUqJnA5pcgfRnAiJptwoUpEGABNggBLh5DpwAF3Al0mInTtCRXQjDO3QqcRYHwC7BBCH+NmSEFKPA6gbSZbBUL3wPQSBgKUGDrAmwQeHVQgAKREUjPSbZCcLsImiKTNBOlgEsBNggu4TiNAhQIlkA6lzwVihvZHASrbozWOwE2CN7Zc2cKUKBOAuls8vNivwRJsEudtuQ2FAi8ABuEwJeQCVCAAtsSyOSSJwC6gi9B4nVCAWcCbBCceXE0BSgQIIGOXOtEhdo3JO4QoLAZKgV8IcAGwRdlYBAUoEC1BaaayROtEr4BYXNQbVuuFw0BNgjRqDOzpECkBNrNxGmGhSsA4T0Hkao8k62mABuEampyLQpQwHOBdDZ5oghuADDe82AYAAUCLMAGIcDFY+gUoMAbBdJm4hgpye0Q7EgbClCgMgE2CJX5cTYFKOATgam55HEWkAcwxichMQwKBFqADUKgy8fgKUABWyCdS5wskGsAnq3AK4IC1RJgg1AtSa5DAQp4IpCZnejQmFwpwO6eBMBNKRBSATYIIS0s06JAFATac60TRfU7IhgbhXyZIwXqKcAGoZ7a3IsCFKiawMYbEi3pA7Bz1RblQhSgwH8F2CDwYqAABQInkM61pgXWEkB2ClzwDJgCARFggxCQQjFMClBgk0CH2TpVLb0cwASaUIACtRNgg1A7W65MAQpUWSBtJlvFwrcA7FrlpbkcBSjwJgE2CLwkKECBQAiksy1HC4w+CJuDQBSMQQZegA1C4EvIBCgQfgH7yGYFviZ8fXL4i80MfSPABsE3pWAgFKDAlgTas8mMiFwh0D0oRAEK1E+ADUL9rLkTBSjgUCCdS0wWyBIAdnPAv68c+nE4BSoR4B+4SvQ4lwIUqJlAR7btCBXrVj6tUDNiLkyBbQqwQeAFQgEK+E4gPSdxDAxZJsDbfBccA6JARATYIESk0EyTAkER6Mi1fkpVr4WwOQhKzRhnOAXYIISzrsyKAoEU6DATx6u18VTGfQOZAIOmQIgE2CCEqJhMhQJBFuiYPemjGjN6ANknyHkwdgqERYANQlgqyTwoEGCBjJn8CDa9IfGAAKfB0CkQKgE2CKEqJ5OhQPAEOjpbEqpyPSD7BS96RkyB8AqwQQhvbZkZBXwvkJ6TbBUDVwI4yPfBMkAKREyADULECs50KeAXgU33HMS+DuBAvgTJL1VhHBT4PwE2CLwaKECBugtkzJaDYcnNgBxc9825IQUoUJYAG4SymDiIAhSolkC7mTjcsOx7DvCBaq3JdShAgeoLsEGovilXpAAFtiKQySU/DuAqNge8RCjgfwE2CP6vESOkQCgE2rOJQw2RG6D4IIQHL4WiqEwi1AJsEEJdXiZHAX8ITDET74lZuAmQj/ojIkZBAQpsT4ANwvaE+N8pQIGKBKZmk++37G8OoEdUtBAnU4ACdRVgg1BXbm5GgWgJdGRbjlAx7LMVPhytzJktBYIvwAYh+DVkBhTwpYB9z4GIXCvAR/ieA1+WiEFRYJsCbBB4gVCAAlUXmDJn0oGGEfuaAIdXfXEuSAEK1EWADUJdmLkJBaIjkDYT70IJN4jIMdHJmplSIHwCbBDCV1NmRAHPBDLZxCEqco0AH/MsCG5MAQpURYANQlUYuQgFKNCRnfhhldg1gPBpBV4OFAiBABuEEBSRKVDAa4HN9xx8VYAjeUOi19Xg/hSojgAbhOo4chUKRFYgM6dlPxjGYgDJyCIwcQqEUIANQgiLypQoUC+BdDZ5kECvhkiiXntyHwpQoD4CbBDq48xdKBA6gcysloM1ZlwjgubQJceEKEABHpjCa4ACFHAuMG3OpANLYlwPEbs5MJyvwBkUoIDfBfgNgt8rxPgo4DOBjDlxH7Xi1wlwnM9CYzgUoEAVBdggVBGTS1Eg7AKZyybug4b4VRB8Muy5Mj8KRF2ADULUrwDmT4EyBexHGWNifJk3JJYJxmEUCLgAG4SAF5DhU6AeAlPMY/ePlYYXA9IC4b1L9TDnHhTwWoANgtcV4P4U8LlAh9m2p1rW9QBO8HmoDI8CFKiiABuEKmJyKQqETaDdbJlglIwvQZAJW27MhwIU2LYAGwReIRSgwBYF2s3WvQxLrwTwGRJRgALRE2CDEL2aM2MKbFeg3Wzey7BGXAfo5O0O5gAKUCCUAmwQQllWJkUB9wIps3n3Bqvpeig+zRsS3TtyJgWCLsAGIegVZPwUqKJAetbE3SQemw/I56q4LJeiAAUCKMAGIYBFY8gUqIWA3RwgHl8owKm1WJ9rUoACwRJggxCsejFaCtRE4BSzefchq+k6AKmabMBFKUCBwAmwQQhcyRgwBaorkDabx4s2LoaK3RzEqrs6V6MABYIqwAYhqJVj3BSogkDKTO7cYGEegDOrsByXoAAFQiTABiFExWQqFHAi0GG2jVHL6gJwrpN5HEsBCkRDgA1CNOrMLCnwBoHMZceN08biNQI5mTQUoAAFtiTABoHXBQUiJnCK2bzTUKnpBoi0A2pELH2mSwEKlCnABqFMKA6jQBgENv6soNblUHwhDPkwBwpQoHYCbBBqZ8uVKeArgU9c8okdRzdtyEHkIl8FxmAoQAFfCrBB8GVZGBQFqiuw+YbERXxaobquXI0CYRZggxDm6jI3CgCwmwOrVLpBRKYShAIUoEC5AmwQypXiOAoEUGDaRYkdSjvIl6FyGm9IDGABGTIFPBRgg+AhPremQC0FNn1zYM0WwSW13IdrU4AC4RRggxDOujKriAtMNyePetka6hLgwohTMH0KUMClABsEl3CcRgG/CqTM5tENmw5e4qmMfi0S46JAAATYIASgSAyRAuUKTDYnjxqtQ4vFwskQHrxUrhvHUYAC/yvABoFXBQVCImB/c9BoNeYUcnFIUmIaFKCAhwJsEDzE59YUqJbAjOvamv79rJWDYFa11uQ6FKBAtAXYIES7/sw+BAKp81MjG8asu5qvTw5BMZkCBXwkwAbBR8VgKBRwKnCK2TxiyGpaAsA+lZEHLzkF5HgKUGCrAmwQeHFQIKACm5qDxgWAnB/QFBg2BSjgYwE2CD4uDkOjwNYE2q5raxr3nM4EtJNKFKAABWohwAahFqpckwI1FEiZqca4tW4BX4JUQ2QuTQEKgA0CLwIKBEjAbg4arJeWAPK5AIXNUClAgQAKsEEIYNEYcjQFms3m+ARtugaKs3hDYjSvAWZNgXoKsEGopzb3ooBLAfuGxGKp6RIVzHW5BKdRgAIUcCTABsERFwdToP4CqVQq1nDgOvtmxGz9d+eOFKBAVAXYIES18sw7EAKpW1OxhofWLQZwZiACZpAUoEBoBNgghKaUTCRsAqZpGn/SBxarpWfw4KWwVZf5UMD/AmwQ/F8jRhhBgbYZbU3jxpUuA8SMYPpMmQIU8IEAGwQfFIEhUOBNApLOJWYJZB5lKEABCnglwAbBK3nuS4GtCKSziWtE5DwCUYACFPBSgA2Cl/rcmwJvEshkkzdCMJ3vOeClQQEKeC3ABsHrCnB/CgCwH2VsPHDdXAVmE4QCFKCAHwTYIPihCowh0gKb33NwEYBFkYZg8hSggK8E2CD4qhwMJooCHbnkPH5zEMXKM2cK+FuADYK/68PoQi6w+Z6DL4Q8TaZHAQoEUIANQgCLxpDDIZDJJa4G5FzekBiOejILCoRNgA1C2CrKfHwvYB/Z3KgvX6CqC30fLAOkAAUiK8AGIbKlZ+JeCWRySfvQpS6v9ue+FKAABcoRYINQjhLHUKBKApnO5GIozq7SclyGAhSgQM0E2CDUjJYLU+CNApubA/uGxDhtKEABCvhdgA2C3yvE+AIvYN9z0GCtu5Q/KwS+lEyAApESYIMQqXIzWS8EOjpbL+MNiV7Ic08KUKASATYIlehxLgW2I7D5UcbzCUUBClAgaAJsEIJWMcYbGAEevBSYUjFQClBgCwJsEHhZUKDKAjx4qcqgXI4CFPBEgA2CJ+zcNKwCPHgprJVlXhSIngAbhOjVnBnXUCDTmeiGypwabsGlKUABCtRFgA1CXZi5SRQEMrnk9QDOAsA/V1EoOHOkQMgF+BdZyAvM9OojkMkmvgTI+RDE6rMjd6EABShQWwE2CLX15eohF7BfghQvrTtPBPbBS0bI02V6FKBAhATYIESo2Ey1+gIdudaZqtrNbw6qb8sVKUABbwXYIHjrz90DLJDpTF4FC+eyOQhwERk6BSiwVQE2CLw4KOBCoCOXvFKBGQAaXUznFApQgAK+F2CD4PsSMUA/CUz/6iEN6/85/gIF5glPZfRTaRgLBShQZQE2CFUG5XLhFkhnWy8QWIsg0hDuTJkdBSgQdQE2CFG/Aph/2QKZzuR8WLgYAjYHZatxIAUoEFQBNghBrRzjrqtAJpu8CtAZ/OagruzcjAIU8FCADYKH+Nza/wKmaRqPWj+bKZBOgN8c+L9ijJACFKiWABuEaklyndAJ2M3BY9b9M1RxuQiaQpcgE6IABSiwDQE2CLw8KLAVgY0vQYLmAIwgEgUoQIGoCbBBiFrFmW9ZAuls0v7W4Dy+56AsLg6iAAVCKMAGIYRFZUqVCWRyraaqXsafFSpz5GwKUCDYAmwQgl0/Rl9FgY0vQXpy1zMhWAToyCouzaUoQAEKBE6ADULgSsaAayWQySXOB2QegFG12oPrUoACFAiKABuEoFSKcdZUIN2ZnCsqF/Obg5oyc3EKUCBAAmwQAlQshlobgU3NAS7iNwe18eWqFKBAMAXYIASzboy6CgLTpx/SsH738WcJsED5s0IVRLkEBSgQJgE2CGGqJnNxJNCRS37RAhYJMNrRRA6mAAUoEAEBNggRKDJT/F+BTDY5C4KZYHPAy4MCFKDAFgXYIPDCiJxAurNlrqjBew4iV3kmTAEKOBFgg+BEi2MDLbDpbIWfnctHGQNdRgZPAQrUSYANQp2guY23AptOZXzgdIFeAWCMt9FwdwpQgAL+F2CD4P8aMcIqCGRyyXMVmCvA2CosxyUoQAEKhF6ADULoS8wEM3OSWRi4FMAO1KAABShAgfIE2CCU58RRARXIZBMXQaSTTysEtIAMmwIU8EyADYJn9Ny4lgKbXoK060lQ/RIE42q5F9emAAUoEEYBNghhrCpzQjrb8nkRYyGA8eSgAAUoQAHnAmwQnJtxhs8F7BsSAeQA7OzzUBkeBShAAd8KsEHwbWkYmBuBdC4xQyBzAf6s4MaPcyhAAQr8R4ANAq+FUAg0m83xCWjKqIUrBdg1FEkxCQpQgAIeCrBB8BCfW1dPoCObzKjgcgB7Vm9VrkQBClAgugJsEKJb+9Bkns4lTxXoPEAmhCYpJkIBClDAYwE2CB4XgNtXJtCeS55uqC6EyC6VrcTZFKAABSjwegE2CLweAilgmjAetVqmCOQaQHYLZBIMmgIUoICPBdgg+Lg4DG3LAnZz8BhaPwlLrwSwN50oQAEKUKD6AmwQqm/KFWss0D4n8VnDkEUA3lnjrbg8BShAgcgKsEGIbOmDmfjGpxWAKyF4azAzYNQUoAAFgiHABiEYdWKUANK55GcEWAywOeAFQQEKUKDWAmwQai3M9SsWSN2aijX+7qU2NXA1IPtVvCAXoAAFKECB7QqwQdguEQd4LTA1lzzOAq4A8G6vY+H+FKAABaIiwAYhKpUOaJ5pM/FJscR+WoE3JAa0hgybAhQIpgAbhGDWLRJRZ3LJEwBcz9cnR6LcTJICFPCZABsEnxWE4QCpVCrWcODLkwC1b0jkPQe8KChAAQp4IMAGwQN0brltgSlzWhKGYXxJgPfRigIUoAAFvBFgg+CNO3fdikA623K0iHEDgIOIRAEKUIAC3gmwQfDOnjtvQSCTS/4JwL7EoQAFKEABbwXYIHjrz91fJ5DJJg5RyH0iaCIMBShAAQp4JKBQCP7IBsEjf277RgHTNI3H9Gf9UEnQhgIUoAAFPBMoQvGjYgxT2CB4VgNu/HqBqWbicMvCMr4pkdcFBShAAW8EFBgGUBDLOj8/b/Wf2CB4Uwfu+iaBTDY5C4IuADHiUIACFKCAJwI/jFn6ueXzBv5m784GwZMacNPXC3SYbe9Wy1oO4IOUoQAFKECB+guo6u9ffDH24f7F/YP/2Z0NQv3rwB3fKCAZs/VTsPQ7hKEABShAgToLqBZh4IdFGTu5z+wbev3ubBDqXAtu90aBlJlqbNB1P4BiEm0oQAEKUKCuAva3Bd9HKXZhfv5dj795ZzYIda0FN3uzQMacuA+s+F8oQwEKUIAC9RQQS2B9T43SRXnznr9uaWc2CPWsB/f6H4FMNvkIBAeQhgIUoAAF6iegovc2yajPLDNvf3Fru7JBqF89uNObBFIz23ZtaLD+5QJmWIDLeroKV/1nbtpsHi9WYxKQJIDDATRsvgl3FICxAOIu9uEUClCAAuESUBTtRxnz3YXJ20uMDcL2hPjfayaQySa/A8GnXWzwQr6rsPP25p1iNo8YLDUcasRin4Gl41UwEor3AngHG4bt6fG/U4ACoRNQfQ1i3KbDxQt7F9zzzPbyY4OwPSH+95oIpLPJg0TwPQDvdLqBAGf3dBXsA50cfaZdlNhheAQOhWHsJ6r2NwyfVMHRwm8XHDlyMAUoEEAB+2kFkZUoxbJbuiFxSxmxQQhgncMQcqYzOR+Kizf/FOAopbXGYMMac439xq+KPqnZx+zRZDSMV7HGK+RcQLb7lVtFG3IyBShAAe8EbokZes5yc6Dsn3XZIHhXrMjuPHVW8q1WXL/q5n/Ioji/p7vw5Vrh2d9sQHCjAIdsbl7sbxr4oQAFKBBUAUtVb+vtHkg5TYANglMxjq9UQDK5REZVlos4fpPnC6r4WG934Q+VBlHO/Ew2MR2QFARvATY+acFTJsuB4xgKUMAvAq+o4BZDjPN7zP51ToNig+BUjOMrEugw28ZYlvUVAdJOFxKRJRCZ6eZCd7rX68ZLx8yJB6Ih3qbArgqdKpA9KliPUylAAQrUXECAVwFdDiM2r8fsf9LNhmwQ3KhxjmuB9tmJtxkx+TOARoeLrAdwVr6rYJ/Z4Mln+vRDGtZPGP8BsXRviJxjWTjMxbcgnsTOTSlAgYgJiC5tlHjnMvOup91mzgbBrRznuRLoyLbcomKc6GJy3+g9nutYesaD9jO8Xn+kbUZbY3yXeGxHHbocirO9Doj7U4ACFPiPgKp+Y8dn/v2FpUsr+/uSDQKvqboJnGJ+cqch67UXHG+oWlRDrumdW7jU8dw6TLDftzBUajwbInbjYz+2ud13NNQhLG5BAQpET+AVFf3mjk/9+7xKmwObjg1C9C4gzzLO5JL20wfnOg1AoP/UoYb35hf9wHlz4XSzCsdnci3TADkakCM339hY4YqcTgEKUKAsgZchenNMMN/Jo4zbWpkNQlnuHFSpQGbhceP0tdLvBer4Bj8BrurpKlxUaQz1mt82o61pp530gwasA1VkHoC31mtv7kMBCkRSoATgemMYl69YUHiqWgJsEKolyXW2KZDOJq8SwQw3L0aKvaqjl1858ErQiE0Txp8bkrvpBmMfiHWTAgcGLQfGSwEKBEBA9bpibGh2n7nGvpm7ah82CFWj5EJbE7BfcVwaJT0ATnCqpKorersHpjmd58fxmVzy44BcC+ieAMb5MUbGRAEKBEpgA6A35rsGLqhF1GwQaqHKNd8gkMklOgBZAmCMIxrVomXhnSvnDzzhaJ7PB7fnJh1nwDgDio9AZDefh8vwKEABPwooXpKYLm3A0IJl5pqtHtlcSehsECrR49ztCtgvRlK17EcBv7DdwW8eIFi2/rX159xxxX0vO57r8wkbXSzr41D9NERO8nm4DI8CFPCVgLymootRHL66nFMZ3YbOBsGtHOeVJTDNTLynZMl9jr892Li6Ts13Ddg/TYT2kzKTO8dKup9hyDIo3hXaRJkYBShQNQERWdQgGy6v1TcH/wmUDULVSsaFtiSQziVmCOQ65zpypzGsZ1TzjlznMdRvhmmaxqOl+y8SwRwAO9ZvZ+5EAQoERkBhP61web67MLseMbNBqIdyRPfY+Gri3cdvAGA4JBgSwaKeuYVOh/MCP7z9sta9jAbrBogcBWB04BNiAhSgQLUEXoRgyWhpnL/UvPPVai26rXXYINRDOaJ7pHPJCwW40kX6f1ZDJ/eaA4+4mBuKKZu/efkUgI+HIiEmQQEKuBdQvKyC64aLxrV9C/ufdb+Qs5lsEJx5cbQDgUwu+RyAXRxM2ThUIN/t6Vr1aafzwjTefofCY5i4F0rxixU4VYRHTYepvsyFAs4EdG7RkOv6zMLzzuZVNpoNQmV+nL0VgXQucbFAFgCIO0VqNAZHLjPX2D9NRP5jms3xhwdj+8Qa4o9GHoMAFIiigGL22tjgFWvMNcP1Tp8NQr3FI7DfZHPyqDE69ANVNLtI93f5rsL7XcwL9ZTUzLZd43HrVhF8AMDYUCfL5ChAAVtgHSxcWXzfmAV9J/bZNyfW/cMGoe7k4d8wnUt+xn4vuAC7O83WGpK9Vy5a9Xen86IwPnXppLHxpni7qDWXL1iKQsWZY2QFFC8o8GUpxhd7eUgdG4TIXoG1Sbzturamcc9aCyBw/OpPVawajo05oc/sG6pNdOFYNZ1LtBiKbhU5NBwZMQsKUOB1AsNQdBZj+Eq97zl4cxXYIPC6rKpAu5k43CjhDog4vjnRsuSElfNW3VHVgEK62DQz8ZZhNU4T1YUhTZFpUSCSApbquSNiQ0v9cB8WG4RIXoI1Sloh6c6WdoGRd7HDL4wGOWlFdhVvxnOA12G2nqWWdrl5WsTBNhxKAQrUWkDxCtSanZ+3+tpab1Xu+mwQypXiuO0KnGI2jxiymv4EwD6t0MmnpNDO3q6B+U4mcewmgYzZ+mmU9EwIJtGEAhQIpMCzUL0i9hpu9NPR9mwQAnkt+TNo++ZEAb7tNDoBHi4Z1kkrzdW/cjqX4zcJdFzStqc1wjpPgAtpQgEKBEpgPaC54qD1jb7L737JT5GzQfBTNQIeSyaXfBqA8+OLFXfnuwoJCDTgBJ6GP+2ixA6lkThfRGYqMMrTYLg5BShQloCqdfr62Ij8nXV6fXJZQW0exAbBiRbHblXgxNmJo+Ix+ZFTIlUMSsz6aN5c/Vunczl+ywIducQUS2WxCHalEQUo4FuBoqp1Wm/36hV+jZANgl8rE6C4UremYg0PrfslsPElPk4/f8x3FQ5yOonjty0wbU5i75JhLAf0CFpRgAK+E/iXGOgcwphv+PmxbjYIvrtughdQR2dLQtW4GcAEp9GrWs293asdf/PgdJ8ojk+ZyZ0bLCwBYL+4yvErr6NoxpwpUGsBBZ6HajY+Bt9cfvHAK7Xer5L12SBUose5GwUyudarAZwLqNNjnf+c7yrsR8baCWx6X4JcKIqzeHx07Zy5MgXKFlCc/HKs8dt+vOfgzTmwQSi7qhy4JYEOs+2jWrKWQXCAU6FSqXTYLfPvfsDpPI53JtBsNsf3xIgjLUt/6GwmR1OAAlUViJVa99cjV5umaVV13RotxgahRrBRWNY0TeNP1v2fU2Cp83z1H4ZlJFbM44uRnNu5m5FZeNw4vDb8CwDv3HiqNj8UoECdBOQ5LZXOOaBh9S2miUA0BzYM/5Ko0+URxm3SZvN4w2r6ngKHu8jvsrXG4FVeHGHqItbQTJk6p/UAS6yvQ+QwAE5/EgqNAxOhQL0EBHjaAmY1GYO9fnh9spO82SA40eLYNwi0ZxOHGiJufiL4C4DT810FfuXtwTU1bc6kA4eN2M0C8LAnD/y5ZYQEVIsqenKTUfxu0JoDfoMQoeu0Fqlmcsm/Atjbxdp9o59+rmPp0geLLuZyShUE0ubk8WIN/j9AHD95UoXtubrroLsAACAASURBVAQFIiFgP6X1VKx4X1C/KeU3CJG4TKufZPslLROMEcY/Ha+seNmyrC+unL96ueO5nFB1gUwu+bAqDhDhz41Vx+WCURZ4SS20984rrAoyAhuEIFfPw9gzucQaQI52EcKj+a7Cu1zM45QaCLTPTrzNiGE5IEcCiNVgCy5JgagJrBXFxTs881xf0L8lZYMQtUu3CvlmsolDINIPOH+Vr6XoWNldcHMcdBUi5xJbEth4T4LElojgKN64yGuEAhUJvKSQM198QW7rX9w/WNFKPpjMBsEHRQhaCJnO5I1QnO7mX5z7G4fFgvIMcNDqUkm8m75J2Nj08bXXlUBybrQFDLSsxeCaoN5z8ObisUGI9uXsOPtN7/iXZcDGf206+1jymfy8Vbc5m8TR9RRI55J/E+AdfAS6nurcKwQCQ6rS3Nu96v4Q5PLfFNgghKmatc5FIZlcYgZErnWx1TOWYX1wpbl6rYu5nFIngZMWTNyluCH+XVEcDuE9CXVi5zbBFlirwDnDD4+5va+vrxTsVN4YPRuEMFWzxrmk50/cTQZjNwEy2elWIujaeRdjweJzgv+7nNPcgzbefplSydDFAhzj5mekoOXLeClQgcC/FHLejns8++2lZ4TvsW02CBVcGVGbOjWbfL8lsI91bnCY+7Nq4aSgP/LjMOdAD58yp+2dMaO0ApCPBjoRBk+BWgpYctzofz27OuhPK2yNiA1CLS+ekK2dySXuAqTNRVo3Fh8eMyNsX7+5cAjUlLYZbU3jxumjgNr3JPBDAQq8TkDipff15O5+CICGFYYNQlgrW+W87N+mhzfEn3Ox7CsKdPZ2Fa5yMZdTPBawm4Sdx1n3quJQ3pPgcTG4vV8E/lWCnnJL14D9EqTQNgc2NhsEv1xyPo8jk0t+C8A0F2H+7mWj8bAgnH3uIrdITMmYx+2jpeEbRDAJQDwSSTNJCmxZYK0qzn8qNnhbWB5l3Fah2SDwj8F2BU6d2bbrYEPpcUBGbnfwmwao6sze7oFFTudxvL8EppjH7m+Uhm8UkY/zHxb+qg2jqZvAkGVZqafjxbui0BzwG4S6XVfB3ijTmbxZLZzs5n39xZfXjeq75v7Xgi3A6G2Bk2ZO3GW4If5jAO+mCAWiJlCK4+ADrcN+H6UXvfEbhKhd5Q7zTV06aWy8KXanAB9zONX+ee6afNfABc7ncYafBdK5xM8FcggfgfRzlRhb9QT0xWHV42/tXn1f9dYMxkpsEIJRJ8+iTOcSMwRi/0QwykkQArw6tNOY8X0X9PHbAydwARibmn3MHg2x+E1QmQRx/MhrADJkiBT4r8ATauk5B8QPvyNK3xz8J3s2CPyTsFWB1My2XRsbrGsVSDtlEuCqfxqDl0XltzqnPkEfP8WcuH/cil+tQCu/SQh6NRn/lgX0RUBOKb5nzPf7TgzXGxLLrTgbhHKlIjgunW05WsT4PoDRTtMXMZI9c/sHnM7j+OAItJstE2KW0afA4cGJmpFSoDwBS/Wj74oN/NI0YZU3I3yj2CCEr6ZVySh1ayoW+91LcwxDTKcLKnDT8GDp4r7L737J6VyOD55AOpf8tSgOhvCx6eBVjxFvQWCoWBz+QN/Ce/4YdR02CFG/AraSf2rRpLENr8ZedMHzqkAv6+kaWOxiLqcEUCBlJneOl9AjsvHshsYApsCQKfAfgScFOr1n7sAqSLhfglROydkglKMUwTHpbHKuCHJOU1for4bF+kzf3Lv/4XQuxwdXYKqZ3NeycCWAY12c1RHcxBl5eARUn4HIGfsbh90ZxRsSt1RINgjhubyrmkkml7SfPhjhcFH7t7ob812Fsx3O4/AQCLSbrXsZlrUUkJYQpMMUoiZg6NH7Y+CnUb7n4M0lZ4MQtT8EZeSb7kwsFJXLyhj6hiH2o4077PHcTmE89tSpRVTHp8xUY9xa94AAH4iqAfMOnoBsGHxbzxVrngxe5LWNmA1CbX0Dt3rKbB7dYI34GaDvdRy84p58d8F+Xz8/ERawm4QGa90dUD0GIk6PBo+wHFOvt4AAT5cUJ67sLvyk3nsHYT82CEGoUh1j7MgmTlPBVYDs5HTbFwxjbL/Zv87pPI4Pn0Bm9rHvgFG6GoLjeeNi+OobkoyeUOgXe7sG7Ee5Q30qo9t6sUFwKxfCedMuSuwwPMq4QaAnO05Pkc93Fzocz+OE0ApsPgXyGgCT3ZzjEVoYJuYHgSGBHNvTtepeNgdbLwcbBD9cqj6JoWNO4nhLZIUIxjoNSVUO7+1edb/TeRwfboHMZceNQ9PwHVAcGe5MmV2gBEqxvfLz73o8UDF7ECwbBA/Q/bhls9kcf6vVeKZArnManyoKsRJOXbGg8JTTuRwfDYF0LjkggH1UdDwaGTNLXwooXiiidHRf992/92V8PguKDYLPCuJVOPZrc42S8WsIdnMUg2pRRL7Y01W4ydE8Do6UQMo8dvd4yVosovY9CU4fn42UFZOtmcDjgJyR71pVqNkOIVuYDULICuo2nXQ2+XkRuPifvD6gBk7tNQcecbs350VDIGNO3AdWfJECnxJ+kxCNovslS8ULYhjtPB/GWUHYIDjzCu3oTC75LIDxjhPcdHPiVN7o41gukhPsbxIadPjrULHfuMgPBeoioIr39HYX/lCXzUK0CRuEEBXTbSrpORNbxYj3O52vwNPDlh7eN2/gb07ncny0BTK5xAAgEwEY0ZZg9jUWGLRKut/K+QNP1HifUC7PBiGUZS0/KfvmxAlW018BvK38Wf8ZqT/Kdw00O5/HGVEX+KTZvNMoq+krgHwC0JFR92D+NRGwm4KT812FH9Zk9QgsygYhAkXeVoqZOa2fhug34OLRRqh+KN898GDECZm+SwH7ZUoaH54HS1IiaHK5DKdRYEsCT8GSz+fnrbqLPO4F2CC4twvFzEwu+S0A9j0Ejq4FAX7d01U4JBQITMIzgQ6zbU+1LPsUyCmeBcGNQycgpdJhPfPvfiB0idU5IUf/U6hzbNyuxgKZXGsS0KUA3u50K8PAfivMwp+dzuN4CrxZYNPZDS9/G9DJ1KFAJQKq0IaRw7t+a9Y9/65kHc7dJMAGIaJXwsYXI5UaLxKRhU4JFPowhksf711wzzNO53I8BbYkMP2rhzSsf3L8Mgg+zfck8BpxJaB4yoJ+amX3wM9dzeek/xFggxDRiyI1J7F3gyHfgYtjeRU4rXduwf7LnAecRPT6qUXa9su6pGR0i6AdwKha7ME1QyvwD4HxhZ6ufsdPY4VWpAqJsUGoAmIQl8iYLcfCMn7gPHb5jaXyuZXd/b9xPpczKLBtgfbZibdJXExRnMJHIHm1lCOgisFYTFpXmKvWlDOeY8oXYINQvlWoRmZySfsRoD0dJyX4SvGgMWf3ndhXcjyXEyhQhkCH2TZGoUtgKU8HLcMrykPsew7U0nfwPQe1uQrYINTG1derTuuc9PaSxtycZPaUYeC0FWZhla8TZHChEMjkEj8F5IhQJMMkqi6gwPNQHMU3JFad9r8LskGona1vV87kkg8BOMh5gHwxknMzznAr0G627iWW1SeQD7ldg/NCKqB4vKTG9Fvm9Q+ENENfpMUGwRdlqF8QHdmWI1SMewAXL6axrOPy81bzxSP1K1fkd8qYLQfDMr7h5mbayOOFFMD+5sCyjDSbg9oXmA1C7Y19tUMml7wVwGddPOI6lJ9bGMEnF3xVzigEIx251mMUal+3O0chYea4dQFVVUDey58V6nOVsEGoj7Mvdpk2Z9KBlhHrVeD9TgMqqXzklu5Vv3Q6j+MpUA2BjlzrTFWdD+G7W6rhGdA1Nohh7Ndj9j8Z0PgDFzYbhMCVzF3ApgnjsVJiLkTmuFjhyUZjcL9l5poNLuZyCgWqIpDJJb8N4DNVWYyLBEtA8He1jFN6u/t/FKzAgx0tG4Rg16/s6DPmxH1gxb8G4ONlT9o8UKHnHGAcfoNpmpbTuRxPgWoJpC6dNLZxRPxrqmr/RMZPdASeVAOn9/LpqbpXnA1C3cm92bAj1zpRofbjiXGHEfxDVD7bw58XHLJxeC0E7CcbDGvj+SEttVifa/pOYAgGPpY3C7/wXWQRCIgNQgSK3DajrWncOMt+HOgox+mKzttfDu/ktweO5TihRgIduZaJgHxTIXvUaAsu6wMBVQw1DA9P+NZCHrzkVTnYIHglX8d9M7OPeQdiDX93seXzMHB+3izYR0LzQwHfCGRyCROQLF/H7JuSVDMQ+4yXJ/jNZTVJ3a3FBsGdW6BmZXLJ2wGc4DhokXuL8o+2PvOPQ47ncgIFaiyQMZNfhoVza7wNl6+/wF9EjLN65vIlSPWnf+OObBC8rkCN97dPyDMs458utimq4qze7oJ9YyM/FPCdgH1k+QSr6UqATYLviuMyIFW8FAMmr+gu/MTlEpxWRQE2CFXE9ONSmWzyTgiOdxqbAK8OGWPG9Zl9/PbAKR7H100gM/vYdyBWuhFAW9025Ua1EVB9JW41HvCt+d938w+a2sQU8VXZIIT4AkiZyZ0bLPzYzbkLCr2kt2vgSyHmYWohEchkE+0QuRbAW0KSUtTSsA9lXAsDk3rNgUeilryf82WD4OfqVBhbJtdqAjoTQKOTpVT1pd7ugZ2czOFYCngpkMkmZwHogiDmZRzc27GAQvEYBGfmuwo/dDybE2oqwAahprzeLd5htu2plmU/L+74q1dVndnbPbDIu+i5MwUcCigkY7ZeAdWLHM7kcA8FVPGECE5mc+BhEbaxNRsEf9al4qg6cq2fUrV6IDLS4WJFGNZH8ubq3zqcx+EU8FQgZTaPjltNPxbgA54Gws3LFXhRi3pY70L+rFAuWL3HsUGot3gd9ptsTh41Rofmq+I8x9uJzGuUDfN57oJjOU7wgcCUbPL9huAX4vBnNR+EHrUQnrUM6+CV5uq1UUs8SPmyQQhStcqMNWUm922w8Kcyh79+2DpAz8p3DfS4mMspFPBcYNOhZK0nAXodBDt6HhADeIOAfTciBI8aan2+p3v1feTxtwAbBH/Xx1V0mVziakDOdzxZdUBLpZN6F9zzjOO5nEABnwikzGN3b7Cspap6vPB4aJ9UZVMYCjwGQ8/sNQfu9VVgDGaLAmwQQnhhZHLJQedPLsCes6C3u9AVQhKmFDGBtJl4l1iyBsBuEUvdz+k+VxpG8pYFhV/7OUjG9n8CbBBCdjVkOpM3QvEFF2k9sdYY3GeNuWbYxVxOoYDvBDJm4ihY8iPfBRbBgBR4TkbG98/P/MELEUw/sCmzQQhs6f438A6zbYxVKv1RxPkpdwrp6e1aNTVEHEyFAkjnkvZTDR8jhVcCYgH6mKVGZmV3/2+8ioL7uhNgg+DOzZezMrnW8wU6T4FRTgN82Wjc4U7zzledzuN4CvhZID1r4m4Sj9vv9d/Pz3GGNDZV4A8xQ2asMFfZP/fwEzABNggBK9jWwrW/PVCrtAKQyS5SuiHfVTjbxTxOoYCvBaZPP6Th5d3HnwPFl3jDYt1L9aQYRqrH7H+g7jtzw6oIsEGoCqP3i2SyyZMALIFgB8fRWNb++Xmr3TwW6XgrTqBAvQU+aTbvtIPVtESBdL33jvB+a41hfGjFgsJTETYIfOpsEAJfQiBlphpj1kszDYjpOB1BXsQ4s8fsX+d4LidQICACmVziTEDs14ePCUjIAQ3TvucAf4ZVOp7/6AhoCV8XNhuE4NcQ6WzyIEPwIwV2cZaOviYwOnq6Vn3X2TyOpkDwBDK55LcBfCZ4kQclYrs5sH6nJWNG7/xVPw1K1Ixz6wJsEEJwdXTkkhcqcKWLVAoxKU1fPvfuf7iYyykUCJRA2mx9n1j6/wIVdLCCfUTU+HxPdz/fkBisum01WjYIIShkJpf8N4CdHaZiQfDl/NzChQ7ncTgFAiuQySbPhmBxYBPwa+Ci/zBEJq4wC3/2a4iMy7kAGwTnZr6akTFbPw1Lv+M0KIU+HDfQvNwc+JfTuRxPgaAK2AeZ7WgNvQigIag5+CxuBfRvRSN+RJ9519M+i43hVCjABqFCQC+n249wvbL7+BfdvPcAitvy3QX+HutlAbl33QVM0zQeHb7/fDFc/SRX93h9vqF9Q+JvUcKZ+fmFX/g8VobnQoANggs0v0zZ+Gij4Gtu/jUUs0rvXj7v7of9kgvjoEC9BKaayQ9aFm4F8M567RnGfRT4DUTO6Z3LGxLDWF87JzYIAa5sJpe4C5A25ynoj/NdA0c7n8cZFAi+wClm84iiNi1UxXnBz8arDPRPotZnerrv/r1XEXDf2guwQai9cU12SJvJE8XaeLPVW5xu0GgMjltmrrF/h+WHApEUyMxOdCAmXwYwPpIAlSSteLS4Q+nQvsvufqmSZTjX/wJsEPxfo/+J0H4xUkPp5fkQvchF+L/cZbzxscXn9NvHO/NDgUgKNJvN8QlW0yoAEyMJ4CZpRUkEv4JhnNZj9v/RzRKcEywBNgjBqtfGaKdmk++3BCsBvMtp+GLo5B5z4PtO53E8BcImkMklrgbkXABG2HKrej4KheA+S/Wild0DP6/6+lzQlwJsEHxZlm0EpZBMLjkNgm86D11/XLJip90yr/8vzudyBgXCJdBhtu2plj4G6MhwZVaDbFQfREw/nzdX/7YGq3NJnwqwQfBpYbYWVur8w0bGR+/4NxHZzXHoovP2l8M7TdO0H0/ihwKRF8hkE3+FyN6Rh9g2wC+LReO4voX9z9IpWgJsEAJWb/vcBRE85DRsBR4zDONkHr3qVI7jwyyQmdVyMOLGb8Kco+vcFCUV/GxYSlP7+Dp214xBnsgGIWDVy+QSjwPydodhK4Bv57sKJzqcx+EUCL1AJpt4FSL8meH1lVaUAPwQMeti/qwQ+j8CW02QDUKAap8xk5NgYbWLkActRcvK7sJPXMzlFAqEWiCdTd4kgs+HOkmHyanqvTHIBSu6CzzcyqFdmIazQQhQNTOdrfdA9RinISvwdG9XYQIA+5sEfihAgdcJdGRbjlAxeDzxZhO7OTBiMfvnyCd5oURbgA1CQOq/+fWw9qFMezkNuWQV971l3r18csEpHMdHQsC+rweCH4vzE1FD5iMWVO8txjClzyw8H7LkmI4LATYILtDqPcU+YOYx6/7rAZzpYu+/5LsK+7qYxykUiISAfcLj6NJQpwguiUTCW0pStQhIQYf14t6FA49E1oGJv0GADUIALoiO7LHvVSl9HcCHHYerms53D9gvVeKHAhTYikBHNvkFFdhNeCyKSCq4wxKdfYs54PgJqSh6RSVnNggBqHRHLjFFIT0u/vJ61DBw/Aqz8OcApMkQKeCZQHs2cagB+ToEB3kWhFcbq95pxYxzVpqr/u5VCNzXnwJsEPxZl/9GlTYnjxdr6C5X3x4A5+XnFq6D8OZEn5eZ4XksoArp6Ez2ApjicSj13v57sR21Y/nFA6/Ue2Pu538BNgg+r9EUM/nBmIUHnYap0H8q5IyVXYUfOJ3L8RSIokA6l/iKQOzHHaPwM8MQFN+HVbwgP//ex6NYb+a8fQE2CNs38nREJpsoQCThNAhR3PrP2GDHGnPNsNO5HE+BKAp0ZFs/rKL2t3VhPwLaUpXbELOyvSZvSIzitV5uzmwQypXyYFxm3rHvwFDJze+CLynwud6ugv1YJD8UoEA5Apt+Zvi7Ak7fVFrO6n4a01eyjJk8tM1PJfFnLGwQ/FmXjVF1dCbvU8XhLkJ8YvTTz71z6dIHiy7mcgoFIiuQySVvBZAKK4AAvUODpTP7Lr/7pbDmyLyqJ8AGoXqWVV0pPWvibhKP/xqA/QZERx9F6bTerrtvdjSJgylAAbRf0jLBGGH8M3QU9nsODHwnJjh3uTnwr9Dlx4RqIsAGoSaslS+aySYXQ/AFAHGHqz2b7yq8xeEcDqcABTYLpLPJDSJoCg3Ippcg9ZXUyPFnhdBUtS6JsEGoC7OzTaaayX0tS5YBeoSzmfZpC3pGvntgqeN5nEABCmwUyHQmvwnFSWHhENEVKqXOvHnPX8OSE/OojwAbhPo4O9olk2v9nKre4OJfMa9YJT1w5fyBJxxtyMEUoMB/BTa/ufR3ISG5uVg0Lu1b2P9sSPJhGnUUYINQR+xytspcdtw4NAxfDcEp5Yx/wxjLOm9tvHgDH210LMcJFPivQPu8xNuMIbGfHjICzGIpdPnIHUbM+Mald7wc4DwYuocCbBA8xN/S1htf+SrygIuw/i3QaT1dA/0u5nIKBSiwWSC1aNLY+KvGzQL5VBBRVDEIkZVasrL8NjGIFfRPzGwQ/FOLjZGks8mbRGC/zc3Rx3586RVj8KzbzTUvOprIwRSgwBsETBPGo1byZAG+EVCamy1Duni2QkCr56Ow2SD4qBh2KJlccghAg8Ow1qnqzN7ugSUO53E4BSiwBYF0LvkZAHkBGgMFJPhKUWJz+8y7ng5U3AzWlwJsEHxUlnQ2eYsITnQR0m/XGoMf5r0HLuQ4hQJbEMiYE/fRUuwmETkmQEA3NhqDFywz12wIUMwM1ccCbBB8UpyNNyc2Fv8JyEjnIek1+a6BC5zP4wwKUGBrApnO5GIozg6A0AYFlscNncOXIAWgWgEKkQ2CT4qV7kzOFQuzIY5PkrNeeMEY1b+4f9AnqTAMCoRCYOOfScVl8PfPDCWFfs0wYvN6zP4nQwHPJHwjwAbBB6X4nJnc+TVL7wDE8YuRVNDVO7fQ6YM0GAIFQiWQySYOgci3Aezl18RE8OUhiV3Oew78WqFgx8UGwQf168gmz1PBQgAjnIbTaIwct8y8nU8uOIXjeApsRyCVSsUaDlz3KwAH+xPLuny0MaJrqXnnq/6Mj1EFXYANgscVnGxOHrWjDi6EyjmOQxFcv1YGz+fNiY7lOIECZQmkc8kBAVrKGlynQfZ7DkR0iRgxs8fsX1enbblNBAXYIHhc9PZs8mOG4PsAxjgLRdfDwHF5c+DHzuZxNAUoUK5AOttytIixptzxtR63sTkw9KtaLC3oXXDPM7Xej+tHW4ANgof1T92aisUfemmuQGY7DkN1ZdNw7Jyb+Y51x3ScQAEHApLJJS0H42s6VAVXDDcZV/bN4tkKNYXm4hsF2CB4eCGkrk6NbHhx3VMAxjoMowggm+8qXO5wHodTgAIOBdLZ5EMiOMjhtOoPV82uH3zl2juuuI9nK1RflytuQYANgoeXRTqXPNXN61wF+MnQqNLkvsvufsnD8Lk1BSIhkMklPw7gXs+SVZQgOq/RGFrElyB5VoVIbswGwaOyp8xUY4O1zs27Cyyofi3fPXCGR6FzWwpESmC6OXnUemvoFY+SflUV1zfFRi7k00oeVSDC27JB8Kj4HbnkFxW43sX2G1Aqvis//97HXczlFApQwKHAKWbziEGr8dcCOdDh1IqHKzBfRsavys/8wQsVL8YFKOBQgA2CQ7BqDc/kkr8A8GEX630n31X4rIt5nEIBCrgQ2HS6Y8vpAuMrLqa7nmJBLigZG27qM9esd70IJ1KgAgE2CBXguZ2aMRPTYckVLm5ORNEY09Rn9tknPvJDAQrUSSCdS7QIZKBO2wEWzlsbH7yB7zipmzg32oIAG4Q6XxYbv67UphtEcZqLre/JdxUmuZjHKRSgQAUCHdnWD1ui3xHgbRUsU87UV1RxxfpY45V38g2J5XhxTA0F2CDUEHdLS2dmJ45CTJYB2Nvh1palevjK7oGfO5zH4RSgQIUCHWbbGC2VvgSR6RUuta3pw7B0XjE+dBV/VqihMpcuW4ANQtlUlQ80zeb4Y1bjDECudrqaQu/EcOl0vj3NqRzHU6A6AplcwgSkdgejqZw7OtbwNZ6tUJ16cZXKBdggVG5Y9grtZssEo2T8DoJdyp70fwPPy88tXAeBupjLKRSgQIUCm99bchWAcRUu9T/TVa3TD4gVl5nmmuFqr831KOBWgA2CWzkX806cnTgqHpMfOZ+qv4oZOHW5OfCQ87mcQQEKVEPgUzMn7jKyIfY9N8eyb31/fQ2KXDE29jrefFyNKnGNagqwQaim5nbWyuSSawG81eGWJQBL812FsxzO43AKUKBKAvaLzRrxwgfVii8F9L3VWVZfA2Thy0bjVbwhsTqiXKW6AmwQquu51dXSucRkgdzhYrtnodqW7x540MVcTqEABSoUSOfaJotYn4DiSADvqnC5/05XtS5cH3v+K3eaD75arTW5DgWqKcAGoZqa21grnUv+VoD3u9jud/mugpt5LrbiFApQ4D8C7dlkxhA5C9B9AexWVRmVU4uxHfP8WaGqqlysygJsEKoMuqXl0p2TjhSN3Q44vzlxwzAm3LagYJ/4yA8FKFBDAdM0jT+M+UNT/IUXPyIi/YCMrMF2w4CeU3zP2KV9J/bZPx/yQwHfCrBBqHFpUremYo1/WJdXxYkutvpjvqvg/TGzLgLnFAoERcB+eVmxNOK9FvAxEbUfYxxTo9jXC2RBg7HhGp7KWCNhLltVATYIVeX838U6zEkfVSv2dQDvdrHVMfmuwg9dzOMUClBgOwLNZnP8raXG6SLGvoDa55vU9C2JCr2kyRhazOaAl2ZQBNgg1LhSmVziTEDsUxsNZ1vJr4pFObZvYf+zzuZxNAUosC2BlNk8utFqOkOBNgCHAhhdczEDJxcxZiXvOai5NDeoogAbhCpivnmpjDlxH7Vi3xPIe5xuI4ZM6zFX9QB8MZJTO46nwNYEMtnkLEDnQKQBQLwuUoqT948dtsI0Tasu+3ETClRJgA1ClSC3tExmTnISDKx2scWfRa1TerpX3+diLqdQgAKbBSabk0eNKg3tFze0XVVmANihjjjrFTB33OO565ae8WCxjvtyKwpURYANQlUYt7xIJpe035p4lMMt7FcpLyk+PObcvj7e5ezQjsMpsFHgFPPY3Ycs6zgV3V8U5wForDPNsCpmv/iicW3/4v7BOu/N7ShQFQE2CFVh/N9FMnNa9oNhPOZi+bUKPaW3a8DNNw8utuMUCoRH4KSZE3cZboidvfl1yHZz3lT/7HQ9eaNTxAAAIABJREFUgPOKxtjlvOeg/vrcsXoCbBCqZ/mGlTK5xGOA7Odi+d+uNQY/vIaHtrig45SoCkz/6iEN65/c5Xsixvss6HjxpDHAvyzVmbFYbGA/HLqW9xxE9WoMT95sEGpQy5PmHb/H8NDwnwB1/KIVBT7b21X4Tg3C4pIUCJVAh9lmv69gT7VKswDJAPDi77MXAawDMCffVVgeKmAmE3kBL/5AhR49k030AjIF4vgvrKfyXYUJoQdighSoQCB1WXLfeCPeL0AKwJQKlqpk6hNQvU8VtzwVH/o+v/GrhJJz/SrABqHKlZlmJt5Tsoy8mxPf+O1BlYvB5UIl0HFJ8546csS5aumHRHC4Bzce2s8cPyTA1wwDjw6+e8xqvi45VJcYk3mTABuEKl8SHdnkJQrMg8B+zrr8j+Kl4rgxb+27oO+18idxJAXCL5DOJg8SweLNR6Xb9/XE6p21AvYNx7PEiP8m3/mDv0H4fpJ614D71V+ADUIVzafOSr61FNcbBPIpx8uqpvPdA7fwxUiO5TghhAL2+QjDaNrTsmC/ptzpo8LVELEfNx5S4N/DUjqsb+7d/6jGolyDAkESYINQxWq155LHGcD3nS6pwNOGYXyqx+x/wOlcjqdAWATsg83if3xpPwzLXhLDVVBX55dUzqF4FILfWoZet9Ic+FnlC3IFCgRTgA1Cleq28TGrtbt+C6rtjpdUXD861njpUvPOVx3P5QQKhECg3UwcLhaOF8hEAB+u9xMJqlARrAHwU5Tw/fz8wi9CwMoUKFCRABuEivj+b7L9StcdraGXXLzf/V8W9JyVXRt/XuCHApES6Mgl2lRlOkQPcvnekIq9FPiZWDIf8eIj++Njf+f7Cyom5QIhEWCDUKVCpjuT/aJodbHcPcWHxyT5WmUXcpwSWIGUOfHdDRpfDcV4YOMNvXX/u0ihq5uMoROf+ffI1/g65MBeSgy8hgJ1/0NZw1w8W3rT613jzzkOQFFS0Wxv18BCx3M5gQIBEpg+/ZCGVyeMf4cF/RAsWQJgXN3DV5QgeBTAHwwDs1aYhT/XPQZuSIEACbBBqEKxMtnEtRA5x8VSQ2rpFL5oxYUcpwRCwDRhPGK1nCCQdwtkGoADPAjcvrfnR1D9g8aaLu8173TezHsQNLekgNcCbBAqrEB61sTdEI/9UCAHullKof8UGGtEi9f2dN/zKz7m6EaRc/wm0HZdW9O456wTBWhTwL7x8C2exCj4lqXW7SjJr1bOH3jCkxi4KQUCKsAGocLCpXOJeaK4BCLOXoz0+n0VCsG/VfWZ4djLR/WZ9z9fYVicTgHPBNrnJD5nGNIJxU4Q7OhBIJaqXheLyQ2NrzY9840r7njZgxi4JQUCL8AGoYISnnbJJ3YcHLlhiapMrWCZN0+1APTAsrqL8Z0e53GxVZTlUjURsO8veGXCW3aDZU1RIAtgbE022vaiGwA8C+Du4stjvth3Dd9I6kENuGXIBNggVFDQ9JzEJ0VkBQQ7VLDMlqeqFgF0ieK3z78ltrr/nP7Bqu/BBSlQgUDq0kljG5vix6ha74RIJ4DRFSznaqqqvgTI/QL8ZG1s8AoemuSKkZMosEUBNgguL4xpFyV2KO0gi6A42+US5U1TvKSCW2Hhtqfig3fzL8Dy2DiqdgJ2YxBvNDogcqSofhIijo81r0J09jcGX1LIwzA2rO411/DGwyqgcgkKvF6ADYLL66HDbLPPoX8YkHr8q8m+S+FpCJ4sSumzfC+8y6JxWkUCpmkaj+n9N6jiSAHeDmBMRQu6max4QVUXWiIDb9nVeGQxv1lzo8g5FChLgA1CWUz/OyidbblAxLjK5fSKpqliTayEzODBY/7F42YrouTk7Qg0m83xtzfGxhYH43PEwgxI/U9SBFAUoGhBL+vtGrBPdeSHAhSogwAbBBfI9klzQ1aTt8cyK4qWYJEB/HD008/9dOnSB+17FvihQFUE7JNJ0SgHlCzr0wKZUZVFnS9i/2zw/6DWimJspzxv2HUOyBkUqESADYILvfZc8lIDWORiai2mbIDgakute1d2rb6X71GoBXF01kxf2DxeRjWeopAjRDQJeHJ/wd8hugKKR0bv8e9bl57B5jc6VyAz9ZMAGwQX1cjkEn8BZB8XU2syZfNJdH9XxT1NscGLl5lrXqzJRlw0tAKpzklvb9DYlQrsIcCHADTWPVmVxxXWFWrpL97VsPrXpgn7kV9+KEABjwTYIDiE78gmL1ERE1Av7tzeXrQWVAc1pnN6zdVXb28w/zsF0vMn7obB2I0CaQPQ5M2hSVhvDePokY2Df9wLzUM8TZHXJQX8IcAGwUEdppuTR60vDfVA8EkH07wa+gtYmD063vizpead9rvo+aEANp6NgJbdUdLdRGLXCXCkRyxrATxasoxFt8zrX82fxjyqArelwDYE2CA4uDw6zMTxaslXAUxwMM3LoUMi+LIKVufNwt1eBsK9vReYMmfSgTHDaFVImwDHAJ48kfAgBL+E4Du8Jr2/JhgBBbYlwAahzOtj45MLpcbZEJlT5hTfDFPg7wL5ZtHYcGWfuWa9bwJjIHURSM+edCRisZMM4H0KHFqXTd+8ieB3sOSaEvQ31iNjHurr6yt5Egc3pQAFyhZgg1Am1RQz8R6jJD8V8eQ982VGuc1hg4D+RjQ+vaf7rt9XY0Gu4W+BaXMSe5cMuQWKfSAYB8DwIOJfGgYyAl23vHPgWQjUgxi4JQUo4EKADUKZaBvPXTDku2UO9/UwVaN5OPbag/w2wddlchxcKpWKYd/1O8fjeLdI6VZA6n/E8qaTSZ9WlYct6AW3dBf+n+NEOIECFPCFABuEMsuQySXtk+LGlznc98MUelPcwHXLzYGHfB8sA9yuQHs2+bEYcJAKTgfwwe1OqP6AQQEeVMFjTcOau3n+wBPV34IrUoAC9RRgg1CGdiabaIdIbxlDgzTE/g34QZQwIz+/8IsgBc5YNwlsOmZ5l6RaMgnAJwDs7YWNCu4QlTtKRvEnt5j3/IlPJHhRBe5JgeoLsEEowzSTS9r/GtqzjKFBHPI4SjiRTUKwSpcxW45Vy1hgALupYjcI6v5nWaHfNAzrK9aQ/q13wT3PBEuQ0VKAAtsTqPtfKtsLyG//PZNrTQJ6hydvlqsnhoWW/eOH3cuX1NQT3cFeCkldcNiIhtFjUgCuhmAXB7OrNdQSYIOKrln/2ivtd1xx38vVWpjrUIAC/hNgg7CNmthf4a7fbddVELWfGQ/7Z51Cz1lvNPXdyRcr+abWqasPG9n0wpgPlUT3EcgVAOp/4yHwCgR/gOL+0U8/dzEPBvPN5cFAKFBTATYI2+DNmMlJsHATgL1qWgWfLC7APxQ6q2iM7ePJed4WZdqXEjuU1mEygMMgcjLgyeO1RYF+Q1Uekphxe4/Z/6S3KtydAhSopwAbhG1op7PJnACmF7/v1vMieNNeT6jKlN7uVfd7GEOkt05nW3IisWMAPdCjbwzsnw6WwMLdI4aafv6NK+7gTwmRviKZfFQF2CBspfLt2bYPGGLdCmDfqF0cqhgcHrduXN8F978Wtdy9yrdtRlvTTuNKFwlwEVR2hHjyGmQ7/e7iTmMWPrvu2eIac82wVx7clwIU8F6ADcKWayBTzWTKsnCL9yXyLIINKMXelZ9/1+OeRRDyjU8xm3cqluJvU40dCwOLPEp3vQJ/VeiyXcfHliw+p3/Qozi4LQUo4DMBNghbKIj9r7lx46wfA/iIz+pVz3DsV+IOGMM4dcWCwlP13Djse6UunTS2oTF2AkSPAmQKgNH1z1mfAeQ2+0TF4svrlvZdw2+L6l8D7kgBfwuwQdhCfdqzkz5gSOzX/i5dXaJ7GYpZxUfG3MjDdSr3Ts1s27UhXpoDMfaG6jEQ7FD5qo5XeArQr5Ysvf/A+BF387FWx36cQIHICLBB2EKpM7mkfVb9WyNzFWw70XWG4vgV3YWf0MOdwEkzJ+4y3BhbAJXjN990GHe3kvtZ9n0lRkw/Kw3y4L+fNp7vX8yfEtxrciYFoiHABuFNdW43W/cyLP1bNMpfXpaqWNUUG/zUMnPNhvJmRH6UpC6dNCYWN8YYcVkChd0YePF5SYEn1NK574offhu/LfCiBNyTAsEVYIPwptplssnVENjvtufnDQJ6Vr5r4EaibFugfXbibUZMmlX1EyJyAoCGupspHoXgd4D05btW9dV9f25IAQqEQoANwuvK2JFt/bCK2n+hviMU1a1yEjHVjy7vHvh5lZcNxXJps/V9sKx2AQ4GpM2LpBT4i31/AUrG/U81bHiAjyl6UQXuSYHwCLBBeF0t053Jy8XChR4+g+7vK0tlIN+9KunvIOsbXbvZMkHUuFEsvFcFbxOg7vcXAPijpXqaofp88X07/bXvxD77pE5+KEABClQkwAZhM9+UOW3vjMV06ca7y/nZmoB9D8KCfFehO8JE0jajrXGXsbpXSay7RGQfjyw2KPCYlvTMlfMHfuZRDNyWAhQIsQAbBLu4Ckl3Jk4SyLIQ17o6qakMwDKmR/EFSh3ZSe9FzDjAsuQcAT5WHdDyV1FgWIDHADxeskoX3jLv7ofLn82RFKAABZwJsEEAYL/Rbshq/BYg9uE4/Gxf4LLRe7zj6qVnLC1uf2iwR6RSqZgc9NIR8RKOUpEpArzHi4wU+AlU71LECiu7+n8Lgf0iK34oQAEK1EyADQKAT88+5h0jYg1/ATx7/33NClyjhZ8whnFo2N+wOMWc9NGYFZunwF4C7A3AqJHnVpdV1duNGL4ukEdWmIU/13t/7kcBCkRXgA0CgHQu8SOBHBXdy8B55qq6pLd74IvOZ/p/RsZsPRaW3qDAWwVo8iZifUCMWGoIo//Fo7e9qQB3pUDUBSLfIEwzE28pWfJM1C8EN/kXLd2nb95A4F8qNf2rhzS89sS4fUuQvWEYSzx6zNU+JOkfAvzq+ReMU/mmQzdXJOdQgALVFIh8g5DOJZYJ5ORqokZlLft38d6uQmC/eTnFbB5R1Iaj1JKPQHA2ILt5UDsLwHcB/X3RkJ4+/ozgQQm4JQUosCWBSDcIHWbbnmpZv+C5C67/cKyzFGeu7C7kXa/g0cSOXMsXVYxjoDjEk28MVF9TkRWA/BBGw+pe887nPKLgthSgAAW2KBDpBiGTS9pfJ0/nzYmu/3QoIPn9jVUnmSbsfwn7+jN9+iENr0zY5XS15FwAewCenKYIS2RpTKR7CK+92GeuWe9rNAZHAQpEViCyDULmsuPGSePwcgWOi2z1q5G44hUAZ+W7C9+qxnLVXiN1/mEjR47aZedibGgSFDeLiBfXvH1/wbMAbi7uNGZh3wV9r1U7T65HAQpQoNoCXvxlWe0cXK3Xnk2cZojcAGCEqwU46XUC+vVGY+iiZeaaF/3CMtmcPGoHa+jjMejRCjkdwE71j01fBGS1BTwSM4wre8z+dfWPgTtSgAIUcCcQyQYhZSZ3brDwZQDT3LFx1usFVDGoMevIlebqX3ktk1o0aWzDK8YMGPJOWDgBgnEexGTfT9AD1Qf2jw192zTXDHsQA7ekAAUoUJFAJBuEjuyx71UpPQBgVEV6nPx6gfvzXYXDvSJJXTppbGNT7GIAJyiwr0ffDJUAOUMMuX8Ir/2D9xd4dTVwXwpQoBoCkWwQMp2JbqjMqQYg13idwNArO+cX/fSFepnYNx0+NWFCw446eCNUTqrXvm/49mTT+QjPAzKr+J4dl/EkRS+qwD0pQIFaCESuQbB/m97RGrJvrOOn6gLy1/zcVfvW+pyAkxZM3GV4Q8OHVPWzIpjq0bcFT0LkMbWs7/R2D9hPw/BDAQpQIFQCkWsQMtnkfAhmhaqK/klmyIK0r+xa9d1ahJSZ07KfGMYnLNGDRSXjxdkIEDwJyMr/3969x1VVJXoA/619OIAMiPgiBcn3M9PMHjZexUeA1Zg1MSHU7fHpYzPTTJ/uzDT3zk1wX8uxmabPlDdnBqM0TUDPtTQzhECw7KGpWaYSiSI+EEWURwjnsPe6n70rR00mnuecfc5v/1ftvR7ftfucH2uvvbbQ9K3OgPA8boPcFSPNMilAAW8Q8KuAoKpQSvR4Ywq8uzfg+2QbBN7OVHNnd+Yswlw1trfQA58FxAQAo+GZ7yMc1nX9CSVAOelC9z0MBj5597JTFKDARQJ+FRBSFiQsllIaC9lsvAu6TKBWAL9bvTD35Y7WkKjGXmXXA9/+JhQoQYB0+9cUAZQJyF/aFWfhCrWosaN94vUUoAAFrCLgNwEhUY0NtetBmwBY9tsBVrmpACy1Ncj/XPWXvDav9Uh6Km6AUORgAfE7CHGHB/ps7Ah5XAJVQsPPMxflGltx86AABSjgdwJ+ExCS0+JSAOUFQPb2u1F2f4drFYk7Xn869/3WVG08+inWZo4TIuBGIfX7IcSPW3Nd558j9kLIdxUd64faJn2gqqrXbx/d+QYskQIUoMA3An4REIzZgwAZ+CchxS858G4SEMgM7V/14LJHd7n+VY2JC2eOtbts/wWBUQDGAghwUwv/WY1EIWxipe7Svshe5PnNntzef1ZIAQpQ4AoCfhEQktW4KdCxCRChvAvcJuCqUwJ7bFQ3NlypxiR1ZqyiK88BIgZAH0+EVQF8pmn6I5pdOeRYkHu2MxdWuk2ZFVGAAhToIgGfDwjmmwvNCQ9BkRldZMhiWxCQEp9mPZ1rvHmAxMREW9Cw2r7NgXqUoimvQ2CEB+CMLY+rBbDXqTTN4U6HHhgBVkkBClhGwOcDQuJ/JHazh9WcAIQHPtZjmfugyxoqhfZvUldcgLhOEXgKQHSXVfavCy6EEHs1ob+8Rs37wkNtYLUUoAAFLCPg8wEhOTVuHoRIt8yI+F5DSwXglDDXGLj7cALYoEu5DTrezF6Ud9TdDWB9FKAABawq4PsBIS2+GvDIF/2sek/4SrvXKRJPNzUrJxyLc4yvK0pf6Rj7QQEKUMAdAj4dEJLmx92jKMLhDkjW4XEBXUrZJKCsctkaf8v1BR4fDzaAAhSwuIDPBoRENTEwQK/dIYBxFh8jNv9fCxhvSWwXQh7QhXNBllpkzBbwoAAFKECBDgr4bEBISku4S4H8B4C+HTTi5d4pcA7ARijYEYimDG6D7J2DxFZRgALWFfDNgCAhUhYkvCghf+WJ9+utezt4f8ullFJAzJeKeM/udB1YubjgjPe3mi2kAAUoYD0BnwwIyWnx0wC8BmCA9YaELW5BoBFSpgqbbZlzX+jXDodDoxQFKEABCnSdgM8FBGNDHvuomnmA+FvXsbFkNwkYb6AckxLrsp7OXeimOlkNBShAAQr44vT7Q3+c1aexUX+XixMtfX9XSchNQootgbamtVxfYOmxZOMpQAGLCvjcDMLctLhbBUSeRcfDr5stgZNQ9FQ0K8fqAwLfa+k7Dn6NxM5TgAIUcJOADwaE+NMC4Ced3XQDdUY1EvK4gPiDrugFI/HuSVUFP7PcGbAsgwIUoEAHBHwqICTPv3UYFKWkAx681D0Cxq6G5wBZJ6A8vHrh5gL3VMtaKEABClCgtQK+FRDS4j4FxPjWdp7neUTgMATeF1JmOw+E5/FtBI+MASulAAUo8IMCPhMQ5qbeOlUIZR2AXj/Ya57gdgEJuVOByNYg9mRzxsDt/qyQAhSgQFsFfCYgJC+IfxkSDwNQ2orA87tQQMqvYFOe0IH92r6wo5wx6EJrFk0BClCgEwV8IiCkpN42Vgr9VUBO7EQbFtUeAQkpAacQKD3vap7yJnc6bI8ir6EABSjgcQHLBwRVVZUvtY+fEEI+73FNP2+ABD4TEvug48XMRbk7/JyD3acABShgaQHLB4TEp6ZH2ZWAlRBiuqVHwrqNb4YUWyDkdqnIzCw1r9i6XWHLKUABClDgOwHLB4T71PgJuo5PuPbAAze1QL6Q4lmpKQdXP/NOuRAwXl/kQQEKUIACPiBg+YCQvCB+OyRu9IGxsFIXHDKo+dfNrp5nHarDaaWGs60UoAAFKNA6AUsHhAfV265y6lpF67rKszog4ATEl1Liy+Yg5xOO+VuOd6AsXkoBClCAAhYQsHRASEmN3yAFZlvA2apNrJfAVgHsrm8Meu6tP79VZ9WOsN0UoAAFKNA2AcsGhMT5cYPsitgPILhtXebZPyQgpZRQxItCosiluXY6FnHG4IfM+N8pQAEK+JqAZQNCclr8WgD3+OInqz14kzkl5PO6bnulISCggl9T9OBIsGoKUIACHhawZEBI/MOsPna7vgHAJA/7+UL1DQCqJcSbWQs3P+4LHWIfKEABClCg4wKWDAhz0xKeFFJfBCHsHSfw2xJqIPE+BPJdPbovc/zGcd5vJdhxClCAAhT4noDlAkKSemt/RVf+BuBOjme7BM5KXTynCHnE6dQ2Of6UX9OuUngRBShAAQr4tIDlAsJ9akKsrsscLk5s230pgdMScrGQIq/C1vRlkVrU3LYSeDYFKEABCviTgKUCQqwaG9BfD3oBwGP+NEjt7quEC4ATQn8oc+G7jnaXwwspQAEKUMDvBCwVEL5dnHjK70aprR2WshJC7IYUK0MrT69btmyXERR4UIACFKAABVotYKmAMDctbomA+HWre+d/J+4XQrwFoe9areatA/htBP+7BdhjClCAAp0jYJmAkJiYaLOPrG2CgK1zuu47pUjgmJAiVdqwuwKN+7m+wHfGlj2hAAUo4CkBywSE5NSEdAg5z1NQXlpvBZzNkwODtRPLFxQ18WuKXjpKbBYFKEABCwpYIiAk/ufM8IAg2zYBXGNB485u8hEAJVKRz2apeVs6u3CWRwEKUIACFDAELBEQUtLiH5MSiyEQ5qfDpgNyByA+hYIVmWruDj91YLcpQAEKUMBNAl4fEB5UY3s4tcC/Q4gkN5l4VTUS2CEU8Vepyb3Nxd2LHQ6H5lUNZGMoQAEKUMAnBbw+IKSkJdwlpb4aQnTzyRFouVO5UuK3sAVWZqkbq/ys7+wuBShAAQp4WMCrA8K8edfb667q9YSA+LOHndxRvSYhTgropZpue3jNMzml7qiUdVCAAhSgAAWuJODVASFFnRUtdf0AgFAfHr5GCOwE8IWrFk85/ppb7cN9ZdcoQAEKUMAiAl4dEOamxT3p27MHYrUu9S0y0LZ1TSpnDCzy/wybSQEKUMAvBLw6ICSnxRtfGuzuYyPRDIEMXZcrApu1gysXF5zxsf6xOxSgAAUo4AMCXhsQklLjHlaEeMUHjI0NjzVAOgXExuO2phTudOgTo8pOUIACFPBpAa8MCA+qscFOPagEwACL6zcIYI8ukd9sa3rOoRbVW7w/bD4FKEABCviJgFcGhOS0+PshsdTCGyM1ADJdlyjTmm1ZjsU5p/3kfmI3KUABClDARwS8LiCoKpQSGb8KEsnWM5bnhFBe0nWRH2Q7v32FWtRovT6wxRSgAAUoQAEv3Go5Ke3WuxQo/wDQ1yoDJCWkgHzCVR/+MibB6fgZdzu0ytixnRSgAAUocGUBr5pB+HZjpN8LiGcsMGDGGxYHhYKM6p7K8pzHc5os0GY2kQIUoAAFKNAqAa8KCIlq/FC7jo0ARraq9Z45qUwC70qJ3Vpx95f5bQTPDAJrpQAFKECBrhXwqoCQlBZ3rwKR3bVdbmfpUlZKoTwvFH27C+EfO1SHs50l8TIKUIACFKCA1wt4VUBITo2vhkCEd6nJc0KxzdLQXN69X/XpZY/ucnlX+9gaClCAAhSgQOcLeE1AmJs6bYwQgV90fhfbUaLEWQiUSSgLshbmGI88eFCAAhSgAAX8SsCLAkLcMSFElMf0JSQE9kuJfbrUX1nzzLt5HmsLK6YABShAAQp4WMArAsLc+fEJQsEGAIEe8tgPKdM13baj0n5+J7dC9tAosFoKUIACFPAaAa8ICClpCW9IyDlw+74MYhsU/Smt2XZ8zTM5h2B8NYEHBShAAQpQgALweEBIUWfeLHXbawCGu2E8JCAapdQPBdiQtErN8441D27oOKugAAUoQAEKtEXAowEhcW2izb6vdiEk/rstjW7HuU5AfCmhH0SQ9ouspwoq21EGL6EABShAAQr4jYBHA8J98xNG6Iq+AhA3d5W4kNisC7FFkc2bVz+dv7er6mG5FKAABShAAV8S8GhASE6bGQ8EvANIpZNRdQixVmj6asWmf77qf/LLO7l8FkcBClCAAhTwaQGPBYQH1djgJhm0XUhc25nCAiiQzoDE0EEn67mpUWfKsiwKUIACFPAnAY8FhHvnzxpiU/SDnYBtbHl8SEqxRbGJP6xWc2o7oUwWQQEKUIACFPBrAY8FhOTUhAIIOb29+hJoEsBaQB4Sii1jtZpzrL1l8ToKUIACFKAABS4V8EhASJyfMMKuyOJ2DkYdgJUSKGxWmnIdalF9O8vhZRSgAAUoQAEKtCDgkYDQntkDKSGFIhcJYUtX6rWzq/6S9zVHlQIUoAAFKECBrhFwe0BIUm/tr+hKAYCRrehSI4BKAZleqwS9uFHd2NCKa3gKBShAAQpQgAIdFHB7QEhJi/uzlOI3ELC12HYpKyHENgn5abNy7DmHut9YiMiDAhSgAAUoQAE3Cbg1IHz75sLLAKZdsX9SnoEQGQA+ClSacleoRcYMAg8KUIACFKAABdws4NaAMDct/qcCWA0g6NJ+ynqp434lwFZSi4AyPkpw813A6ihAAQpQgAKXCbgtIDz8p9lh5xsa/yakuM9sg5QuCFEpIX6ftXBzFkeGAhSgAAUoQAHvEXBbQLh3/sxRNsW2H8ARCFEqhUzPUnPXeg8FW0IBClCAAhSgwHcCbgsIc1Pj04Qi7ALa+07Ro8ihOrjwkPchBShAAQpQwEsF3BYQklJnXacVh37ucDg0L7VgsyhAAQpQgAIU+FbAbQGB4hSgAAUoQAEKWEeAAcE6Y8WWUoACFKBAKwSklOm6rqOm7ms0NjUBshUXCSA0JARhoSGtONk/TmFA8I9xZi8pQAEK+I2Apmnp5ScqkffeR6isqm4sJqBzAAAI2ElEQVRVvxVFQUz/SMRPuQV9e0e06hpfP4kBwddHmP2jAAUo4GcC1bV16es25aPiVFWbez525DDMmnYLguz2Nl/raxcwIPjaiLI/FKAABfxc4GTlmfRl2W+0SyE0JBiPJN3NRw0AGBDadQvxIgpQgAIU8FaBk5Wn05dlr7/QvPCwUISF/ggBNgVnztWhrr6+xaYHB9nx85TEKwaE+oYGSB0I6RYEm+37nxMq/GgnIsK749qRQ2E8srj8cLlcKNy+G8NiojEoJqrVfDoAZ2MTmlwu85qgQDuCgy7bkLjVpX1z4uatH6FvzwhMGNvydxMZENqIytMpQAEKUMC7BS4OCOGhoZiXfBfO1NSg4bwTLlcz1uXkmx2w2YwfcQFN++fb9y0FBJemYelra6A160i8fQZiovp9D+H5Za9j4IB+mBM37duyLz3FCBgvLV+DKTdNwC0Tx7UasaKyCgUffIIjJypgLL4cP2Y4fjJjSquvv9KJTy/JwLCB0UiandBiOQwIHSLmxRSgAAUo4G0CFweECWNGYsbkG7AhbyvKKyrRKzwcJ09XYcbkm2C326BAwXlXE7Zs+8T88W0pIFTX1GG5YwNCgrph4rWjcP3Y0TAmCYy/7isqT6H8eCW2GrMDA6PNgCAEsK+4FA1Op7n4sV/f3jACwpJXszE4pr85gzB80EBEhIeZfPUNjSg5XAaXS8OY4YPMNyq+OzLXb4ZLc2H00MFmoAm0B+CakUNRVX0O5ccr0KzpGBwThcjePaHrQOmRcpw+cxY9I8LNeoz1FPtKDiM8LARNrmb0jgjHkuXZFwJC2bEKfN3QaNZ78cGA4G13NttDAQpQgAIdErhkBiEsFL964Gc4V1OHvSWl2L5nrxkEnnz0AewtPmjOKBjT7Lv3HjCn3VsKCI5N+WhobEJUZG8Ul5bhF/fdAyEEPi8+iPe270ZD43nzx330sEG4Y+YUvJ3/Hg4dPQFN0xEaHIw5CbHoER6Gv2ZkwqYoUGw28zHGnTOnICQ4GIUf77xw/pCYKCRMveXCY46lqxyQuo47ZkzGwOgos/2l5SeQu/UDNDQ0QoeOsNBQTL5hPEYMjMGyrDfN9tjtdky54TpMuGYUXnglE3Z7AHSp486ZU/H6+hwzIFw7aoRZ94xbbsDIIQMZEDp05/FiClCAAhTwaoHL1yD0DA9D8pzbEB72I1ScrsKqNzbhyXn/joIPdpqB4fePPoDqmhpkZK+/YkAwfpAXvfQqxo8ehl49wlH08W48/kgyvq5vMK+56doxmDppIpYszzIfMfSP7Iv3t+82g4Ixc/B2wTY0ay7cnTAdS1c6MPnG6zBu+BC86tgIu82GqZMmYFPBNtx3z+0w1kv87/I1mPHjibhp/FjT2fgLP3PDZvNRiBEqfp7yU5QeOYY3NhfikaQ5iIgIxwsZr2PMsCGYdstEBCjG+giJ7Z9+gY/27MNj9/8US1asRc8e4ZgVezMG9LsKf1y63KwrpFswBvaPxPTJN31v3QRnELz6NmfjKEABClCgrQKXzyAYswTGAr+E2EkwHjk8+/flZkAwFhV+UVKKx+5PxPHKb4LDlWYQSsuOIfOtzYjs2xMBQsGpqrMYP3Ykxo0Yhow163F3wjSMGT4E361BCAnuhp179yP18UfMv/YLP96FD3d+hl89dC/+vvL/zIAw5YbxWLJ8DXQpEXvzBLyzZRvCw8PM8qEI3DB29CULCI1XNj/Zsw/7S8tgvGkx9aaJWJ9XiHlJc9Cnd0/kbv0Qp6prMG7kEDP4GAspm1yauSDz8YeS8NJrazFq6CCzrcZhrEEwDiNwzImfhoFXWFPBgNDWO4/nU4ACFKCAVwtcHBAmTRhr/hV/trYOQ2KiYbxJYPzYG7MGh49VQNNciOkfhQ35W1FSWnbFgGBMx5cfP4lJ111j9nvfV4dQW9+AB+6+Ha863jKn9idPvO7CDEKfnhFmIJgdF4sB/frgncIPUVNTh3vvjMPSbwPCkJj+yN6QZ771cP24Ucgp2IZpk280f6iNNQXGX/dGEDCOPftLcHVUP3QLDjRnLHRdYtqk67E+b6sZEIxHCWs25SP6qj44feYcjleewsP3zsbBsmPm44+WAoJRR3C3QIT/qDvuvm2aOZtx8cGA4NW3ORtHAQpQgAJtFbh0BiEMwwYPQI+wMFSfrUHZiQrzr2ojIBi7LR74qtT8y9tY7Gccl88g1Nc3YNWbm9Avsjdmz5xqnvPhrs/NBYl3TJ9shozSsqPo2ysCRysqMWxQjPk8/7s1C8aP8JlzNUiYerO5YPDFjExzpsBYh9DY5ELS7DizzI3570HTpfkXvbGQ0ggAwcHfvMr40mtrzNcajUWVx09WYeyIwRgcE20+YoiK7GuuKzBmSH4yfQpKjxzFh7s/x9XR/VBXV4+qszUtBgSjPcaaCeMNiQH9IvGz22de8piBAaGtdx7PpwAFKEABrxa4fA2CuSOB+cqBsZwP5g/tk/MeQNFHu/Dx7s/Mf/fdcXlAMH5kT505h5ioSPMvdeMwXnksKz+OkJBgXNW7F8orTqL8aAV694rAkKujzR9zY72A8TigrrYewwfHmM//jb0R9n91GFXVZ80f9uioyAs7NhrfjCg+eAQ1tbUYMnAAovtFXmhTXX0DvjxchsZGJ0YOvRoR4eEoPnjYDAjjRw/HiEEx5jXG3gzGIw1je2njjYgeYeHm2w1G6DD+OSwk1Aw6xmHMloSEdEP/yD44UXHaXNTYv1/fS96eYEDw6tucjaMABShAgbYKGDspZmS/cckP/8VlGD+kD9xzOz757AD2Fn91SfHG64XGwj9v/2jTvpJSMyAYjxgi+37zo9/ZBwNCZ4uyPApQgAIU8KjAudq69PWbC819D9p6GJsQxU2Z5PXfYjAWLX52oAQ/vv5a8xXHrjgYELpClWVSgAIUoIDHBIyvOZ6oPI13Cj9o9dccjcYOionGbVMnmRsM8eC3GHgPUIACFKCAjwlIKdONZ/HGM3tj8Z6xydAPHbYABUH2wAsLA3/ofH/47/8P1BQokAuxLXYAAAAASUVORK5CYII=;" parent="M6P-3ecTp5NmkTmpraIK-1" vertex="1">
          <mxGeometry width="520" height="520" as="geometry" />
        </mxCell>
      </root>
    </mxGraphModel>
  </diagram>
  <diagram name="Technical Constraint" id="el6FIhI1JKsPcuLNQfni">
    <mxGraphModel dx="2056" dy="1192" grid="1" gridSize="10" guides="0" tooltips="1" connect="0" arrows="0" fold="1" page="1" pageScale="1" pageWidth="10" pageHeight="10" math="0" shadow="0">
      <root>
        <mxCell id="yu2GrcATduYB74EvzEsh-0" />
        <mxCell id="yu2GrcATduYB74EvzEsh-1" parent="yu2GrcATduYB74EvzEsh-0" />
        <mxCell id="yu2GrcATduYB74EvzEsh-3" value="&lt;h1 style=&quot;font-size: 14px;&quot;&gt;C&lt;/h1&gt;" style="text;html=1;align=center;verticalAlign=middle;whiteSpace=wrap;rounded=0;fontSize=14;fontColor=#43750F;fontStyle=1;shadow=0;sketch=0;glass=0;" parent="yu2GrcATduYB74EvzEsh-1" vertex="1">
          <mxGeometry x="10" y="30" width="14" height="14" as="geometry" />
        </mxCell>
      </root>
    </mxGraphModel>
  </diagram>
  <diagram name="Constraint" id="b-dyyc8ITbjQOFq43Skc">
    <mxGraphModel dx="2056" dy="1182" grid="1" gridSize="10" guides="0" tooltips="1" connect="0" arrows="0" fold="1" page="1" pageScale="1" pageWidth="10" pageHeight="10" math="0" shadow="0">
      <root>
        <mxCell id="hG4zMQa0Ufwy9uzsW4tq-0" />
        <mxCell id="hG4zMQa0Ufwy9uzsW4tq-1" parent="hG4zMQa0Ufwy9uzsW4tq-0" />
        <mxCell id="hG4zMQa0Ufwy9uzsW4tq-2" value="C" style="text;align=center;verticalAlign=middle;rounded=0;fontSize=14;fontStyle=1;shadow=0;sketch=0;glass=0;fontColor=#153066;" parent="hG4zMQa0Ufwy9uzsW4tq-1" vertex="1">
          <mxGeometry x="10" y="30" width="14" height="14" as="geometry" />
        </mxCell>
      </root>
    </mxGraphModel>
  </diagram>
  <diagram name="Question" id="16ZqsqCcyMci4YbXxqVC">
    <mxGraphModel dx="2056" dy="1182" grid="1" gridSize="10" guides="0" tooltips="1" connect="0" arrows="0" fold="1" page="1" pageScale="1" pageWidth="10" pageHeight="10" math="0" shadow="0">
      <root>
        <mxCell id="o1Uzi90L96lBP09Uvx-G-0" />
        <mxCell id="o1Uzi90L96lBP09Uvx-G-1" parent="o1Uzi90L96lBP09Uvx-G-0" />
        <mxCell id="o1Uzi90L96lBP09Uvx-G-2" value="?" style="text;align=center;verticalAlign=middle;rounded=0;fontSize=14;fontStyle=1;shadow=0;sketch=0;glass=0;fontColor=#FF66B3;" parent="o1Uzi90L96lBP09Uvx-G-1" vertex="1">
          <mxGeometry x="10" y="30" width="14" height="14" as="geometry" />
        </mxCell>
      </root>
    </mxGraphModel>
  </diagram>
  <diagram name="Action Item" id="fcA-5u4rX1HMR2tSRa-l">
    <mxGraphModel dx="2056" dy="1182" grid="1" gridSize="10" guides="0" tooltips="1" connect="0" arrows="0" fold="1" page="1" pageScale="1" pageWidth="10" pageHeight="10" math="0" shadow="0">
      <root>
        <mxCell id="FgChqKItVFPBDQVLc_6a-0" />
        <mxCell id="FgChqKItVFPBDQVLc_6a-1" parent="FgChqKItVFPBDQVLc_6a-0" />
        <mxCell id="FgChqKItVFPBDQVLc_6a-2" value="A" style="text;align=center;verticalAlign=middle;rounded=0;fontSize=14;fontStyle=1;shadow=0;sketch=0;glass=0;fontColor=#006633;" parent="FgChqKItVFPBDQVLc_6a-1" vertex="1">
          <mxGeometry x="10" y="30" width="14" height="14" as="geometry" />
        </mxCell>
      </root>
    </mxGraphModel>
  </diagram>
  <diagram id="V6m7q-mZtPf5wn_RKFwl" name="Process">
    <mxGraphModel dx="2066" dy="1212" grid="1" gridSize="10" guides="1" tooltips="1" connect="1" arrows="1" fold="1" page="1" pageScale="1" pageWidth="850" pageHeight="1100" math="0" shadow="0">
      <root>
        <mxCell id="ES-bQR9vDZr3H8V83QJG-0" />
        <mxCell id="ES-bQR9vDZr3H8V83QJG-1" parent="ES-bQR9vDZr3H8V83QJG-0" />
        <mxCell id="Lx2hgvjXPFJM3BrzF2nN-8" value="" style="shape=image;verticalLabelPosition=bottom;labelBackgroundColor=#ffffff;verticalAlign=top;aspect=fixed;imageAspect=0;image=https://www.pngkit.com/png/detail/335-3350384_our-process-extract-transform-load-icon.png;" parent="ES-bQR9vDZr3H8V83QJG-1" vertex="1">
          <mxGeometry width="520" height="350" as="geometry" />
        </mxCell>
      </root>
    </mxGraphModel>
  </diagram>
  <diagram id="q9byY2brTSSktqtM3SZn" name="Page-8">
    <mxGraphModel dx="2350" dy="1210" grid="1" gridSize="10" guides="1" tooltips="1" connect="1" arrows="1" fold="1" page="1" pageScale="1" pageWidth="850" pageHeight="1100" math="0" shadow="0">
      <root>
        <mxCell id="lkSrRiJItYOf4TimFyNU-0" />
        <mxCell id="lkSrRiJItYOf4TimFyNU-1" parent="lkSrRiJItYOf4TimFyNU-0" />
        <mxCell id="Tp1wTwMCUdGx4lgW3dvr-12" value="" style="ellipse;shape=doubleEllipse;whiteSpace=wrap;html=1;aspect=fixed;fillColor=#000000;" vertex="1" parent="lkSrRiJItYOf4TimFyNU-1">
          <mxGeometry y="0.26" width="299.74" height="299.74" as="geometry" />
        </mxCell>
        <mxCell id="Tp1wTwMCUdGx4lgW3dvr-13" value="" style="shape=image;verticalLabelPosition=bottom;labelBackgroundColor=#ffffff;verticalAlign=top;aspect=fixed;imageAspect=0;image=data:image/png,iVBORw0KGgoAAAANSUhEUgAAADAAAAAwCAYAAABXAvmHAAAAHXRFWHRqaXJhLXN5c3RlbS1pbWFnZS10eXBlAGF2YXRhcuQCGmEAAAQzSURBVHjazVoHU1QxEH5/WlCxj8IoKqjoSJPeu8CAdBAQaSIICCpNhjJI75ey7uY4uINreS/Ay0xmbt6lfF92ky2JBU6LkADr2yCHpkFUdwNPrQX+tAjY3Q/AYlO9FX/TN/qP2lBb6qP6OiyW7Z47+yA6RoC/qQR2Kx3Yjfd6FftQX9E5osa6OgIbO2oV2b0sfdChKo4lanpw7N1LJOBhIFqGzAIPRqRtWM1llIBcWgeeUnV5wM9V/rYa5MqGGQJybOZyVz1UvZ8NcmLOAQEpQfT8AHYz7erB+2102TeBWGwQEL3XDN5XEYPsn9QjIMfn3AHeXxJTC9ERkKsbSv9cA95XH+aAXNuKQIBx4O9q3Afedzql1wFwEZqA6PzuWvC+KnrHQxDY3gf2INv1BNijXIC9g4sERMNX94P3SQE9gkAC+0dqk9ge9E4m8NcVwNPqgCeVA7udcbENfqP/VBtsS31s74Un+QBHnjMCAo2FXWtJHinsHSrD5zOAsLXnlWhcpqqisV99C2iDaiDav9k+8eTw9AkBHIz8dO1VSCgEubwe3g2ZXQY5txLZz8KxtOfPajwhsHugL05UBzm/CqaKnF8JrnYRpA8HR2DJyXn9TVTeCaYLjamtRn+WwBLNg3odY1IjqoUtKaC6aS9k1yhYPL9Z2y8h0Rkv+4faoSlJzdIOVOIyTo8wo+XwGPdBuqZrUY8EnhXpEYhNDepUOVah1U2lnloEXlUggYQCfd3rHjO/idGeaB+liSUkgWJ9Q4LnNllvYwUNIUPrqk0AsVs8udyeOS9oAfBw5+BxDJ7XZA9DMqlQRr19n6SwVcUQtgvFHziG7fkRuyUqu5wFGUWt9iThYaqvI6+08jMSoODdaaRE6nQuUgpbsC31MRHcWHJhVfv4CkqiuC06EgQe2zqOC8gjQOwWHHuAP84zE7OSJMLtCdJ5Ayuv5kLMcMxO4gETK+K/J4KRIPAOdT5AfUrazwIayrkYzR6cJ2EYPItBT3T6r19IyXGCpLLLIWEavDr/y0/322lQLwd+ms/joL6b0vmAOGBwKkhahc7ll2Wuz0iQpvjfHwQktkivWGyaewlQovfXYpjUIqXU0bq5Nh9U3X2W2QiZncbAQuV23KY66PsTtujS6ygmVxFAV1uu70R/PyDq+1yUC80BubimccFBeSInaUaTahOfHxZ8UAKittcd4FOqADYj3xsHHqO/F+3duhu+TiIVJidT75p1YwdYfMH1AUf3WN0PaybNvAS29kAnNuaJxWoyE3EEGU5KLtPFolZQ5CNA+Rj+vDS6FXpR6r3iQT+cXppQQCE+9mL/Er1bTXrogW6LqPvi3aTS/qsVi1LkomlABcgqRxSXcTZJQqH6LpoGvaINFazgysl/2yBHZ9TtiSjtAJ7V4H16k14HPPeTSgPSOwg5PqvUFYQwkpH5D/qyEv/firF2AAAAAElFTkSuQmCC;" vertex="1" parent="lkSrRiJItYOf4TimFyNU-1">
          <mxGeometry x="92.37" y="88.005" width="114.75" height="114.75" as="geometry" />
        </mxCell>
        <mxCell id="Tp1wTwMCUdGx4lgW3dvr-0" value="" style="verticalLabelPosition=bottom;verticalAlign=top;html=1;shadow=0;dashed=0;strokeWidth=1;shape=mxgraph.android.phone2;strokeColor=#c0c0c0;" vertex="1" parent="lkSrRiJItYOf4TimFyNU-1">
          <mxGeometry x="90.77" y="30.379999999999995" width="117.95000000000002" height="230" as="geometry" />
        </mxCell>
        <mxCell id="Tp1wTwMCUdGx4lgW3dvr-15" value="" style="shape=image;verticalLabelPosition=bottom;labelBackgroundColor=#ffffff;verticalAlign=top;aspect=fixed;imageAspect=0;image=data:image/jpeg,/9j/4AAQSkZJRgABAQIAdgB2AAD/2wBDAAYEBQYFBAYGBQYHBwYIChAKCgkJChQODwwQFxQYGBcUFhYaHSUfGhsjHBYWICwgIyYnKSopGR8tMC0oMCUoKSj/2wBDAQcHBwoIChMKChMoGhYaKCgoKCgoKCgoKCgoKCgoKCgoKCgoKCgoKCgoKCgoKCgoKCgoKCgoKCgoKCgoKCgoKCj/wAARCAUUBRQDASIAAhEBAxEB/8QAHAABAAEFAQEAAAAAAAAAAAAAAAgBBAUGBwMC/8QAVBABAAIAAwMECwsJBgUEAgMBAAECAwQFBhEhBzFBcRITIjZRVWF0sbLRFRdScoGRkpShwdIUFiMyMzdCk7MINFRiguEkNUOiwkRTc/BjoyXi8UX/xAAbAQEAAQUBAAAAAAAAAAAAAAAABQIDBAYHAf/EAEERAQABAgEGCQsCBwEBAQADAAABAgMEBQYRITFxEhQyM0FRkaGxExYiNFJTYXKBwdFi4SNCY5Ki4vAV8UMlgrL/2gAMAwEAAhEDEQA/AJM91p9+m2VtPXNJ9i/rMWrE1mJieMTBaItWYtETE8JiVh3Wn36bZW09c0n2AyApWYtWJrMTE8YmFQAAAAAAAAAAAAAAAAAAAAAAAAAAAAAAAAAAAAAAAAAAAAAAAAAAAAAAAAAAAAAAAAAAAAAAAAAAAAAAAAAAAAAAAAAAAAAAAAAAAAAAAAAAAAAAAAAAAAAAAAAAAAAAAAAAAAAAAAAAAAAAAAAAAAAAAAAAAAFLTFazNpiIjjMyWmK1mbTERHGZlYd1qF+muVrPVN59gKWzWaxrTbKYUThc0TbpGQrEVrEViIiOERACqloi1Zi0RMTwmJVAY/utPv02ytp65pPsX9Zi1YmsxMTxiYLRFqzFoiYnhMSsO60+/TbK2nrmk+wGQFKzFqxNZiYnjEwqAAAAAAAAAAAAAAAAAAAAAAAAAAAAAAAAAAAAAAAAAAAAAAAAAAAAAAAAAAAAAAAAAAAAAAAAAAAAAAAAAAAAAAAAAAAAAAAAAAAAAAAAAAAAAAAAAAAAAAAAAAAAAAAAAAAAAAAAAAAAAAAAAAAAAAAAApaYrWZtMREcZmS0xWszaYiI4zMrDutQv01ytZ6pvPsA7rUL9NcrWeqbz7F/WIrWIrEREcIiCsRWsRWIiI4REKgAAAAKWiLVmLRExPCYlUBj+60+/TbK2nrmk+xf1mLViazExPGJgtEWrMWiJieExKw7rT79NsraeuaT7AZAUrMWrE1mJieMTCoAAAAAAAAAAAAAAAAAAAAAAAAAAAAAAAAAAAAAAAAAAAAAAAAAAAAAAAAAAAAAAAAAAAAAAAAAAAAAAAAAAAAAAAAAAAAAAAAAAAAAAAAAAAAAAAAAAAAAAAAAAAAAAAAAAAAAAAAAAAAAAAAAAAAClpitZm0xERxmZLTFazNpiIjjMysO61C/TXK1nqm8+wDutQv01ytZ6pvPsX9YitYisRERwiIKxFaxFYiIjhEQqAAAAAAAAApaItWYtETE8JiVQGP7rT79NsraeuaT7F/WYtWJrMTE8YmC0RasxaImJ4TErDutPv02ytp65pPsBkBSsxasTWYmJ4xMKgAAAAAAAAAAAAAAAAAAAAAAAAAAAAAAAAAAAAAAAAAAAAAAAAAAAAAAAAAAAAAAAAAAAAAAAAAAAAAAAAAAAAAAAAAAAAAAAAAAAAAAAAAAAAAAAAAAAAAAAAAAAAAAAAAAAAAAAAAAAAAAAAKWmK1mbTERHGZktMVrM2mIiOMzKw7rUL9NcrWeqbz7AO61C/TXK1nqm8+xf1iK1iKxERHCIgrEVrEViIiOERCoAAAAAAAAAAAACloi1Zi0RMTwmJVAY/utPv02ytp65pPsX9Zi1YmsxMTxiYLRFqzFoiYnhMSsO60+/TbK2nrmk+wGQFKzFqxNZiYnjEwqAAAAAAAAAAAAAAAAAAAAAAAAAAAAAAAAAAAAAAAAAAAAAAAAAAAAAAAAAAAAAAAAAAAAAAAAAAAAAAAAAAAAAAAAAAAAAAAAAAAAAAAAAAAAAAAAAAAAAAAAAAAAAAAAAAAAAAAAAAAAApaYrWZtMREcZmS0xWszaYiI4zMrDutQv01ytZ6pvPsA7rUL9NcrWeqbz7F/WIrWIrEREcIiCsRWsRWIiI4REKgAAAAAAAAAAAAAAAAKWiLVmLRExPCYlUBj+60+/TbK2nrmk+xf1mLViazExPGJgtEWrMWiJieExKw7rT79NsraeuaT7AZAUrMWrE1mJieMTCoAAAAAAAAAAAAAAAAAAAAAAAAAAAAAAAAAAAAAAAAAAAAAAAAAAAAAAAAAAAAAAAAAAAAAAAAAAAAAAAAAAAAAAAAAAAAAAAAAAAAAAAAAAAAAAAAAAAAAAAAAAAAAAAAAAAAAAAAClpitZm0xERxmZLTFazNpiIjjMysO61C/TXK1nqm8+wDutQv01ytZ6pvPsX9YitYisRERwiIKxFaxFYiIjhEQqAAAAAAAAAAAAAAAAAAAAApaItWYtETE8JiVQGP7rT79NsraeuaT7F/WYtWJrMTE8YmC0RasxaImJ4TErDutPv02ytp65pPsBkBSsxasTWYmJ4xMKgAAAAAAAAAAAAAAAAAAAAAAAAAAAAAAAAAAAAAAAAAAAAAAAAAAAAAAAAAAAAAAAAAAAAAAAAAAAAAAAAAAAAAAAAAAAAAAAAAAAAAAAAAAAAAAAAAAAAAAAAAAAAAAAAAAAAKWmK1mbTERHGZktMVrM2mIiOMzKw7rUL9NcrWeqbz7AO61C/TXK1nqm8+xf1iK1iKxERHCIgrEVrEViIiOERCoAAAAAAAAAAAAAAAAAAAAAAAACloi1Zi0RMTwmJVAY/utPv02ytp65pPsX9Zi1YmsxMTxiYLRFqzFoiYnhMSsO60+/TbK2nrmk+wGQFKzFqxNZiYnjEwqAAAAAAAAAAAAAAAAAAAAAAAAAAAAAAAAAAAAAAAAAAAAAAAAAAAAAAAAAAAAAAAAAAAAAAAAAAAAAAAAAAAAAAAAAAAAAAAAAAAAAAAAAAAAAAAAAAAAAAAAAAAAAAAAApaYrWZtMREcZmS0xWszaYiI4zMrDutQv01ytZ6pvPsA7rUL9NcrWeqbz7F/WIrWIrEREcIiCsRWsRWIiI4REKgAAAAAAAAAAAAAAAAAAAAAAAAAAAAKWiLVmLRExPCYlUBj+60+/TbK2nrmk+xf1mLViazExPGJgtEWrMWiJieExKw7rT79NsraeuaT7AZAUrMWrE1mJieMTCoAAAAAAAAAAAAAAAAAAAAAAAAAAAAAAAAAAAAAAAAAAAAAAAAAAAAAAAAAAAAAAAAAAAAAAAAAAAAAAAAAAAAAAAAAAAAAAAAAAAAAAAAAAAAAAAAAAAAAAAAAAAAClpitZm0xERxmZLTFazNpiIjjMysO61C/TXK1nqm8+wDutQv01ytZ6pvPsX9YitYisRERwiIKxFaxFYiIjhEQqAAAAAAAAAAAAAAAAAAAAAAAAAAAAAAAAApaItWYtETE8JiVQGP7rT79NsraeuaT7F/WYtWJrMTE8YmC0RasxaImJ4TErDutPv02ytp65pPsBkBSsxasTWYmJ4xMKgAAAAAAAAAAAAAAAAAAAAAAAAAAAAAAAAAAAAAAAAAAAAAAAAAAAAAAAAAAAAAAAAAAAAAAAAAAAAAAAAAAAAAAAAAAAAAAAAAAAAAAAAAAAAAAAAAAAAAAAAKWmK1mbTERHGZktMVrM2mIiOMzKw7rUL9NcrWeqbz7AO61C/TXK1nqm8+xf1iK1iKxERHCIgrEVrEViIiOERCoAAAAAAAAAAAAAAAAAAAAAAAAAAAAAAAAAAAACloi1Zi0RMTwmJVAY/utPv02ytp65pPsX9Zi1YmsxMTxiYLRFqzFoiYnhMSsO60+/TbK2nrmk+wGQFKzFqxNZiYnjEwqAAAAAAAAAAACx1TV9O0rD7ZqWey2Uru378bFim/q3872ImdiqmiqueDTGmV8ND1DlZ2SydprXP4mZtHPGBg2tHzzEQw2Ny4bPVtuw8jql48Pa6R/5rsWLk7KUlbyLj7kaabNXZo8XVRyb38tB8Xap9HD/Ee/loPi7VPo4f4nvFrvsrnm/lH3M9zrI5N7+Wg+LtU+jh/iPfy0Hxdqn0cP8Rxa77J5v5R9zPc6yOTe/loPi7VPo4f4j38tB8Xap9HD/EcWu+yeb+Ufcz3Osjk3v5aD4u1T6OH+I9/LQfF2qfRw/wARxa77J5v5R9zPc6yOTe/loPi7VPo4f4j38tB8Xap9HD/EcWu+yeb+Ufcz3Osjk3v5aD4u1T6OH+I9/LQfF2qfRw/xHFrvsnm/lH3M9zrI5N7+Wg+LtU+jh/iPfy0Hxdqn0cP8Rxa77J5v5R9zPc6yOTe/loPi7VPo4f4j38tB8Xap9HD/ABHFrvsnm/lH3M9zrI5N7+Wg+LtU+jh/iPfy0Hxdqn0cP8Rxa77J5v5R9zPc6yOTe/loPi7VPo4f4j38tB8Xap9HD/EcWu+yeb+Ufcz3Osjk3v5aD4u1T6OH+I9/LQfF2qfRw/xHFrvsnm/lH3M9zrI5N7+Wg+LtU+jh/iPfy0Hxdqn0cP8AEcWu+yeb+Ufcz3Osjk3v5aD4u1T6OH+I9/LQfF2qfRw/xHFrvsnm/lH3M9zrI5N7+Wg+LtU+jh/iPfy0Hxdqn0cP8Rxa77J5v5R9zPc6yOTe/loPi7VPo4f4j38tB8Xap9HD/EcWu+yeb+Ufcz3Osjk3v5aD4u1T6OH+I9/LQfF2qfRw/wARxa77J5v5R9zPc6yOTe/loPi7VPo4f4j38tB8Xap9HD/EcWu+yeb+Ufcz3Osjk3v5aD4u1T6OH+I9/LQfF2qfRw/xHFrvsnm/lH3M9zrI5N7+Wg+LtU+jh/iPfy0Hxdqn0cP8Rxa77J5v5R9zPc6yOTe/loPi7VPo4f4j38tB8Xap9HD/ABHFrvsnm/lH3M9zrI5N7+Wg+LtU+jh/iPfy0Hxdqn0cP8Rxa77J5v5R9zPc6yOTe/loPi7VPo4f4j38tB8Xap9HD/EcWu+yeb+Ufcz3Osjk3v5aD4u1T6OH+I9/LQfF2qfRw/xHFrvsnm/lH3M9zrI5Vg8t+zt7bsTJaphx4e10n/yZrTuVfZLOWittRtlrTzRmMG1ftiJj7Xk2LkbaVu5kXH2401WauzT4N7Fnpuq5DVMLtmm53LZqnPvwcSL7vmXizMaNqNqpqong1RokAFIAAAAAAAAAAAAAAAAAAAAAAAAAAAAAAAAAAAAAAAAAAAAAAAAAApaYrWZtMREcZmS0xWszaYiI4zMrDutQv01ytZ6pvPsA7rUL9NcrWeqbz7F/WIrWIrEREcIiCsRWsRWIiI4REKgAAAAAAAAAAAAAAAAAAAAAAAAAAAAAAAAAAAAAAAAKWiLVmLRExPCYlUBj+60+/TbK2nrmk+xf1mLViazExPGJgtEWrMWiJieExKw7rT79NsraeuaT7AZAUrMWrE1mJieMTCoAAAAAPnFxKYOFfExb1ph0ibWtad0ViOeZkNr6ahtnyg6HsrW2Hmsf8oz27hlcDda/+ror8vHyOa8pHK5i5i+LpuymJOFgRPY3z0cLX8mH4I/zc/g3ONXvbEva97Ta9p3zMzvmZ8LPs4OavSuN1yRmnVeiL2N9GPZ6fr1btu50Pajlb2i1i18PI4ldLys81cv+0mPLeePzbnP8xj4uZxbYuYxb4uLbja97TaZ65l5L3S9Lz+q4/adMyeYzeL8HBw5tu693MkKaKLcao0N5w+Ew2Bo0WqYpj/ts/lZDoulcj21WdrW2PhZXI1n/ABGNvn5q72wYHITnrVjt+t5alumKYFremYW5xNqP5mJdy/k61Oiq9H01+Glxodr94jH8f4X1SfxnvEY/j/C+qT+N5xu11rPnNkz3vdV+HFB2v3iMfx/hfVJ/Ge8Rj+P8L6pP4zjdrrPObJnve6r8OKDtfvEY/j/C+qT+M94jH8f4X1SfxnG7XWec2TPe91X4cUHa/eIx/H+F9Un8Z7xGP4/wvqk/jON2us85sme97qvw4oO1+8Rj+P8AC+qT+M94jH8f4X1SfxnG7XWec2TPe91X4cUHa/eIx/H+F9Un8Z7xGP4/wvqk/jON2us85sme97qvw4oO1+8Rj+P8L6pP4z3iMfx/hfVJ/GcbtdZ5zZM973VfhxQdr94jH8f4X1SfxnvEY/j/AAvqk/jON2us85sme97qvw4oO1+8Rj+P8L6pP4z3iMfx/hfVJ/GcbtdZ5zZM973VfhxQdr94jH8f4X1SfxnvEY/j/C+qT+M43a6zzmyZ73uq/Dig7X7xGP4/wvqk/jPeIx/H+F9Un8Zxu11nnNkz3vdV+HFB2v3iMfx/hfVJ/Ge8Rj+P8L6pP4zjdrrPObJnve6r8OKDtfvEY/j/AAvqk/jPeIx/H+F9Un8Zxu11nnNkz3vdV+HFB2v3iMfx/hfVJ/Ge8Rj+P8L6pP4zjdrrPObJnve6r8OKDtfvEY/j/C+qT+M94jH8f4X1SfxnG7XWec2TPe91X4cUHa/eIx/H+F9Un8Z7xGP4/wAL6pP4zjdrrPObJnve6r8OKDtfvEY/j/C+qT+M94jH8f4X1SfxnG7XWec2TPe91X4cUHa/eIx/H+F9Un8Z7xGP4/wvqk/jON2us85sme97qvw4oO1+8Rj+P8L6pP4z3iMfx/hfVJ/GcbtdZ5zZM973VfhxQdr94jH8f4X1SfxnvEY/j/C+qT+M43a6zzmyZ73uq/Dig7X7xGP4/wAL6pP4z3iMfx/hfVJ/GcbtdZ5zZM973VfhxQdr94jH8f4X1SfxnvEY/j/C+qT+M43a6zzmyZ73uq/Dig7X7xGP4/wvqk/jPeIx/H+F9Un8Zxu11nnNkz3vdV+HFB2TH5Cs/Ws/k+tZW9uiL4Nq+iZa9qvJBtVka2tg5fL56kf4fGjf81t0qoxNqdlS9ay9k67Oim9H11eOhoWWzOPlcauNlcbEwcWvNfDtNbR8sOh7L8r+0Gk2ph6lauqZWOExjTuxIjyXj74loOpadndMzE4Go5THyuNH8GNhzSftWiuqii5GuNLLxGDwuOo0XaYqj/tk/hLbY7bzRNqqRTI5jtWc3b7ZXG7nEjq6LR1NqQiwcXEwMWmLg3th4lJ7Kt6Tums+GJds5NuV23ZYWm7WYm+J3Vw8/PR5MT8Xz+FHX8HNPpUa2iZXzTrsRN7B+lT1dMbuvx3u4ilLVvStqWi1bRviYnfEwqwWmAAAAAAAAAAAAAAAAAAAAAAAAAAAAAAAAAAAAAAAAAAAAAAClpitZm0xERxmZLTFazNpiIjjMysO61C/TXK1nqm8+wDutQv01ytZ6pvPsX9YitYisRERwiIKxFaxFYiIjhEQqAAAAAAAAAAAAAAAAAAAAAAAAAAAAAAAAAAAAAAAAAAAAApaItWYtETE8JiVQGP7rT79NsraeuaT7F/WYtWJrMTE8YmC0RasxaImJ4TErDutPv02ytp65pPsBkBSsxasTWYmJ4xMKgAApe9cOlr3tFa1jfMzO6IhHDlc5RsTaDMYmlaPiTTR8O26968JzMx0/F8EdPPPRu2bl422tgUnZvTMXdiXrE529Z4xWebD+Xnnybo6ZcJSWEw+rylX0dBzXyFFNMY3ERrnkx1fH8doutM0/N6pncPKadl8TMZnEndXDw43zP8At5V5sxoOe2k1fB07TMPs8a/G1p/Vw69NrT0RCUewuxmm7IadGDk6RiZu8R2/NWju8SfB5K+CPTLIv4iLUaOlOZay7ayZTwY9K5OyPvPw8Wg7E8i+WwK4ea2pxfyjG5/yTCtuw6+S1o42+TdHW65p+QymnZauXyGWwctgV5sPCpFa/NC5ETcu1XJ01S5jjsp4nH1cK/Xp+HRG6ABbYAAAAAAAAAAAAAAAAAAAAAAAAAAAAAAAAAAAAAAAAAAAAAAAAC01PTclquVtltSyuDmsC3PTFpFo+3mcf235F8K9cTNbKYna7885LGtvrPxLzzdU/PDtYuW7tdudNMpDAZUxOAq4VirRHV0T9P8ApQnz+TzOn5vFyuewMTAzGFPY3w8Su61Z6lulnygbD6ftfp81xq1wNQw6/oM1WO6r5LeGvk+ZF3X9Gzug6rj6fqeDOFmcKeMc8WjotWemJ8KWsYiLsfF07I2XLWVKNHJrjbH3j4eDo/JByj30bGwdF1zFm2mXnscHGvP93meiZ+B6OpIiJiYiY4xKD6QPIVttbUcr+b+p4vZZvL035W9p44mHHPTrr0eTqY2Lw/8A+lP1a/nTkONE47Dx80ff89vW6+AjmggAAAAAAAAAAAAAAAAAAAAAAAAAAAAAAAAAAAAAAAAAClpitZm0xERxmZLTFazNpiIjjMysO61C/TXK1nqm8+wDutQv01ytZ6pvPsX9YitYisRERwiIKxFaxFYiIjhEQqAAAAAAAAAAAAAAAAAAAAAAAAAAAAAAAAAAAAAAAAAAAAAAAAApaItWYtETE8JiVQGP7rT79NsraeuaT7F/WYtWJrMTE8YmC0RasxaImJ4TErDutPv02ytp65pPsBkGF2y17C2b2bzuqY2604NP0dJ/jvPCtfn+zezNZi1YmsxMTxiYcH/tF67OLnshoeDfuMGv5TjRHTad8Vj5I3z/AKl6xb8pXFKUyNgeP4yizOzbO6Pzscgz+bx8/ncfN5vEnEzGPecTEvPPa0zvmXxlsDFzWYwsDL4dsTGxbRSlKxvm1pndEQ8nYP7PmzFc5qWY1/NU34WUntWXiY4TizHG3yRP/d5ExduRaomp1fKGMoyfhar0xqpjVHx6IdR5NNjsDZHQqYU1rfUceIvmsWOm3wY/yx7Z6W3gg6qpqnhS41iMRcxN2q9dnTVIApWQAAAAAAGgcpnKNltj4plMtg1zeqYlezjDm26mHXom27jx6Ij7FVFE1zwaWRhcJdxl2LNmnTVLfxHDK8te0eHmoxMxl9PxsHfxwow7U4eS2/2u37E7VZHa7R657I9lS1Z7DGwbz3WFbwT4Y8E9K5cw9dqNNUJDKGQsXk+iLl6n0euNfa2AGp8oe22S2N02mLjUnMZ3H3xgZett3ZbueZnorHBbppmqdEI3D4e5ibkWrUaap2Q2wRszHLRtPiY1rYVNPwqTPCkYE23fLNnn78u1Xwsj9X/3ZPErrY4zQyhPs9v7JLiNHvy7VfCyP1f/AHPfl2q+Fkfq/wDucSunmhlD9Pb+yS4jR78u1Xwsj9X/ANz35dqvhZH6v/ucSunmhlD9Pb+yS4jR78u1Xwsj9X/3Pfl2q+Fkfq/+5xK6eaGUP09v7JLiNHvy7VfCyP1f/c9+Xar4WR+r/wC5xK6eaGUP09v7JLiNHvy7VfCyP1f/AHPfl2q+Fkfq/wDucSunmhlD9Pb+yS4jR78u1Xwsj9X/ANz35dqvhZH6v/ucSunmhlD9Pb+yS4jR78u1Xwsj9X/3Pfl2q+Fkfq/+5xK6eaGUP09v7JLiNHvy7VfCyP1f/c9+Xar4WR+r/wC5xK6eaGUP09v7JLiNHvy7VfCyP1f/AHPfl2q+Fkfq/wDucSunmhlD9Pb+yS4jR78u1Xwsj9X/ANz35dqvhZH6v/ucSunmhlD9Pb+yS4jR78u1Xwsj9X/3Pfl2q+Fkfq/+5xK6eaGUP09v7JLiNHvy7VfCyP1f/d65Xlp2mwsatsbD0/Gw4njScGa7464ngcSuvJzQyhEfy9v7JJDWNgdscltjpVszlazg5jCmK4+XtO+cOZ5uPTE9E+SWzsWqmaZ0S1y/YuYe5Nq7GiqNsADxaAAAAAAAAAAGkcqmxeFtboczgUrXVctE2y+Jzdl4cOZ8E/ZPyt3mYjnY7N65pWT3xm9SyWB5MTHrX0yqoqqpq007WVg716xepu2OVCGeLh3wsW+Hi1tTEpM1tW0bpiY54lcaTqGY0rU8tn8lecPMZfEjEpbyx4fJ0N15ZsPRcXaaNS0DP5XNUzkTbHpgXi3YYkc88PhRunriXP07RV5SmJmNrs2FvRjMPTcqp0cKNcT3wmZsxrOBr+g5LU8rww8xhxbsd+/sbc1q/JMTDKI48k/KPldk9LzmQ1bCzWNgWxIxcDtMRbsZmN1onfMbo4RPzt0vy5aHEz2Gm6lPXGHH/kirmFriqYpjU5jjc28ZbxFdFi3M0adU/B1ocgty56TE9zpOfmPLakferXlz0mf1tKz8dVqT96ji132WP5u5S91Pd+XXhyWnLloczHZ6bqVeqMOf/JeYPLXszfd2eDqWH14NZ9FnnF7vsqKsg5Rp22ZdOGgZflc2Qxd3ZZ7Gwt/w8vf7ollcryh7J5n9nruTr/8AJacP1ohTNm5G2mWNXkvG2+VZqj/+stqGPyet6Xnd35HqWSx9/wD7WPW3olkImJ5lExMbWHVRVROiqNAA8UgAAAAAAAAAAAAAAAAAAAAAAAAAAAAAClpitZm0xERxmZLTFazNpiIjjMysO61C/TXK1nqm8+wDutQv01ytZ6pvPsX9YitYisRERwiIKxFaxFYiIjhEQqAAAAAAAAAAAAAAAAAAAAAAAAAAAAAAAAAAAAAAAAAAAAAAAAAAAAApaItWYtETE8JiVQGP7rT79NsraeuaT7ET9v8AVPdnbLV87FuypfMWrhzv/gr3NfsiEs9bzEZTRs/mJ5sHL4mJPyVmfuQptM0tMzMzWeKQwFOuam8Zl2oiu7fno0R26/tD7S+5PNGjQdjtLyPY9ji1woxMX/5Ld1b7Z3fIixshko1PanSMnMdlTHzWHS3xeyjf9m9MmHuPq2Ur2euJnRaw8bNcz4R9wBHNBAAAAAAAAJ5kS+Va+NflD1z8pm3Zxj7o3/Bisdj9m5LRzPlV5NY2qxa6lpWLh4GqVrFL1xOFMasc2+Y5rRzb2ThbtNuvTU2PNnKFnA4uZv6oqjRp6tcdyNbsf9m22N7tazSu/wDJ5y9Jt4Oy7Lufs7JruV5ItrsbNRhYuSwMDD37pxsTMUmvX3MzP2O78nux+V2O0acrg37dmcWYvmMeY3dnbdwiI6Kx0R1+Fl4q/RNE0xOmZbRnHlnCVYKqxariuqrRsnTo16dMtoRq/tAXx529iuNv7XXKYfat/N2O+2/7d6SrSeU7YPA2yyOFbDxa5bUsvv7TjWjfW0Tz1t5PL0MLDXIt3NNTUM3sdawONi5e5MxMaerT0oqje81yUbYYGLNK6ZXGrHNfDzGHMT88xP2PH3rtsfE1/wCfhfiS/lrftR2unxlXAzGmL1P90flpQ3X3rtsfE1/5+F+I967bHxNf+fhfiPLW/ajte/8AqYL31P8AdH5aUN1967bHxNf+fhfiPeu2x8TX/n4X4jy1v2o7T/1MF76n+6Py0obr7122Pia/8/C/Ee9dtj4mv/PwvxHlrftR2n/qYL31P90flpQ3X3rtsfE1/wCfhfiPeu2x8TX/AJ+F+I8tb9qO0/8AUwXvqf7o/LShuvvXbY+Jr/z8L8R7122Pia/8/C/EeWt+1Haf+pgvfU/3R+WlDdfeu2x8TX/n4X4j3rtsfE1/5+F+I8tb9qO0/wDUwXvqf7o/LShuvvXbY+Jr/wA/C/Ee9dtj4mv/AD8L8R5a37Udp/6mC99T/dH5aUN1967bHxNf+fhfiPeu2x8TX/n4X4jy1v2o7T/1MF76n+6Py0obr7122Pia/wDPwvxHvXbY+Jr/AM/C/EeWt+1Haf8AqYL31P8AdH5aUN1967bHxNf+fhfiPeu2x8TX/n4X4jy1v2o7T/1MF76n+6Py0obr7122Pia/8/C/Ee9dtj4mv/PwvxHlrftR2n/qYL31P90flpQ3X3rtsfE1/wCfhfie+T5J9r8xjRS+m0y9Z58TFzFOxj5pmfsPLW/ah5OVcDEaZvU/3R+Wa/s6Wx42wztcPf2iclacTwb4vXsfTKRTT+TbYjL7G6XiYfbIzGfzExOPjxG6J3c1a/5Y3z1twRGIuRcuTVS5bl/HW8djartnk6o09ejpAFhDAAA+cS9cOlr4lorSsb5tM7ohpe0HKfsvo3ZUtn4zmPXf+iykdsn6X6sfOqpoqqnRTGlkYfC3sTVwbNE1T8IbsOA69y4ahjdlTRNOwMrTmjEzFu2W690boj7XPdb2y2h1ubRqOrZrEw7c+HW/YU+jXdDKowVyrbqbHhc0Mbd13ZiiO2e7V3pSaxtboGj741HVsng3jnp2yLX+jG+fsaTq3LXs9ld9chgZ3PW6JikYdJ+W3H7EclGTTgaI5U6Ww4fM7B29d2qap7I/Pe69qfLlq2L2UabpeTy0TzTi2tizHqw1XUeU7a7PTMW1fEwa/By9K4e75Yjf9rSxfpw9unZSmrGRcBY5FqPrGnx0r/O6zqefmZzuo5zMTPH9Lj2t6ZWD0wcHFx79hgYd8S3gpWbT9jN5LY7aTOxvy2h6javwpwLVj553Lmmmn4M2q5Zw8aKpimPpDADespyUbYZjjOmVwY8OLj4cfZvmWVy/IptNi7pxMbTcHyWxrT6KqJv24/mhh15ZwFvbep7YnwcwHYMPkL1Wf2ur5GvxcO9vYuqchGYmO717Cif8uVmf/JRxq11sec5Mmx/+vdP4cVHcI5B+HHaDj5p//cnkHndw2g4+XKf/ANzjdrrUec+TPe91X4cPHasTkIzER+j17Cmf82VmP/Ja4vIXq0b+1atkbeDsqXr7TjVrrV05yZNq2Xe6fw4+OnZjkV2nwonteLpuN5K41o3/AD1his3yVbYZbj7ldur4cLHw7fZv3q4v25/mhk0ZZwFzk3qe2I8Wjshkdb1TITE5HUs7l93/ALWPavoleZ3ZHaLJcczomo0r8L8ntMfPEbmFxcLEwb9hi0tS3gtG6ftV6aaviy4rs4iNETFUfSW56dyobW5GYiNVvj0+DmMOuJ9sxv8AtbVpfLlqmF2ManpWUzEdM4N7YU/b2UOPiirD26ttLCv5EwF/l2Y+kaPDQkjpPLTs5m91c9hZzI36ZvhxiUj5a8fsbro+1Ohaxu9zdVyePaeakYkRf6M7p+xDlWJmJ3xzserA0TyZ0ITEZm4S5rs1TTPbH5703xELRNt9o9F7GMhq2arh15sLEt2yn0bb4dC0LlxzmF2NNc0zCx69OLlrdhb6M74n54Y1eCuU7NbXsVmhjbOu1MVx8NU9k/l3sabs/wApWzGt9jTC1GuWx7f9LNx2qd/g3z3M/JLca2rasWrMTWY3xMc0sWqiqmdFUaGuX8New1XBvUTTPxjQqApWAAAAAAAAAAAAAAAAAAAABS0xWszaYiI4zMlpitZm0xERxmZWHdahfprlaz1TefYB3WoX6a5Ws9U3n2L+sRWsRWIiI4REFYitYisRERwiIVAAAAAAAAAAAAAAAAAAAAAAAAAAAAAAAAAAAAAAAAAAAAAAAAAAAAAAAABgdvbTTYnXprO6fyHG9SUPZ486YO3/AHj695ljepKHyUwHJl0XMr1e7vjwbRyU7sPlD0SbccOMabT5N1bSlvSYtWJrMTExviYRS5H4i3KPo0WiJib3iYn/AOOyT0dlp9+m2VtPy0n2LGO5yNyIzyjRjKI/T95ZAUrMWrE1mJieMTCrCaiAAAAAAAAAAAAAAAAAAAAAAAAAAAAAAAAAAAAAAAAAADVdrdvdB2Xi1M/m4xM3HNlcDu8T5Y5q/LMOLbWcsGuatN8HSYrpeVnhvw57LFmPLfo+SI61+3h67myNSayfkDGY/RVRTop651R9Omfo7ztFtRo2zuF2er5/By9t2+MPf2WJbqrHGXJ9puXC09lhbOafFY5ozGb4z8lIn0z8jiuPjYmPi3xcfEviYt532ve02tafLMvNn28FRTrq1t2wOaWEw+iq/wCnPZHZ+ZZvX9qdb2gvM6tqWYzFZnf2vsuxw46qxuj7GEViJmYiOeW3bPcnW02uxW+W06+BgW/62a/RV6438Z+SJZMzRbjqhsFVzDYG36UxRTG6IagO96ByHZPC7HE13UsXMW6cLLV7Cv0p3zPzQ6Loexmz2hxWdO0nK4eJH/VtXs7/AErb5Y1eNop5Otr2LzvwVnVZia57I7Z/CL2jbHbQ6z2M6dpGbxaTzYlqdhT6Vt0N50jkR1zM9jbUs7k8lWeetd+LePm3R9qRAxasbcnZqa7ic8cZc1WoiiO2e/V3OU6XyI6Dl906hnM9nLdMRaMKs/JETP2tt03k+2V07sZy+iZS1q81sas4s/8AdvbSMeq9cq2yg7+V8biOcu1duiOyNTxy2Uy+Vp2GVwMLBp8HDpFY+x7Ato+ZmZ0yADwAAAAAAAAeGbyWVzlOwzeWwcevgxcOLR9r3B7EzTOmGp6lyd7Kah2U42i5Wlp/iwInCn/tmGparyIaJj7507PZ3KW8F+xxax8+6ftdZF2m9cp2SkbGWMdY5u7V26Y7J0wjnq/Inr+W3207NZPPV6K9lOFefknh9rR9Z2T17Rd86npWbwKRz4na5tT6Ub4+1MQmN8L9OOuRt1pzDZ44y3qvUxXHZPdq7kHxLzXNhtnNbi05/SctOLP/AFcKva7/AEq7t/yuc7QchuDbssTQNTvhz0YObr2UfTrxj5pZVGNt1crU2LCZ3YK9qu6aJ+OuO2Pw4Sz2z212u7PWj3K1LHwcOP8ApTPZYc/6Z3wvNotgdpNA7K+d03FvgV/6+B+kpu8MzHGPliGqsmJouR1w2CmrDY63qmK6Z3TDuWzPLhWewwto9P7HonMZTjHy0n7p+R1jQNo9I2gwO26Rn8HMxu3zWs7r166zxj5kNXrlcxjZXHpjZXGxMHGpO+uJh2mtonyTDGuYKirXTqa7js0cJf01WJ4E9sdn4n6JtiOWyfLJrOmdhg61h11PLRw7OZ7DGiPjc1vlj5XaNlNt9C2npEabnKxmN2+cti9xix8nT1xvYF3D129samk5QyFjMBpm5Tpp641x+31bKAsIcAAAAAAAAAAAAAAUtMVrM2mIiOMzJaYrWZtMREcZmVh3WoX6a5Ws9U3n2Ad1qF+muVrPVN59i/rEVrEViIiOERBWIrWIrEREcIiFQAAAAAAAAAAAAAAAAAAAAAAAAAAAAAAAAAAAAAAAAAAAAAAAAAAAAAAAAAAYDb/vH17zLG9SUPkwdv8AvH17zLG9SUPkpgOTLouZXq93fHg3Pke/eRovx7/07JWTEWrMWiJiY3TEop8j37yNF+Pf+nZK2OZYx3ORuROefrtHyx4yx/daffptlbT1zSfYv6zFqxNZiYnjEwWiLVmLRExPCYlYd1p9+m2VtPXNJ9jCagyApW0WrE1nfE8YmFQAAAAAAAAAAAAAAAAAAAAAAAAAAAAAAAAAAAABa6nqGU0vJYmb1HMYeWy2HG+2JiW3RH+/kcP265ZsfMdsymylJwMLmnOYte7t8Ss/q9c8fJC7bs13Z0UwksnZJxOUauDYp1dMzsj6/wDS6ztZtjo2y2B2eq5qsY0xvpl8PusW/VXojyzuhwnbPlb1rW+2ZfTJnS8jPDdhW/S3jy36OqN3XLneazGNm8xiY+axcTGxsSeyviYlpta0+GZl5JO1hKKNc65dDyZmxhcForuenX1zsjdH5VtabWm1pmbTO+ZnnmVGS0LQ9S17ORltJyeNmsXp7COFfLaeaI63ZdkeRPBwuwzG0+a7dbn/ACXLzMVjyWvzz8m7rXbl+i1ypSWPyvhMnx/Gq19Ua57Py4rpOlZ/V81GW0zKY+ax5/gwqTbd5Z8EeWXVdl+RLPZnscXaLOVyeHP/AEMvuvifLb9WPk3u46TpWR0jKVy2mZTByuBH8GFSKxPlnwz5ZXqPuY2urVTqaRj878Te004aOBHXtn8R/wBra1s3sPs/s7Fbadp2F2+P+vi/pMT6U83ybmygw5qmqdMtUvX7l+rh3apqnrmdIA8WgAAAAAAAAAAAAAAAAAAAAAAABqu0uwGzu0MWtndPw8PMW/8AUZf9HidczHCfliW1D2mqaZ0xK9ZxF3D1cO1VNM/CdCPe1HIpqeTi+NoGZpqGFHGMHE3YeL8k/qz9jluo6fnNMzVstqGVxstj158PFpNZ+1NZj9a0XTdbys5fVslg5rC6IxK75r1TzxPUzLeNqp1V6214DPDEWtFOKp4cdcap/E929C99Yd74WJW+Ha1L1nfW1Z3TE+GJdu2v5E/18xstmvL+SZm32Vv90/O47rGk5/Rs5bK6plMbK48fwYld2/yxPNMeWEhbvUXeTLeMDlXC5Qp/gVaZ6p29n/Q6FsbywavpHa8vrVZ1PJxw7O07sasfG/i+X53dNl9q9H2ny3bdIzdcS0Rvvg27nEp11+/mQ7XGRzmZyGaw8zksfFy+Yw530xMO01tWfJMLN3CUV66dUorKea+Fxmmuz6Ffw2Tvj8d6bA4bsLyzTE4eT2spvjhWM9hV4x8esemPmdryOcy2fyuHmclj4eYy+JG+mJh2i1bR1wjblmu1OiqHO8oZLxOT6+Dfp1dE9E/X/pe4C0jwAAAAAAABS0xWszaYiI4zMlpitZm0xERxmZWHdahfprlaz1TefYB3WoX6a5Ws9U3n2L+sRWsRWIiI4REFYitYisRERwiIVAAAAAAAAAAAAAAAAAAAAAAAAAAAAAAAAAAAAAAAAAAAAAAAAAAAAAAAAAAAABgNv+8fXvMsb1JQ+TB2/wC8fXvMsb1JQ+SmA5Mui5ler3d8eDc+R795Gi/Hv/TslbHMilyPfvI0X49/6dkrY5ljHc5G5E55+u0fLHjI5Jyr8qE6JmMXRtBjDxM9WN2PmLxFq4M/BiOabeHfwjyzzdN13OzpuiahnojfOWy+JjRHh7Gsz9yGOYxsTMY+Jj495vi4lpve089rTO+ZeYSzFyZmrZCjNbJNrG3Kr1+NNNOjV1z8dy+zm0etZnFm+a1XPYkTPNOPaIr1RE7oeUatqM//APQzf8+3tWU8Xnxw58NPQlODTHQ6NFi3ajRFMaN2xkvdbUf8fm/59vae62o/4/N/z7e1YxxHvBjqXPJW/Zhfe62o/wCPzf8APt7T3W1H/H5v+fb2rEODHUeSo9mF97raj/j83/Pt7T3W1H/H5v8An29qxDgx1HkqPZhfe62o/wCPzf8APt7T3W1H/H5v+fb2rEODHUeSo9mF97raj/j83/Pt7T3W1H/H5v8An29qxDgx1HkqPZhfe62o/wCPzf8APt7T3W1H/H5v+fb2rEODHUeSo9mF97raj/j83/Pt7T3W1H/H5v8An29qxDgx1HkqPZhfe62o/wCPzf8APt7T3W1H/H5v+fb2rEODHUeSo9mF97raj/j83/Pt7T3W1H/H5v8An29qxDgx1HkqPZhfe62o/wCPzf8APt7T3W1H/H5v+fb2rEODHUeSo9mF97raj/j83/Pt7T3W1H/H5v8An29qxDgx1HkqPZhfe62o/wCPzf8APt7T3W1H/H5v+fb2rEODHUeSo9mF97raj/j83/Pt7T3W1H/H5v8An29qxDgx1HkqPZhfe62o/wCPzf8APt7T3W1H/H5v+fb2rEODHUeSo9mF97raj/j83/Pt7T3W1H/H5v8An29qxDgx1HkqPZhfe62o/wCPzf8APt7T3W1H/H5v+fb2rEODHUeSo9mF97raj/j83/Pt7T3W1H/H5v8An29qxDgx1HkqPZhfe62o/wCPzf8APt7T3W1H/H5v+fb2rEODHUeSo9mFxmc7mszWK5nM4+NWJ3xGJiTaIn5ZW437YLky1bajteazETkNLnj2/Er3WJH+SvT1zw61NVdNuNM6lrE4qxgrflL1UU0/9saTkMlmdQzeHlcjgYuYzGJO6mHh1m1p+SHZNieRe9+15ravFmleeMlgW4/67xzdUfO6tspsnpGy2U7TpOVrS8xuxMe/dYmJ12+6ODPI29jaqtVGqHP8qZ23r+m3hPQp6+mfx4rPStLyOkZOmV0zK4OVy9eamFXdHXPhnyyvAYUzpahVVNczVVOmZABSAAAAAAAAAAAAAAAAAAAAAAAAAAAAAAAALDWtG07W8nbK6rlMHNYE/wAOJXfu8sTzxPlhfhE6NcKqK6qKoqonRMOB7bcjGZy0Yma2WxZzOFHGcpizHbI+Lbmt1TunrcgzWXxspmMTAzWFiYOPhz2N8PErNbVnwTEpttb2w2M0favLTTUsvEZiI3YeZwt1cWny9MeSd8M6zjZp1V6245Lzuu2tFvGRwqevpjf1+O9ENsWx+2Gr7KZvtumZie0WnfiZbE44eJ1x0T5Y4spt3ydavspe+PNfyzTN/c5rCr+rH+eP4fR5WkpGJou06tcN7ouYbKNjTToron/u3vSu2D5QdJ2twq4WFb8l1KI33ymJbjPhmk/xR9vkbkhFg4uJgYtMXBxL4eLSeyrekzE1nwxMczt/Jzyv9lOFp21l4ieFcPPbv6kf+UfL4Uffwc0+lb2NFyzmpXY03sF6VPs9Mbuvx3u3D5w8SmLh1xMO1b0tEWras74mJ5piX0wGlgAAAClpitZm0xERxmZLTFazNpiIjjMysO61C/TXK1nqm8+wDutQv01ytZ6pvPsX9YitYisRERwiIKxFaxFYiIjhEQqAAAAAAAAAAAAAAAAAAAAAAAAAAAAAAAAAAAAAAAAAAAAAAAAAAAAAAAAAAAAAADAbf94+veZY3qSh8mDt/wB4+veZY3qSh8lMByZdFzK9Xu748G58j37yNF+Pf+nZK2OZFLke/eRovx7/ANOyVscyxjucjcic8/XaPljxlhNt+83XfMcb1JQ6TF237zdd8xxvUlDpewHJlK5lcxd3x4BPEGe3Z58cOfDT0PSOJPF58cOfDT0PNijkbnoEcR6rAAAAAAAAAAAAAAAAAAAAAAAAAAAAAAF1pmn5vVM7hZPT8viZjM4s7qYeHG+Z/wBvKzexOxuqbXZ/tOn4fYZekx27M3juMOPvnyQkvsXsdpWyWR7Tp+F2WYvERjZnEiJxMSevojyRwY1/E02tUa5a/lnOCzk2OBT6Vzq6t/42+LS+Tzkjymldqz20cYecz0brVy/PhYU+X4c/Z187rERERERG6IBE3LlVydNUuY43H38dc8rfq0z3RugAUMMAAAAAAAAAAAAAAAAAAAAAAAAAAAAAAAAAAAAAAAB84lK4lLUxKxalo3TWY3xMeBx7lD5H8DORi5/ZWKZfM/rWyUzuw7/En+GfJzdTsYuW7lVudNMs7AZRxGAueUsVaOuOid8ITZ3KZjI5vFy2cwcTAzGFbsb4eJXsbVnyw8Etdu9htL2vym7NU7RnqRuws3hx3dfJPwq+Sfk3I0bX7K6nsrqU5TU8HdWd84WPTjh4seGs/dzwlrGJpu6tkun5Hy9YylTweTc6Y/HX4ti5N+UjPbK4tMpm+zzejzPHBme6wvLSf/HmnyJJaJq2R1vTcLPaZmKZjLYkcLV6J6YmOiY8EoWtk2I2w1LZHUfyjIX7PL3mO3Za89xix90+Cf8A/FvEYWLnpU7WFlzNu3jYm9h/Rud0/v8AHt60vBg9kNp9O2q0qud0zE37t0YuFb9fCt4LR9/NLOIqYmmdEuZ3bVdmubdyNExtgUtMVrM2mIiOMzJaYrWZtMREcZmVh3WoX6a5Ws9U3n2PFs7rUL9NcrWeqbz7F/WIrWIrEREcIiCsRWsRWIiI4REKgAAAAAAAAAAAAAAAAAAAAAAAAAAAAAAAAAAAAAAAAAAAAAAAAAAAAAAAAAAAAAAAAwG3/ePr3mWN6kofJg7f94+veZY3qSh8lMByZdFzK9Xu748G58j37yNF+Pf+nZK2OZFLke/eRovx7/07JWxzLGO5yNyJzz9do+WPGWE237zdd8xxvUlDpMXbfvN13zHG9SUOl7AcmUrmVzF3fHgAM9uwTxAHnxw58NPQ9I4k8Xnxw58NPQ82KORuegRxHqsAAAAAAAAAAAAAAAAAAAAAAAAAAdC5M+TjN7VY1M5nuzyujVnjibt1sbd/DT77c3WynJPyZX1ycLV9ew7YelxPZYWDPC2Y8s+Cnp6uKQ+Bg4eBg0wsDDrh4VKxWtKRuisRzREMHE4rg+hRtaZl/OWMPpw2EnTX0z1fCPj4b9ltpGmZPSMhhZLTcvTL5bCjdWlI+2fDPlleAi5nS51VVNczVVOmZABSAAAAAAAAAAAAAAAAAAAAAAAAAAAAAAAAAAAAAAAAAAAAMfr2jZDXtNxcjqmXpj5fE6J56z0TWeifLDID2J0a4VUV1W6oronRMIr8o/J9ntkMx26nZZrScS27DzERxpPwb+CfLzT9jR02s5lcDO5XFy2bwqY2XxazS+HeN9bRPRMI4cqfJrjbNXxNS0mt8bRrT3Uc9svM9FvDXwT8k+GZPDYrh+jXtdIyBnJGL0YfFTor6J6J/fxaZsttFqGzOrYef0zF7DErwvSf1cSvTW0dMJR7D7YaftZpH5XlbRhY2HERmMva3dYVvvieifvREnhzr7Z7Ws7omq4We0/EmlqT3VZ/VxK9NbR0xK7iMPF2NMbWfl3IlvKVHCp1XI2T1/Cfh4Jhd1qF+muVrPVN59i/rEVrEViIiOERDXNg9q8htZo1M1kd2Fi4e6uPl5nusK3g8sT0T0/O2RD1UzTOiXK71m5YuTauxoqjbAA8WgAAAAAAAAAAAAAAAAAAAAAAAAAAAAAAAAAAAAAAAAAAAAAAAAAAAAAAAAAAAAAAAGA2/wC8fXvMsb1JQ+TB2/7x9e8yxvUlD5KYDky6LmV6vd3x4Nz5Hv3kaL8e/wDTslbHMilyPfvI0X49/wCnZK2OZYx3ORuROefrtHyx4ywm2/ebrvmON6kodJi7b95uu+Y43qSh0vYDkylcyuYu748ABnt2AACeIA8+OHPhp6HpHEni8+OHPhp6HmxRyNz0COI9VgAAAAAAAAAAAAAAAAAAAAADrvJDyazq04Ota/hbtPjusvl7R+3/AM1v8nk6erntuR/k6nXsamsa1hTGlYdv0WFaP7xaPD/kj7ebwpF0rWlIrSIrWI3RERuiIYGKxOj0KGk5yZw+R04TCz6X809Xwj49fVv2K1ilYrWIisRuiI6FQRjnYAAAAAAAAAAAAAAAAAAAAAAAAAAAAAAAAAAAAAAAAAAAAAAAAAA+MxTCxMDEpj1pbBtWYvW8b6zE88TE9D6tMVrM2mIiOMzKw7rUL9NcrWeqbz7AidCPHKpye30jExtX0TCvOh2v3dOecCZ/8N/NPRzS5tzJuYmDhYmBbBxMOl8G1Zpalo31mJ4TEx4Ea+Vvk+vsxnJ1DTKWvo2Pbm55y9p/hn/LPRPydcnhcTwvQr2ujZt5f4xowuJn0+iev4T8fHft1HZLaPPbL6zhahp19169ziYcz3OLTprbyejnSs2R2jyO1Gi4WoaffubdziYcz3WFfprP/wB4xxQ5bTyfbX5vZDWq5rB7LEymJurmcDfwxK+GP80dE+1dxOH8rGmNqQzgyHTlG35W1H8SnZ8fhP2S3FppOo5XVtNy+eyGLXGy2PWL0vHTH3T0TC7Q8xo1S5XVTNEzTVGiYABSAAAAAAAAAAAAAAAAAAAAAAAAAAAAAAAAAAAAAAAAAAAAAAAAAAAAAAAAAAAAAAwG3/ePr3mWN6kofJg7f94+veZY3qSh8lMByZdFzK9Xu748G58j37yNF+Pf+nZK2OZFLke/eRovx7/07JWxzLGO5yNyJzz9do+WPGWE237zdd8xxvUlDpMXbfvN13zHG9SUOl7AcmUrmVzF3fHgAM9uwAAAATxAHnxw58NPQ9I4k8Xnxw58NPQ82KORuegRxHqsAAAAAAAAAAAAAAAAAAb9yUbCYm1mp/lGcramj5a0dutzdttz9rrPpnojrhgdiNmM3tXr2Dp+Via4f6+Pjbt8YWH0z19ER0ylloelZTRNLy+n6dhRhZbAr2NY6Z8MzPTMzxmWHisR5OODTtatnJlziNvyFmf4lXdHXv6u1dZfBwstgYeDgYdcPCw6xSlKRuisRzREPQES5fM6dcgA8AAAAAAAAAAAAAAAAAAAAAAAAAAAAAAAAAAAAAAAAAAAAAAAAFLTFazNpiIjjMyWmK1mbTERHGZlYd1qF+muVrPVN59gHdahfprlaz1TefYv6xFaxFYiIjhEQViK1iKxERHCIhUB4Z/J5fP5PGymcwqY2XxqzTEw7xvi0T0PcHsTNM6Y2opcpuxWPsfrHY4cXxNLx5mctjT9tLf5o+2OPhaYmXtPoWT2j0XMabqFOywsWOFo/Ww7dFq+WETNq9AzmzOuZjTc/X9JhzvpeI7nEpPNaPJPthL4XEeUjg1bYdTzcy3GULfkbs/xKe+Ov8tx5HNup2b1ONO1LFn3IzVuM2nhgXnh2fVPNPz9CS8TFoiYnfEoPpA8he286hla7Pani783gV35W9p44mHH8HXXo8nUtYyxp/iU/VF515F4UTjrEa45Uff89vW6+AjXPwAAAAAAAAAAAAAAAAAAAAAAAAAAAAAAAAAAAAAAAAAAAAAAAAAAAAAAAAAAAAAGA2/7x9e8yxvUlD5MHb/vH17zLG9SUPkpgOTLouZXq93fHg3Pke/eRovx7/07JWxzIpcj37yNF+Pf+nZK2OZYx3ORuROefrtHyx4ywm2/ebrvmON6kodJi7b95uu+Y43qSh0vYDkylcyuYu748ABnt2AAAAAACeIA8+OHPhp6HpHEni8+OHPhp6HmxRyNz0COI9VgAAAAAAAAAAAAAD2yeVxs7m8HLZXDti4+NeKYdKxvm1pndEPF3jkE2M7RgfnJqOF+lxImuTraP1a804ny80eTf4Vq9di1TwpR2Vco0ZOw9V+vb0R1z/234N95N9kcDZHQKZaOxvnsbdiZrFj+K/gj/LHNHyz0trBCVVTVOmXHMRfuYi5VduzpqnaAKVkAAAAAAAAAAAAAAAAAAAAAAAAAAAAAAAAAAAAAAAAAAAAAAAAUtMVrM2mIiOMzJaYrWZtMREcZmVh3WoX6a5Ws9U3n2Ad1qF+muVrPVN59i/rEVrEViIiOERBWIrWIrEREcIiFQAAAAGk8qmxmHtboU/k9a11TLRN8teeHZeGkz4J+yd3lbsKqKponhQv4XE3MLdpvWp0VQhFjYd8HFvhYtLUxKWmtq2jdNZjhMTD10/OZjT89gZvJ4tsLMYF4xMO9eesxzOxcvexnacX85dOw/wBHiTFc7Ssfq25oxPl5p8u7wy4qnLVyLtHCh2PJ2OtZSw0Xqdk6pjqnpj/uhL3YHafA2s2dwM/hdjXHj9HmMKJ/Z4kc8dU88eSWxoq8k+11tldpaTmLzGm5vdhZmOisfw3/ANMz80ylTW0WrFqzExMb4mOaUTibPkq9WyXMcv5KnJ2JmKeRVrj8fTw0KgMdBgAAAAAAAAAAAAAAAAAAAAAAAAAAAAAAAAAAAAAAAAAAAAAAAAAAAAAAAAAAAMBt/wB4+veZY3qSh8mDt/3j695ljepKHyUwHJl0XMr1e7vjwbnyPfvI0X49/wCnZK2OZFLke/eRovx7/wBOyVscyxjucjcic8/XaPljxlhNt+83XfMcb1JQ6TF237zdd8xxvUlDpewHJlK5lcxd3x4ADPbsAAAAAAAAE8QB58cOfDT0PSOJPF58cOfDT0PNijkbnoEcR6rAAAAAAAAAAAVrE2mIiJmZ4REdINr5NNlb7WbTYOVvFoyOD+lzV46KRP6vXM8PnnoSxwMLDwMHDwsGlaYWHWK1rWN0ViI3RENP5KdlY2W2XwsPGpEahmt2NmZ6YtMcKf6Y4de9uaGxN7yterZDkucWVf8A0MVMUT6FOqPj1z9fAAYzXwAAAAAAAAAAAAAAAAAAAAAAAAAAAAAAAAAAAAAAAAAAAAAAABS0xWszaYiI4zMlpitZm0xERxmZWHdahfprlaz1TefYB3WoX6a5Ws9U3n2L+sRWsRWIiI4REFYitYisRERwiIVAAAAAAAAB4Z7KYGeyePlc3h1xcvjUnDxKW5rVmN0wiPt5s1jbK7SZnTsXsrYMT2eBiT/1MOeaevonyxKX7n/LPsn+cezNszlcPstRyETi4W6ON6fx0+aN8eWPKysLe8nXonZLZM2sq8RxPk659CvVPwnon8/Dci+kfyE7We7Gg20jOYm/O6fWIpMzxvg80T/p5urcjgzexuvY2zW0eT1PA3zGFfdiUj+PDnhavzfbuSWIteVo0dLf8t5NjKOFqtxyo1xv/fYmKPDI5rBz2SwM1lcSMTAxqRiYd45rVmN8S90G47MTTOiQAeAAAAAAAAAAAAAAAAAAAAAAAAAAAAAAAAAAAAAAAAAAAAAAAAAAAAAAAAAAMBt/3j695ljepKHyYO3/AHj695ljepKHyUwHJl0XMr1e7vjwbnyPfvI0X49/6dkrY5kUuR795Gi/Hv8A07JWxzLGO5yNyJzz9do+WPGWE237zdd8xxvUlDpMXbfvN13zHG9SUOl7AcmUrmVzF3fHgAM9uwAAAAAAAAAATxAHnxw58NPQ9I4k8Xnxw58NPQ82KORuegRxHqsAAAAAAAAdJ5Dtl/dvaeNQzOH2WR07diTvjhbF/gj5P1vkjwub1rNrRWsTNpndERzylvybbORsxslk8lesRmrx27MT4cS3PHycI+Ri4u7wKNEbZa5nPlHiWEmiifSr1Ru6Z+31bQAh3KAAAAAAAAAAAAAAAAAGO17W9P0DTr53VczTL5evTbntPgrHPM+SHsRM6oVUUVXKooojTM9DItc2m200HZuJjVM/h1x4jfGBh93iT/pjm+Xc4ntxyvaprFsTK6F2em5Gd8dsif02JHln+Hqjj5XML3tiXte9pte075tM75mfKzrWCmddepumTcz7lyIrxlXBjqjb9Z2R3u1a9y54tptTQdKrWOjFzdt8/Qr7Wj6lyn7W5+Z7LVr5ek/w5elcPd8sRv8AtaWM2nD26dkNuw2QsBho9C1E/Gdc97LZjaPW8zabY+sajiTPwszefveMa1qkTvjUs7E+GMxf2seLnAp6kjFi1EaIpjsbDkttNpclMfk+uahERzRbHm8fNbe2vR+WbaXJTWM9GV1DD6e2YfYW+eu6PsczFNVm3Vthi38l4PERouWqZ+mvt2pJ7NcseganamFqdcXS8eeG/F7vC3/Hjm+WIdJy2Ywc1gUxsti4eNg3jfW+HaLVtHkmEI2wbKbX6zstmYxNKzVq4Uzvvl791hX66/fG6WJdwMTrolrGUMzrVcTXg6uDPVOuO3bHemANI5PuUXTNrcOMvO7KapWu+2Wvb9fwzSf4o8nPH2t3R1VE0ToqaHicLdwtybV6nRVAApY4Dn/KHymadst2eUykVzurf+zFu4wvLef/ABjj1KqKKq50UwycLhL2MuRasU6ZlvOdzmWyOWvmM7j4WXwKRvtiYt4rWOuZc02k5Z9D0+bYWkYONqeNHDs4/R4X0pjfPyQ4XtNtPq20ub7fq+bvjbp30wo4YeH8WvNHpYVI28DEa65b7k/M6zREVYurhT1Rqjt2z3Okavyx7T52bRlL5XIYc80YOF2Vvntv9ENWzm2W0mdmfyjXNRtE9EY9qx80boYAZdNminZDZrOTMHYjRbtUx9I8drITrWqTO+dSzsz/APPf2vfLbS65lbRbL6zqOHMfBzN/axAq4FPUyZw9qY0TTHY3fTOVLa3ITH/8pOZpH8OZw633/Lu3/a3rQeXPfatNe0rdHTi5O3/hb2uHC1XhrdW2Ebicg4DEx6dqInrjV4JhbNbW6JtJh79Jz+Fi4m7fbBnucSvXWePy8zPIRYOLiYGLTFwcS+HiUnfW9JmJrPhiYdX2G5Ys/p1sPKbSRbPZThEZiP21I8vw4+3yywruCmnXRrahlLNC7aibmDq4UdU7fp0T3JDCy0fVMlrOQw87pmZw8zlsT9W9J+yfBPklesGY0apabVTVRM01RomAAUilpitZm0xERxmZLTFazNpiIjjMysO61C/TXK1nqm8+wDutQv01ytZ6pvPsX9YitYisRERwiIKxFaxFYiIjhEQqAAAAAAAAAAAACLXLDsv+be1mLbL07HIZ3fj4G6OFZ391T5J+yYaIlXyu7NRtHsfmK4NOyzuU35jA3c8zEd1X5Y3/AC7kVEzhbvlKNe2HW83Mo8ewccOfSo1T9p+sd+lIL+z5tL+WaRmNCzN9+Nk/0uBvnjOFM8Y+S0/90OvIebEa7fZvafIanSZ7DCvuxax/FhzwtHzfbEJgYGLTHwaYuFaL4d6xato5pieMSwcZa4FfCjZLTM68n8VxflqY9G5r+vT+fq+wGI1cAAAAAAAAAAAAAAAAAAAAAAAAAAAAAAAAAAAAAAAAAAAAAAAAAAAAAAAAABgNv+8fXvMsb1JQ+TB2/wC8fXvMsb1JQ+SmA5Mui5ler3d8eDc+R795Gi/Hv/TslbHMilyPfvI0X49/6dkrY5ljHc5G5E55+u0fLHjLCbb95uu+Y43qSh0mLtv3m675jjepKHS9gOTKVzK5i7vjwAGe3YAAAAAAAAAAAAJ4gDz44c+GnoekcSeLz44c+GnoebFHI3PQI4j1WAAAAAA6ByKbPe7m2eDj41OyymnxGZvv5ptE9xHz8f8ATKUDnnIdoPuPsXhZrFp2OZ1G35Rbfz9hzUj5uP8AqdDQuKucO5PVDkmcmO45jqtE+jR6MfTb3gDHQAAAAAAAAAAAAAAADD7WbQZPZnQ8xqWft+jw43UpE91iXnmrHln2y9iJmdEK7duq7XFuiNMzqhZ7c7X6fshpc5nOz2zMX3xgZes91i2+6I6Z6EXtrNptS2p1O2d1TGm082HhV4Uwq+Csffzy89qtoM9tLrONqOo4nZYl53UpH6uHXorXyR/uxCYw+Hi1Gmdrq+Q8hW8m0RXXruTtnq+Ef9rAGS2AAAAAAAAB6YGNi5fGpjYGJfCxcO0Wpek7prMc0xKRfJHyjxtFh00nWb1rq9K9xic0Zmsf+UdMdPPHSjg9crmMbKZnCzGWxLYWPhWi9L0ndNbRzTCzesxdp0TtRWVsk2sp2eBXqqjZPVP464TbGn8mG2GHtds/XGxJrXUcvuw81hx8LotHkt6d8dCz5XNtI2U0PtWTvHurm4mmBHP2uOnEmPJ0eXqlDxaq4fA6XKacm4irF8S4Pp6dH77tGvcwHK9yle4/bdF0DFj3RmN2PmK8e0R8Gv8An9HXzR8ve2Je172m17Tvm0zvmZ8MmJe2LiWxMS1r3tM2ta075mZ55mXymbNmm1Toh1jJeS7OTbPk7e3pnpmf+2QALqTAAAAAAAAbFsZtbqeyWoxmdOxOywrTHbsvee4xY8vgnwTzwlDsdtPp+1ekUz2nX4x3OLg2/XwrfBn7p6UPGf2L2nzuymt4WfyNptT9XGwZndXFp01n7p6JYuIw0XY0xta5l7INvKNE3LUaLsd/wn7SmCpaYrWZtMREcZmWO0HWslrmjZfU8hixfLY1ey3zwms9MT4JieEvrutQv01ytZ6pvPsRExo1S5VXRVbqmiuNEwd1qF+muVrPVN59i/rEVrEViIiOERBWIrWIrEREcIiFXikAAAAAAAAAAAAAARR5WNnvzd2zzmDhU7HKZj/icDdzRW0zvj5Lb4+ZK5y3+0BoPuhsrh6phV34+nX32mI4zh23Rb5p7GfnZOEucC5o6JbHmvjuKY2KKp9GvVO/o79X1RxSa5C9f919jaZTGv2WZ063aJ3884fPSfm3x/pRldE5DNc9ydtsLLYlt2X1Cs5e2/m7PnpPz8P9SRxVvh25+Dec5MFxvA1aOVT6UfTb3aUnAEK5GAAAAAAAAAAAAAAAAAAAAAAAAAAAAAAAAAAAAAAAAAAAAAAAAAAAAAAAAAAwG3/ePr3mWN6kofJg7f8AePr3mWN6kofJTAcmXRcyvV7u+PBufI9+8jRfj3/p2StjmRS5Hv3kaL8e/wDTslbHMsY7nI3InPP12j5Y8ZYTbfvN13zHG9SUOkxdt+83XfMcb1JQ6XsByZSuZXMXd8eAAz27AAAAAAAAAAAAAABPEAefHDnw09D0jiTxefHDnw09DzYo5G56BHEeqwABldl9Kvrm0Wn6Zh79+Zxq0tMdFee0/JETLFOuf2ddH/Kdoc9quJXfTJ4Pa6T/AJ7/AP8AWJ+dbvV8CiamBlTF8Twly/0xGrfOqO9IHL4OHl8DDwcGsUwsOsUrWOaIiN0Q+wQLikzp1yAAAAAAAAAAAAAAAATO6N88yLfK9thbajaK2FlcSZ0vJzOHgRE8Lz/FifL0eSPK7Fy27TToOyV8tlr9jndQmcCkxPGtN3d2+bh/qRhSOCtf/pP0b9mfkuNE465Hwp+8/btAEi3wAAAAAAAAAAABtXJrtPbZXanLZy9rfkeJ+hzVY478Oend4YndPyeVa7dbRYu0+02c1HFme1Wt2GBSf4MOP1Y++fLMtfFHk6eFw+lixgrMYicVo9PRo0/AAVsoAAAAAAAAAAJ4E8HnxxJ8FPSKaqtGqNro3I1tXOl67TSs9jWrpGexIiYmeFMXmrbyRPCJ+SehJ2sRWsRWIiI4REIQRw5uCVnJJtLO0uyGXxMe/ZZ7K/8AD5jfzzMRwt8sbp696NxtnR/Ej6tAzuyXwJjG0dOqrf0T9uxugCPaMAAAAAAAAAAAAAALbU8nhajp2ZyWZr2WBmMO2FePJaN0+lcg9pqmmYmNsIV6vkMXS9UzeQzEbsbLYtsK3XWd294ZXHxMrmcHMYFpri4V4vS0dFonfEuk8v8Ao/uftlTPYdd2FqGDGJMx8Ovc2+zsZ+VzFPWq/KURU7ZgMTGNwtF72o17+nvTQ2f1LD1jRMjqODu7DM4NcXd4JmOMfJO+GQcu/s+at+W7H42QvbfiZDHmsRv5qX7qPt7J1FC3aOBXNLj+UsLxTFXLHVOrd0dwAtsIAAAAAAAAAAAAAAAAAAAAAAAAAAAAAAAAAAAAAAAAAAAAAAAAAAAAAAABgNv+8fXvMsb1JQ+TB2/7x9e8yxvUlD5KYDky6LmV6vd3x4Nz5Hv3kaL8e/8ATslbHMilyPfvI0X49/6dkrY5ljHc5G5E55+u0fLHjLCbb95uu+Y43qSh0mLtv3m675jjepKHS9gOTKVzK5i7vjwAGe3YAAAAAAAAAAAAAAAAJ4gDz44c+GnoekcSeLz44c+GnoebFHI3PQI4j1WJP8hmlRpuwWWxrV3YuexLZi3h3fq1+ysT8qMmXwb5jMYeDhRvxMS0UrHhmZ3QmjpGSpp2lZPJYW7teXwaYVeqsRH3MDH16KYpaZnnieBh7diP5p0/SP3ldgIxzgAAAAAAAAAAAAAABYa/qFdJ0TP6hibuxy2BfF49O6JmI+ciNOpVRRNdUU07ZRr5atdnWduc1hYd9+WyEfkuHu5t8frz9LfHyQ0J6Y+LfHx8TGxbTbExLTe0z0zM75ebYLdHApimHb8HhqcLYosU7KYiABUyQAAAAAAAAAAAAAAAAAAAAAAAAngTwefHEnwU9Ipqq0ao2nHEnwU9L0jgRwApp0a52jpnIJrs6Ztj+QYlt2X1Gna90zwjErvms+tHyuZrrTM5iadqOVzuBO7Fy+LXFpPlrO/7lF2jh0TSxcoYWMZhq7E/zR39HemsPDI5nDzmSy+awZ34WPh1xaT4YtG+PS90A4lMTE6JAB4AAAAAAAAAAAAAA5f/AGgtK/LdjcLPUrvxMhj1tM+Cl+5n7ex+ZG9Mra3TY1fZnU8hMb5zGXvSvxt3c/buQ2mJid0xumOeErga9NE09TpeZuJ8phKrM/yz3T++l1D+z3qn5JtljZG09xnsvasR4b07qPs7JI9DrYrUfcna3SM7v3VwszSbz/lmd1vsmUxYY+Op0VxV1oLPHD+TxdN6P5o74/bQAMJqIAAAAAAAAAAAAAAAAAAAAAAAAAAAAAAAAAAAAAAAAAAAAAAAAAAAAAAADAbf94+veZY3qSh8mDt/3j695ljepKHyUwHJl0XMr1e7vjwbnyPfvI0X49/6dkrY5kUuR795Gi/Hv/TslbHMsY7nI3InPP12j5Y8ZYTbfvN13zHG9SUOkxdt+83XfMcb1JQ6XsByZSuZXMXd8eAAz27AAAAAAAAAAAAAAAAAABPEAefHDnw09D0jiTxefHDnw09DzYo5G5t/JXp/ulygaLgzG+tMft1uqkTb7ktUdP7O2SjH2uzmbmN9cvlJ3T/mtaI9ESkWisbVpuaOpzPPC/5THRb9mmO/X+ABhtUAAAAAAAAAAAAAAHP+XTPzkuT3N4dZ3WzWLh4EdUz2U/ZWXQHHP7SWZ7DR9Gyu/wDaZi+Ju+LWI/8AJew9PCuUwlshWvLZQs0z16ezX9nAgE47IAAAAAAAAAAAAAAAAAAAAAAAAE8CeDz44k+CnpFNVWjVG044k+CnpekcCOAFNOjXO0AFQACV3I/n/dDk80i9p33wsOcC3k7C01j7IhuTlX9nXNTi7HZzAtP7HOW3dVqVn073VUFfp4NyqHF8sWvI469RHtT36wBaRoAAAAAAAAAAAAABKHm3On+5e2OsZOI3Vw81fsI3fwzO+v2TCYaM3L5kvyXlAxcaK7ozWXw8bfEc8xE0n1WbgatFcx1tvzNv8DF12vap74n/AOucwmVspnvdPZnS87v3zj5bDvafLNY3/bvQ0Sk5Ec5+V8nen1md9svbEwZ+S0zH2TC/j6dNESmc9LPCw1u71VaO2P2b4Ai3NwAAAAAAAAAAAAAAAAAAAAAAAAAAAAAAAAAAAAAAAAAAAAAAAAAAAAAAAGA2/wC8fXvMsb1JQ+TB2/7x9e8yxvUlD5KYDky6LmV6vd3x4Nz5Hv3kaL8e/wDTslbHMilyPfvI0X49/wCnZK2OZYx3ORuROefrtHyx4ywm2/ebrvmON6kodJi7b95uu+Y43qSh0vYDkylcyuYu748ABnt2AAAAAAAAAAAAAAAAAAAACeIA7b/ZzwpyeU1nO2pM4OJi4eDNumu6Jn/ydyrMWrE1mJieMTDmP9nzLVpsJjXmu/t+cxLTv6Yita/c3/utPv02ytp65pPsQeInTdqcdy/Xw8o3Z6p0dkaGQFKzFqxNZiYnjEwqsocAAAAAAAAAAAAAAcI/tKYm/O6FhfBw8a3zzWPud3cE/tJf820X/wCDE9aGThOdhsOa0f8A8nb+vhLjQCZdZAAAAAAAAAAAAAAAAAAAAAACeBPB58cSfBT0imqrRqjaccSfBT0vSOBHACmnRrnaACoAAAB3n+zXffp+u08GLhW+etvY7O4p/Zq/uuv/AB8H0XdrQuK52pyHOWNGU7v0/wD8wAMdBgAAAAAAAAAAAAADhH9pTK9jntDzcRPd4eLhTPVNZj1pd3ci/tH4HZbNaXmP/bzc0+lSfwsjCzouwnc2rnk8pWvjpjtiUfEhP7OOa7Zs1qeWmd/as3F4jwRakfhlHt2v+zXjzGZ13L7+FqYOJEdU2j70ji402pb7nTb4eTbk9Wie+HdQEM5KAAAAAAAAAAAAAAAAAAAAAAAAAAAAAAAAAAAAAAAAAAAAAAAAAAAAAAAAwG3/AHj695ljepKHyYO3/ePr3mWN6kofJTAcmXRcyvV7u+PBufI9+8jRfj3/AKdkrY5kUuR795Gi/Hv/AE7JWxzLGO5yNyJzz9do+WPGWE237zdd8xxvUlDpMXbfvN13zHG9SUOl7AcmUrmVzF3fHgAM9uwAAAAAAAAAAAAAAAAAAAACoJR8h+F2vk20yZjd2dsW/wD+y0fc3u0RasxaImJ4TEtR5I69jyc6HH/4bT897S29A3Z011b3E8qVcLG3p/VV4yx/daffptlbT1zSfYv6zFqxNZiYnjEwWiLVmLRExPCYlYd1p9+m2VtPXNJ9i2wWQFKzFqxNZiYnjEwqAAAAAAAAAAAAA4X/AGlcLdmNAxd3PXGrv6ppP3u6OQf2kMtN9n9JzO7hhZq2Hv8AjU3/APiyMLOi7Cdzar4GUrU747YlH4BNOugAAAAAAAAAAAAAAAAAAABPAng8+OJPgp6RTVVo1RtOOJPgp6XpHAjgBTTo1ztABUAAAAAA73/Zsw5jStbxN3C2Ph139VZn73ZXL/7PGV7TsRj408+PnL2+SK1r6Yl1BCYmdN2px7OCvh5RvTHXo7IiABYQwAAAAAAAAAAAAAA5t/aAwoxNgJtMfs83hWj/ALo+90loHLnTsuTjUJ3T3OJg2/8A2R7V2zzlO9JZGq4OPsz+qPFF51r+zji9jtVqWH0WyU2+a9fa5K6f/Z6tu26xo+FksT1qJfE81U6jl6nhZOvR8EkQEG44AAAAAAAAAAAAAAAAAAAAAAAAAAAAAAAAAAAAAAAAAAAAAAAAAAAAAAAAwG3/AHj695ljepKHyYO3/ePr3mWN6kofJTAcmXRcyvV7u+PBufI9+8jRfj3/AKdkrY5kUuR795Gi/Hv/AE7JWxzLGO5yNyJzz9do+WPGWE237zdd8xxvUlDpMXbfvN13zHG9SUOl7AcmUrmVzF3fHgAM9uwAAAAAAAAAAAAAAAAAAAArHOoqCWXJP+7vQv8A4P8AyltrUOSO3ZcnOhz/APhtHzXtDb0Bc5c73Eco+t3fmq8ZFLRFqzFoiYnhMSqKGGx/daffptlbT1zSfYv6zFqxNZiYnjEwWiLVmLRExPCYlYd1p9+m2VtPXNJ9gMgKVmLViazExPGJhUAAAAAAAAAABofLdkZzvJ3n7VjfbLWw8ePktun7LS3xY65kKapo2eyGJu7HM4F8Gd/+aswroq4NUVMrA3+L4m3e9mYnvQtH3jYV8HGxMLFia4lLTW0T0TE7pfCfdwidOsAAAAAAAAAAAAAAAAAAJ4E8HnxxJ8FPSKaqtGqNpxxJ8FPS9I4EcAKadGudoAKgAAAAAAF1pmTxNR1LK5LAjfi5jFrhV67TEfeTOjW8qqimJqnZCVHJNkfc/k90XCmN1r4Pb5/1zNvRMNueWTy9MrlMHL4UbsPCpXDrHgiI3R6Hq1+qrhVTLhuKvTfvV3Z/mmZ7ZAFKwAAAAAAAAAAAAAANF5bf3bar14X9Sremgcud+x5ONQjfPdYmDX/9kexcs85TvhIZJjTjrPzU+MIvOl/2ft/5+23f4PF3/PVzR0/+z1WbbdY0/ByWJ61ExiOaqdVy5qyfe+WUkQEG40AAAAAAAAAAAAAAAAAAAAAAAAAAAAAAAAAAAAAAAAAAAAAAAAAAAAAAAAwG3/ePr3mWN6kofJg7f94+veZY3qSh8lMByZdFzK9Xu748G58j37yNF+Pf+nZK2OZFLke/eRovx7/07JWxzLGO5yNyJzz9do+WPGWE237zdd8xxvUlDpMXbfvN13zHG9SUOl7AcmUrmVzF3fHgAM9uwAAAAAAAAAAAAAAAAAAAAACUnIfi9s5NtMiZ3zS2LT/9lp+9vjmP9nrMRi7C4uHv44OcxKzHg3xW33unIK/Gi5VvcYyzRwMfej9U986QBaRgpaItWYtETE8JiVQGP7rT79NsraeuaT7F/WYtWJrMTE8YmC0RasxaImJ4TErDutPv02ytp65pPsBkBSsxasTWYmJ4xMKgAAAAAAAAAAityx6NOj7e5/sadjgZuYzWHw4d1+t/3RZpCRP9oPQJz+zmX1fApvxshfdibo58K+6J+a2755R2TeGucO3HwdgzfxvHMDRVO2n0Z3x+2iQBfTQAAAAAAAAAAAAAATwJ4PPjiT4KekU1VaNUbTjiT4Kel6RwI4AU06Nc7QAVAAAAAAAADo3ITo06ntxhZq9d+Bp+HOPM9HZT3NY+eZn/AEucpMchGgTpOx0Z3GruzGpW7dO/njDjhSPTP+pjYu5wLc/FA5yY3imAr0bavRj67e7S6QAhnIwAAAAAAAAAAAAAAABzb+0Bixh7ATWZ/aZvCrH/AHT9zpLkf9o/H7HZnTMv/wC5m+z+jSfxL2HjTcpS2QaOHlGzHx09mtHt1r+zjhdltVqWJ0VyU1+e9fY5K7X/AGa8CZzOu5jdwrTBw4nrm0/clcVOi1U6TnHXwMm3Z+Ed8w7qAhHIAAAAAAAAAAAAAAAAAAAAAAAAAAAAAAAAAAAAAAAAAAAAAAAAAAAAAAAAGA2/7x9e8yxvUlD5MHb/ALx9e8yxvUlD5KYDky6LmV6vd3x4Nz5Hv3kaL8e/9OyVscyKXI9+8jRfj3/p2StjmWMdzkbkTnn67R8seMsJtv3m675jjepKHSYu2/ebrvmON6kodL2A5MpXMrmLu+PAAZ7dgAAAAAAAAAAAAAAAAAAAAAHeP7Nmai2Q1vKTPGmLh4sR8aJifVh2hHX+ztne0bXZzK2ndXMZSZiPDaton0TKRSGxcaLsuTZ02vJ5Srn2tE92jxgAYzXgABS0RasxaImJ4TEqgMf3Wn36bZW09c0n2L+sxasTWYmJ4xMFoi1Zi0RMTwmJWHdaffptlbT1zSfYDIClZi1YmsxMTxiYVAAAAAAAABb6hk8HUMjmMnmqRfAx8O2HiVnprMbpQ92p0XH2e1/O6Xmd83y+JNa23fr1562+WN0plOScvuyfuhpVNeyeHvzOSr2OPERxtg7+f/TM/NM+Bl4O7wK+DOyW05q5S4pifIVz6Ner69Hbs7EegEu6iAAAAAAAAAAAAE8CeDz44k+CnpFNVWjVG044k+CnpekcCOAFNOjXO0AFQAAAAAAAAADP7C7P4m020+S02kT2q9uzx7R/BhRxtPzcI8swl9gYVMDBw8LBpFMPDrFa1jmrERuiHNeQzZOdE2fnVM5h9jn9RiLRFo40wuesfL+tPyeB01D4u75SvRGyHKs6MpRjcV5OifQo1b56Z+30AGK1oAAAAAAAAAAAAAAAAcJ/tKZrss5oeUif1MPFxZjrmsR6su7I0cv2d/KdvrYMW3xlcth4W7fzTO+//lDKwcabsNlzTteUyjTV7MTPdo+7myQn9nDK9r2a1PMzG7tubikT4YrSPxSj2lJyIZP8k5OtPtMbrZi+JjT8t5iPsrDNxs6Lehtud93gZP4PtVRH3+zfAEQ5aAAAAAAAAAAAAAAAAAAAAAAAAAAAAAAAAAAAAAAAAAAAAAAAAAAAAAAAAwG3/ePr3mWN6kofJg7f94+veZY3qSh8lMByZdFzK9Xu748G58j37yNF+Pf+nZK2OZFLke/eRovx7/07JWxzLGO5yNyJzz9do+WPGWE237zdd8xxvUlDpMXbfvN13zHG9SUOl7AcmUrmVzF3fHgAM9uwAAAAAAAAAAAAAAAAAAAAADbeSrUPc3lA0bGmd1b43aLdV4mvpmEs0JMtjXy2YwsfCndiYV4vWfBMTvhNHSs5TUdMymdwv2eYwqYteq0RP3ozH0+lFTnueuH0XbV+OmJjs1/ddAMBo4AAAApaItWYtETE8JiVQGP7rT79NsraeuaT7F/WYtWJrMTE8YmC0RasxaImJ4TErDutPv02ytp65pPsBkBSsxasTWYmJ4xMKgAAAAAAPnFw6YuFfDxa1vh3ia2raN8TE88S+gNiKPKjshfZLaK+FhVtOm5nfiZW8+DppM+Gvo3S01MHbjZnK7V6Bj6fmt1cSe7wMXdvnCxI5rdXRMdMSiZrWl5vRdUzGn6hhThZnAt2N6z9kx4YnniUxhb/AJSnRO2HV83MsRlCx5O5P8Snb8Y6/wA/HesQGU2MAAAAAAAAJ4E8HnxxJ8FPSKaqtGqNpxxJ8FPS9I4EcAKadGudoAKgAAAAAAAAABv3JBsbO1Gvxj5vD36Vkpi+NvjhiW/hw/l558nXDVdmtEzm0Ws5fTdOp2WNjTzz+rSvTa3khLXZTQMps1oeX0zIR+jwo32vMd1iXnntPln2QxMXf8nTwY2y1jOXLMYGz5G1P8Srujr/AB+zLxERERHCIARDlgAAAAAAAAAAAAAAAAABKH232fjU9tNazdZ30vmrxWfDWs9jH2RCV202oxpOz2pZ+07vyfL3xI64rO6Pn3IZ2mbWm1pmbTO+ZnwpDAU65qb3mVh/Su35+EfefsJk7J5H3M2Y0rJbt1sDK4dLR5YrG/7d6J+xmnTq21ek5HdvrjZmkW+Lv32+yJTGjme4+rZSqz2v81Yj4z9o+4AjmhAAAAAAAAAAAAAAAAAAAAAAAAAAAAAAAAAAAAAAAAAAAAAAAAAAAAAAAAMBt/3j695ljepKHyYO3/ePr3mWN6kofJTAcmXRcyvV7u+PBufI9+8jRfj3/p2StjmRS5Hv3kaL8e/9OyVscyxjucjcic8/XaPljxlhNt+83XfMcb1JQ6TF237zdd8xxvUlDpewHJlK5lcxd3x4ADPbsAAAAAAAAAAAAAAAAAAAAAAJQ8h2qxqWwOVwrW34uSvbLW6onfX/ALbRHyIvOv8A9nTWPyfXdQ0nEt3GbwoxcOP89Of56zP0WLjKOFb09TXM6cLxjJ9VUbaJiftPdKQICHcoAAAAAAFLRFqzFoiYnhMSqAssLDxcpjdjhxbEy1p5umn+y9AAAAAAAAABz7la2DptXpv5Xka1rrGWr+jnm7dXn7CZ9E9E9boIqormieFSycJi7uDvU3rM6Jj/ALQhFjYWJg4t8LGpbDxKWmtqWjdNZjhMTHhfCRPLBycxreHiazomFEapSN+Ng14flFYjnj/PH29e5He1Zraa2iYmOExPQm7N6LtOmHXslZUtZSs+Ut6pjbHVP46pUAXUmAAAAAA+Jib23TwrH2vuOADyKdGsAHoAAAAAAAAAA98llcfO5vBy2Uwr42YxbRTDw6Rvm0zzRDzwcK+Ni0wsGlr4l7RWtKxvm0zzREeFJPkk5PKbM5auparSt9Zxa8I54y9Z/hj/ADT0z8kdO+zfvRap0ztROV8rWsmWeHVrqnZHX+3WynJdsRg7IaPvx4piarmIicxixx7HwUr5I+2ePgbsCFqqmueFLkWJxNzFXar12dNUgClYAAAAAAAAAAAAAAAAAAc05ftV/IdiPyOtt2Jn8euFu/y17q3orHyo1Op/2hNY/LdrMvp2Hbfh5DBjso3/APUv3U/Z2LliZwlHBtx8XWs2MLxfJ9GnbV6Xbs7tDqH9n3TPyzbTEztq76ZHL2tE+C9u5j7Jskg5Z/Z70n8j2Sx9QvXdiZ7Hmazu56U7mPt7J1NH4uvhXZ+DRM5sVxjKFejZT6PZt79IAxkAAAAAAAAAAAAAAAAAAAAAAAAAAAAAAAAAAAAAAAAAAAAAAAAAAAAAAAAAwG3/AHj695ljepKHyYO3/ePr3mWN6kofJTAcmXRcyvV7u+PBufI9+8jRfj3/AKdkrY5kUuR795Gi/Hv/AE7JWxzLGO5yNyJzz9do+WPGWE237zdd8xxvUlDpMXbfvN13zHG9SUOl7AcmUrmVzF3fHgAM9uwAAAAAAAAAAAAAAAAAAAAAAy+yWr30HaXTtTpv/wCHxq2tEdNOa0fLWZYgeTETGiVFy3Tdom3VsmNE/VN7BxKY2FTEwrRbDvEWraOaYnml9NA5Ete92dicvg4t+yzOQn8mvv5+xjjSfo8Pklv6ArpmiqaZ6HEcZhqsLfrsVbaZ0f8AbwBSxgAAAAAAAAAAAAAAAAAByPlc5M41eMXWdn8KK6jETbHy9Y3Rj/5q/wCf09fP1wV27lVurhUszAY+9gL0XrM6+6Y6pQhvW1L2res1tWd0xMbpiXykdyrcmeHtBGJquiUphavEb8TD5q5n2W8vT0+FHbNZfGyuYxMDM4V8LGw7TW9LxutWY54mEzZvU3Y0xtdayVlazlO1w7eqqNsdMft8XkAvJQAAAAAAAAAAAAAAAAemBg4mYxqYOBh3xMXEtFaUpG+bTPNEQ9Mhk8xqGcwcpksG+PmcW3Y0w6Rvm0pJ8l/Jvl9lsKmf1KKZjWb1/WjjXAif4a+GfDb5vLZv36bUa9qJyvlizky1wq9dU7I6/wBvitOSfk1w9nqYeq6zSuJq9q76YfPXLRPg8NvDPRzR4XUAQ1y5VcnhVOTY3G3sddm9enTM93wgAUMQAAAAAAAAAAAAAAAAAAeOczOFk8pj5nMWimDg0tiXtPRWI3zP2PZzbl5173L2OnI4Vt2Y1G/aY3c8Yccbz6I/1K7dHDqimOll4HC1YzEUWKf5p/8AvZCO+valiaxrWe1HH39szWNbFmPBvnhHyRuj5FrlsHEzOYwsDBrNsXEtFKVjpmZ3RDydB5END919uMDHxK78vp9ZzNt/N2UcKR887/kTldUW6JnqdkxV6jA4aq50UR4bI+yR2zmmU0bQchp2Fu7HLYNcPfHTMRxn5Z3yyIIGZ0zplxKuublU11bZ1gDxSAAAAAAAAAAAAAAAAAAAAAAAAAAAAAAAAAAAAAAAAAAAAAAAAAAAAAAAAwG3/ePr3mWN6kofJg7f94+veZY3qSh8lMByZdFzK9Xu748G58j37yNF+Pf+nZK2OZFLke/eRovx7/07JWxzLGO5yNyJzz9do+WPGWE237zdd8xxvUlDpMXbfvN13zHG9SUOl7AcmUrmVzF3fHgAM9uwAAAAAAAAAAAAAAAAAAAAAAADovIdtD7jbY0ymNfscrqMRgW3zwi/PSfn3x/qSbQhw72w71vh2mt6zExaJ3TEx0pd8nu0NNp9lMlqG+O3zXteYrH8OLXhb5+fqmEZjreiYrhz3PLJ/BrpxlEap1Tv6O7V9GxgMBo4AAAAAAAAAAAAAAAAAAAA0PlK5O8ntbgTmcv2GV1ild1MfdwxIjmrfw+SeePsb4KqK5onhUsjC4q7hLsXrNWiqELda0rO6LqONkdTy98vmcKd1qWj7YnpifDCxS8232O0za7T+0Z+nYZikT2nM0ju8KfvjwxKMe2Oyep7J6jOW1LC34dpntWPTjTFjwxPh8Mc8JexiYu6p2upZFy/ZylTwKvRuRtjr+MfjbHe18BktgAAAAAAAAAAAAGT2e0PUNoNTw8hpWXtjY9+forSOm1p6I8rK7DbF6ntfn+1ZKnasphz+mzV47jD8nlt5I+xJvZDZbTdldMrk9Mwt0zunFxrcb4tvDafu5oYuIxMWtUa5a7lvOC1k6Jt2/SudXVv/DE8nmwWQ2PyfZR2OZ1PEruxszNf+2ngr9s9PgbmCJqqmudNTl2JxN3FXJu3qtNUgClYAAAAAAAAAAAAAAAAAAAAEWuWbaH3e20zFcG/ZZTI/wDDYW6eEzE93Py23/JEO9cp20kbMbI5vN0vEZvEjtGWjp7ZaOf5I3z8iJczMzMzO+Z6ZSGBt65rlveZuT9NVWMrjZqj7z9u1RJfkI0D3J2OjPYtd2Y1K3bp388YccKR6Z/1OBbG6HibR7S5DTMPf2ONiR2y0fw0jjafmiUwsvg4eXwMPBwaRTCw6xSlY5qxEbohXjrmiIojpZOeWP4FqnCUzrq1zujZ2z4PQBGOdgAAAAAAAAAAAAAAAAAAAAAAAAAAAAAAAAAAAAAAAAAAAAAAAAAAAAAAAAAMBt/3j695ljepKHyYO3/ePr3mWN6kofJTAcmXRcyvV7u+PBufI9+8jRfj3/p2StjmRS5Hv3kaL8e/9OyVscyxjucjcic8/XaPljxlhNt+83XfMcb1JQ6TF237zdd8xxvUlDpewHJlK5lcxd3x4ADPbsAAAAAAAAD5tiVrz2h89up4fsNMKZuUxtl6D5riVtzWh9D2JidgD5m9YndNo3j2ZiNq2xpnttlcCZ7ZD5xZicS0xzK4MxXEiZ4QtdKNif4un4rsfPZ1+FD6XUjExOwAHoPi2LSOnf1Pj8or4JeaYW5u0Rtl7DzrjUnp3db0e6dKumqKtkjp/IRtR7kbR20rNYm7J6jurXfPCuNH6s/L+r8zmD5jMRhXrel5i9Z3xNeeJ8Ki7RFdM0yxMoYW3i8PVYu7Ko7+ifonENB5Pdv8HaHZvL4+NS053CjtWZiN368R+tu8E8/z+BtmBrOUxZiLWthz/nj2IGqmaZ0S4tfs12LlVqvbE6GSFK2resWrMWrPNMTviVXi0NR1a9/dHH7q363hbc07Vv8AmWY+MC40C9p1KkTa26Ynp8jaWqaB/wAzw+qfQ2sAeeNj4WBETjYlaRPN2U7t7y/L8p/iML6QLkfOHeuJSL0tFqzzTE86mNjYeDWLYt60rM7t9p3A+wiYtETE74njEwAAADzw8fCxL2ph4lLXrzxE8YMbGw8GInFxK0ieEdlO4HoC0x9RymDO6+NXf4K8fQC7GPjWMlM7u2zHXWV7g42HjU7LCvW9fDEg+2D2ntav5N2Npj9bmnqZxgdqf/S/6vuBnb/qW6mrZXSclr2k5zIatgVzOWxJjub9E8eMT0T5YbU88DFwcWJnAvS0Rz9jJE6NcKqK6qKoqpnRMIw8o/Jxntk8W2ayvZ5vSLTwx4jusLyXj7+afJzNBTZzN8vaPyfMzh2jFjse13jfFonhu3dLhvKbyTWysY2qbLYdr4Eb7YuRjjanhnD8Mf5efwb+ZJ4fF6fRudroeQ86Kb2ixjZ0VdFXRO/qnucYHzbErWZiZ4w+YxqT0s7TDcvKUdb0CJiY3xxHqsFLWrX9adz47dTwz8xphTNdNO2XoPmt625pfQ9iYnXCl/1Z6nnlv1J63qrhVnFvWmFE3taexitY3zM+CIedOlTVT6UVaVG77H8nmd1vCwNQ1GuJldJtbubc18f4vk/zfM3bk45Lsvlr4Wo7Y9rribovhafeY4eCcT8Pz+B1PX8bL4mXwKZe+HaKzzUnmjcwMRi/5bfa0nLudFNMTh8FOmemr8flktE0/KaXpeWymn4GHgZfDpEVpSN0c3P5Z8q+WeBnsrGDhxOYwomKx/F5HthZrL41+xwsbDvbwRZG7XP6qpqmaqp0zL2AHgPLHzGFgV342JWkeWedaTrGSif2sz/pkGQFvl89lsxO7CxqzbwTwn5pXAAAA+cTEphUm2JatKx02ncsravkqzu7bv6qyC/Fng6nk8ad1casT4LcPSvAYXZm1rYeY7KZnjHPPWzGNiVwcK+Jed1axvlhdl/2eY66/eymoYVsbJY2HT9aa8I8MgsL5nHtb9LiYuF3PZxTBwuy7GJ5uylc5TM37Zh4eNeuJXFr2WFi1jd2XhiY8K2mls/iY2Lg4l8OZwq13Rbd3XHfFo533gWjGxsnhYeH2HaIm2JETvik7t0RvBlAAAAAAAaZyrbVRststi4mDeI1DNb8HLR0xaY43/0xx69yqmmapimF/DYevE3abNuNdU6HGeXDaf3c2pnI5bE7LI6dvwq7p4WxP47fZ2PyeVzhWZm0zMzMzPGZll9ktDx9o9ocnpeW3xONfu77v1KRxtb5I3pyimLVGjoh2bDWbWTsLFuJ0U0Rrnxn7uzf2etmvyXTczr+Zpuxc1vwcvv6MOJ7qfltG7/S7Et9OyeBp+Qy+TymHGHl8DDjDw6x0ViN0LhC3bk3K5qlyDKWNqx2JrxFXTs+EdAAtsEAAAAAAAAAAAAAAAAAAAAAAAAAAAAAAAAAAAAAAAAAAAAAAAAAAAAAAAAABgNv+8fXvMsb1JQ+TB2/7x9e8yxvUlD5KYDky6LmV6vd3x4Nz5Hv3kaL8e/9OyVscyKXI9+8jRfj3/p2StjmWMdzkbkTnn67R8seMsJtv3m675jjepKHSYu2/ebrvmON6kodL2A5MpXMrmLu+PAAZ7dgAAAAABb42LMzNa8z3tO6sz5FkprnQxcTcmmIpgV7C3wZ+Z7Zasbpnpe6mKdMLdvD8OnhTKxe2DizExW08H1mMPf3VY49O54dhb4Nvmea6ZUcGuzXqXq0xYntluHSuq7+xjfz7lVyY0sy5b8rEQsR9437WyuX/awtaNehH8D0+C+KxPZRw6V6C7EaEhateT061LTFYmZ5lriYk3nwR4H1mL77djHNDyUVVdDGxF2ZngxsBWsTad0Rvl6dovu6FMRMrFNFVWyHxh17O0Qu+FK+CIeeBSaxPZRxfGZvx7GOjnVx6MaWVRHkbfCna+cXFm87o4VeYREzO6I3yo06WJVVNc6ZbRyebSTs5r1MTFtP5Fj7sPMR4I6LfJP2b0iaWrelbUmLVtG+Jid8TCKcYF93Q7HyQ7TTmsr7iZ+//EYFd+Xtaf18OP4euPR1MPF2Z0cOGqZzZKqqp45RTrjbu6/p4bnVMjnsbJ334dt9Omk80tryeZw83gRiYU8OaY6YnwNKZDRc3OWzlYmf0eJ3NvulHtGbY07Vv+ZZj4zcWnat/wAyzHxge2gf8zw+qfQ2q9opWbWmIrEb5mehqugf8zw+qfQvdoc9/wClw58uJPogGM1PNznM1a/HsI4UjwQ+Mjlr5vMVwqdPGZ8EeF4VrNrRWsTMzO6Iht2k5KMnl907pxbcbz9wLrAwqYGFTDw43VrG6GK2m/umF8f7pZhh9pv7phfH+6QZPKf3TB+JX0PV5ZT+6YPxK+h6gAAwWif82zn+r1n3tP8AsMD40+h8aJ/zbOf6vWfe0/7DA+NPoB5ZzN4+oY8ZTJzup/HaOnw/Iu8tomWw6x22LYtumZndHzQroGWjByUYkx3eLxnq6GTBZX0rJWjd2iI8sTMMRnMpjaTi1zGWvM4W/dO/0T4YbI8s3hRj5bFwp/irMfKBlMeuZy9MWnNaObwT4GG2p/8AS/6vueuzGJNsvjYc/wANon5//wDHltT/AOl/1fcDO4n7O3VLCbL/ALPMddfvZvE/Z26pYTZf9nmOuv3gprsxXUcnMzuiJiZmet8YuJj6xmbYWBM0ytOefD5Z9im0/wDeMD4s+ll9Ly0ZXJYdN3dTHZW65BzPlC5I8lrWDfPaLuwNWiN9otO6mP1+C3l+fwo9ajpmNp+cxcpnsviZfM4Vuxvh3jdNZTbalt/sNp22GRmMaIwNQw67sHNVr3VfJb4VfJ8zMw+J4Ho17G2ZDzinC6LGK9Kjr6Y/Md8dHUiH3WDfw1l64uJ2NY3cZnmZja7ZzUdm8/iZHVcCcPEr3VLxxpiV+FWemP8A7LBYEdlffPNVJROnk9LoFFyJiPIzppq2S+qYO/usSZ3z0PTtVPgw+xXEQyqbVNPQ8cTBjdvpwnwK4GJNo7G3PD1ZLZbZvP7R65hZPT6botaO2Y1v1MKJndvmfu55U1TFHpTsWL9dGFjy1U6KY2rfTdNzmrZuuT07L3zGYvE7qUjo6ZnwRHhSE5H+T7JaBl5z+erTNatFt0Ykxvrg8Oanl/zehs+yWxumbIaLj4ORp2zM3w57dmbx3eJO77I8Eelk9mf7pi/H+6EXiMVNydFOxznLucdeOqm1h/Ro75/EfDt6l3nNNwM3ixiYvZ9lu3dzLDa1p+Dk8LDtgzffaZieyne2Zhdp/wBhgfGn0MRqz7wtFytsKlpnE3zWJ/W/2XOU0vL5XGjFw+zm0RujfK7y/wDd8L4seh9gMfq+oRk6RTD44944R4PKv72ilLWtwrWN8sBpGHOf1DFzeNG+KzvrE+Ho+YH3lNIvmJ7fqF7Ta3Hsd/H5fYyEaXkoru7RX5ZlegMPm9DwrVm2VtOHeOaJnfE/e+NJz+LTH/I87v7OJ3Vm3Pv8Es2wm0mXjsMPM04XrPYzMfYDNvLNY9MtgXxcSe5rHz+QyeL2/K4WLPPasTPWw+0WJbFx8vlKc9p3zHlnhH3g8cDAx9Yxpxse00wIndER6I9rK4elZOkbu0xby2mZXWXwq4GBTCpG6tY3PQGNx9GymJWewrbDt4az90rLAx8fSczXAzM9nl7fq28EeGPYz611LKxm8pfD3d3HGs+CQY3Zf9nmOuv3s4wey/7PMddfvZwFvjZLL415viYVZtPPPNM/M9cLCw8GkUwqVpXwRG59gAAAAAAPjGxaYODfFxb1ph0rNrWtO6KxHGZlE/lM2qvtZtNjZqk2jI4P6LK0nopE/rbvDaePzR0OncvW2f5Nlvzb0/E/T41YtnLVn9Wk81OueefJ1uCJPBWdEeUl0XNLJPkqOO3Y11cnd1/Xw3iRfINsn7laJbWs5h7s5n6x2qJjjTB54+lPHqiHJuS3ZK+1e0uHhYtZ9zstuxc1bw138Kddp4dW+ehK3DpXDpWlKxWtY3RERuiI8Bjb2iPJwozvyrwKIwNudc66t3RH12//AFUBGOegAAAAAAAAAAAAAAAAAAAAAAAAAAAAAAAAAAAAAAAAAAAAAAAAAAAAAAAAAAAMBt/3j695ljepKHyYO3/ePr3mWN6kofJTAcmXRcyvV7u+PBufI9+8jRfj3/p2StjmRS5Hv3kaL8e/9OyVscyxjucjcic8/XaPljxlhNt+83XfMcb1JQ6TF237zdd8xxvUlDpewHJlK5lcxd3x4ADPbsAAAAAATG+NyyvWaWmJXqlqxaN1oeVRpWb1rykfFaUvNJ31esZiOmvzFsD4M/O87YV456/Mo9KGLHlbWqFxXFpbmn532sXphYs0ndPGr2K+tdoxWvRUug5xWy1pjftbK5f9rCmN+1srl/2sLXSjY536roBdSSytO+0z4VCeEiyiJXeDSK0jwzzvt84c9lSJh9L0bErRERTGgWV533tPlXtp3RMz0LFRWxsXOyBdYFexpE9MrVe14ViPI8oUYWnTVMqvbJ5nGyeawczlsScPHwrRel46Jh4kzujfPMuTGmNEsyumKqZpq2SkvsJnfzs0LDz2Wtg1xqz2GPhdlxw7+yeeGxe4eb8OF9KfYjRyf7Z42yOvYecwezxMrfdTM4Mf9Snk/wA0c8T7Uo9O2n0zUclg5vKYtsTAxqxalorzwhcRZ8lVq2OSZeyT/wCff029durZ8Ph/3QzOF2UYdOz/AF90b93hahq3/Msx8ZuFLRelbRzWjfDT9W/5lmPjMdBPHLY98tjRi4UxF48Mb3xe1r3m1p32md8zPS9cnl75rHrhYcxFp38Z5nni4dsLEtS8brVndMAzmz2Rjd+VYkRPRSPvZ1rOg57tGN2jEn9FeeE+CWzAMPtN/dML4/3SzDD7Tf3TC+P90gyeU/umD8Svoeryyn90wfiV9D1AABgtE/5tnP8AV6z72n/YYHxp9D40T/m2c/1es+9p/wBhgfGn0Ay2WiIy2FEc0Uj0PR8Zf+74XxY9D7AABgtnY3ZnNx4Jj0yptT/6X/V9z62f/vec649Mvnan/wBL/q+4GdxP2duqWE2X/Z5jrr97N4n7O3VLCbL/ALPMddfvB87QxE57KxPNPtZ5gdoP7/lP/vSzwAAMHtjs5p202i42T1TBi9YrNsPEjhfCtu/WrPR96Ku02yue2ZzdqZms4mVvbdg5isdzfyeSfImHmP7vi/Fn0NZymkZLXNFzuQ1PArj5bFmImtuid3CYnomPCyLF+bU/BO5Fy3cybciKtdvpjq+Mf9rRIG5co2wmd2P1Df3WY0zFtPaMzu/7beC3p6PBF3yY8nua2tzcZnNdnl9HwrfpMXdunFmP4KffPR1pab1EUcPTqdOqyphacNxvh+h1/bf8Flye7C5/bDPfo4nL6bh23Y+amOEf5a+G3o6Xf6aHp+ztMhkdJwK4ODTdMzz2vbf+taemWz6Xp+V0vIYOS0/ApgZbBr2NMOkcIj2+Vi9oP7/lP/vSib+Iquz8HMMs5cu5Tr0bLcbI+8/HwZnN/wB0xviW9DGbM/3TF+P90Mnm/wC6Y3xLehjNmf7pi/H+6GOg2YYXaf8AYYHxp9DNMLtP+wwPjT6AZfL/AN3wvix6H2+Mv/d8L4seh9gs9Yv2GmY8x8Hd887mI0nU8vk8rOHiUxJtNptM1iN3pZXXP+VY/wDp9aHlouBg30zBtfCw7W7rfM1iZ55B8e72V/8Abxvmj2nu9lf/AG8b5o9rI/k2B/7OF9CD8mwP/ZwvoQDHe72V/wDbxvmj2rXU9Wy+ayWJg0pixa27dNojdz9bN/k2B/7OF9CD8mwP/ZwvoQC20Od+l4G/y+tLH2jtu08RPNX7q+1na1rSsVrEVrHNERuYLC757/L6oM8AAADB7L/s8x11+9nGD2X/AGeY66/ezgAAAAAADV+UPazL7I7P4mcv2N83ib8PLYMz+vfwz5I55+bpZzWNSyuj6ZmM/qGLGFlsCvZ3tPojwzPNEInbebU5ra3XsXPZjfTAr3GXwd++MKng6555nw/IycNY8rVr2Q2HN/I05RvcKuP4dO34/D8/D6MJns3j5/O4+bzeLbFzGNecTEvbntaZ3zKmSyuPns3g5XKYdsXMY14ph0rz2tM7oh4O+chOxH5Jl67R6nhbsxjV3ZOlo40pPPfrno8nWlLtyLVGl0bKmULeTMNN2d0R1z0R/wB0N+5PdlsHZPZzByNOxvmr/pMzix/HiTz/ACRzR1eVswIOqqap0y47fv14i5VduTpqnXIA8WgAAAAAAAAAAAAAAAAAAAAAAAAAAAAAAAAAAAAAAAAAAAAAAAAAAAAAAAAAAAGA2/7x9e8yxvUlD5MHb/vH17zLG9SUPkpgOTLouZXq93fHg3Pke/eRovx7/wBOyVscyKXI9+8jRfj3/p2StjmWMdzkbkTnn67R8seMsJtv3m675jjepKHSYu2/ebrvmON6kodL2A5MpXMrmLu+PAAZ7dgAAAAAHziWmlJmHj+UW8EPe0dlWYnpWdqzW0xKiqZhi4iqumYmJ1LvDt2VIl9LPDxLU5ubwPX8o/y/a9iqOlVRiaZj0tquYrHY9l0rd9YmJN+fm8Claza0RCiZ0zqYt2qK69NK6wf2dX2VjdERHQLsJGmNERC0xv2tlcD9rBmI3Ym/wvOJmJ3xzrWyUbVPAuaZ618LeuPabRExG5cLkTpSFFymvYtcevY4k+CeLzXmJSL13dPQtLVms7p51FUaGDftzRVp6JfWHiTSeHGPA9fyiu7mnetx5FUwpovV0RoiX3iYs34c0eB8BETM7ojfLzaomqa50y+sKvZXiOjpXWJbsKzKmFh9hXyzzvLMX3z2Mc0K+TDMpjyNuZnbL6/KK7uad7zxMWb8OaHmKZqmWPVfrqjRMjfeSva73D1TDyOpYk+5GPeOztPHtM/CjyeH52hREzO6Odd4OH2Ecf1pUzbi5HBlj3cDRjqJs3Y9Gf8AtXxThwr0xMOt8O1bUtETW1Z3xMdEw1DVv+ZZj4zl/I1yi+5l8LQtcxv+BtPY5bHvP7Gfg2n4M9E9HVzdQ1Wd+o48x8JE3bU2quDLmOVMmXcm3ptXNnRPXH/bXtoH/M8Pqn0MltBke2U/KcKO7rHdx4Y8LG6B/wAzw+qfQ2uYiY3TxhaRrQ20aHnvynA7ViT+lw4+lHhYfWMl+R5nfSP0N+NfJ5Fplsa+XxqYuHO61Z39YN3YvaOk207fH8N4n0x96+ymYpmsvXFw+aeePBPgVzeDGYy2JhT/ABRu3+CegHlpd4xNOy8x8CI+bgumA0PN/k2JfJ5nuJ7Lud/RPgZ8Amd0b55hh9Zz8dhOVy09ni37m3Y8d0eDrB4aBeMTUs1eOa0TMfO9dp/2GB8afQ8NnaWws/mMO/61azWeuJe+0/7DA+NPoBl8v/d8L4seh9vjL/3fC+LHofYAAMHs/wD3vOdcemXztT/6X/V9z62f/vec649Mvnan/wBL/q+4GdxP2duqWE2X/Z5jrr97N4n7O3VLCbL/ALPMddfvB87Qf3/Kf/elnmB2g/v+U/8AvSzwAAPjMf3fF+LPoYjZj9hj/Gj0MvmP7vi/Fn0MRsx+wx/jR6AZDVNPyuq5DGyWoYFMfK41exvh3jhMfdPlfeRymXyGUwcrk8GmDl8GsUw8OkborEdD3HunoVcOrg8DTq26OgYHaD+/5T/70s8wO0H9/wAp/wDel4pZnN/3TG+Jb0MZsz/dMX4/3Qyeb/umN8S3oYzZn+6Yvx/ugGYYXaf9hgfGn0M0xW0mHN8jW8R+peJnq5vYDJZf+74XxY9D7Wul41cfI4NqzvmKxW3XC6B4Z7C7fk8bDjntWd3X0Mds3j9ll8TAt+tSd8R5J/3ZhgdTwMTIZyM7lo7iZ7qPBPT8kgzwt8jnMLOYUWw7d1/FWeeFwADG5nVsLDzFMHBrONaZ3W7Gebq8IMkwGoT+Ta/g408K33TM/ZLPsdrmTnNZXssON+Lh8Yjwx0wDIjGaLqFcxg1wsS27HrG7j/FHhZMAmYiJmZ3RAwur6hGLH5Jk57O957G019EA+dl/2eY66/ezjB7L/s8x11+9nAAAAAHzi4lMLCviYt60w6RNrWtO6IiOeZl9TMREzM7ohHvlk5RfdbExND0PG/8A4+k7sxj0n9vMfwxPwI+3q57tm1N2rRCSyXky7lK9Fq3s6Z6o/wC2Qw/K3t7fanUfyLT72ro2Wt3HR2+3w58ngj5elzsbLsDsnm9rtbpk8vvw8tTdfMY+7hh09s9EfdEpmmmmzR8IdatWsPkvC8GPRopj/p3y2Dkg2GttPqv5dqGHPuPlbR2e/wD61+eKR5OmfJw6UmqVilYrWIisRuiIjdELPRdLymjaZl9P0/CjCy2BXsaVj0z4ZnnmV6iL96btWnocqyzlWvKd/wApOqmOTHw/M9IAsIgAAAAAAAAAAAAAAAAAAAAAAAAAAAAAAAAAAAAAAAAAAAAAAAAAAAAAAAAAAAAABgNv+8fXvMsb1JQ+TB2/7x9e8yxvUlD5KYDky6LmV6vd3x4Nz5Hv3kaL8e/9OyVscyKXI9+8jRfj3/p2StjmWMdzkbkTnn67R8seMsJtv3m675jjepKHSYu2/ebrvmON6kodL2A5MpXMrmLu+PAAZ7dgAAAAABS9YvG60KgTETql4Wy8/wAM/O+e0X8i5FPBhYnDUSt65ef4rfM9qUrSO5h9D2IiFdFqmjZAA9XFL0i8bpeE4FuiYlcDyaYlbrtU165W9cC2/jMQuAIjQ9ot00bBS1YtG60Kj1XMROqXhbL/AAZ+d8dov5F0KeDCxOGolb1y8/xT8z2pStI4Q+h7ERCui1TRsgeFsD4M/O9wmIl7Xbpr5S17RfyPquBP8UxHUuB5wIW4w1EPmlK05o+V9AqXoiIjRA6pyX7aRbMYWj6/m+wwrbqZfNYnHsOiKXnweCejmnhzcrFu7apu06KmDlHJ1nKNmbN6N09MT1pladpE5TNVxpxovuieEV3Ms4ByUcqNtO7To+0eLNslwpgZq075wfBW/hr5ejq5u/UvXEpW9LRato3xMTviY8KGu2qrU6KnJcp5LvZNu+Tuxq6J6J/7qeOdy1M3l7YV+G/mnwT4WH/N+3+Ir9D/AHZ8Wkcx+laffI9sicbs623dzu3bp8LIACw1LTMLO91v7DFj+KI5+tj65PVsCOxwsbsq9Hdb/Sz4DAzkdUzHDHzHY16Y7L7oX+n6Zg5Puv18X4c9HVC/AWGTyN8DUMxmJtWa4m/dEc8cd5q+RvncPDrh2rWazv7pfgPnDr2GHWu/f2MRD6AAAGP0zIXymNmL3vW0Yk8N3XKmsaffPdp7C9a9hv37/Lu9jIgKWjfWY8MLDSMjfI0xYvetpvMczIAMfqOnzm8xg4kYkV7X0bt+/iyAAAA+cSvZ4dq793ZRMLLSMjfJYWJXEvW02nfwX4AAAx2paffN5jAxKXrWKc8T1siA+ManbMHEpv3dlWY3rTSMlfJYF6XtW02tv4dS+AHzi4dcXDth4kb62jdMPoBgJ0vO5TEtbI42+s9G/dPyxzLnI4WpxmqWzOJHao39lG+OPDyMsAKWiLVmtoiYnhMSqAw2a0X9J2zJYs4VufsZmd0dUvLtOs14Rib48PZRPpZ4BgZ03UczwzOZ3U6Y7KZ+zmZLIadg5ON9I7LE6b25/k8C8AAAYvUNIw8xecXBt2rFnjPgmfuWsZbWMLuaY3ZRHT2UT6WeAYGdP1LM8MzmOxp0x2W/7I4MlkNOwcnG+kdliTz3nn/2XgDH6Rkb5GuLF71t2cxu3MgAAABM7o4qYl64dLXxLRWlY3zaZ3REeFwDlY5UJ1Ltuj7OY01yPGuPmqzunG8Na+Cvl6ernu2rVV2dFKSyZku9lK75O1Grpnoj/uiHvyv8pn5X27Qtncb/AIbjTM5qk/tPDSk/B8M9PNzc/GBktntFz20GrYGn6ZgziZjFn/TSOm1p6IhMW7dNmnRDrGCwWHyXh+BRqiNczPT8Zeuy2z+e2l1jB07TcPssW/G15/Vw69NrT4ISt2O2ZyOyujYWn6fXfu7rFxZjusW/Tafujoha7BbH5LZDSIy2V/SZnE3WzGYmN1sS33Vjoj72zIzE4jys6I2Oc5wZdqyjX5K1qtx3/GftAAxWtgAAAAAAAAAAAAAAAAAAAAAAAAAAAAAAAAAAAAAAAAAAAAAAAAAAAAAAAAAAAAAAAMBt/wB4+veZY3qSh8mDt/3j695ljepKHyUwHJl0XMr1e7vjwbnyPfvI0X49/wCnZK2OZFLke/eRovx7/wBOyVscyxjucjcic8/XaPljxlhNt+83XfMcb1JQ6TF237zdd8xxvUlDpewHJlK5lcxd3x4ADPbsAAAAAAAAAAAAAAAAAAAAAAAAAAAAAAAAOl8mPKbmdmrYenatN8zo8zur03y/lr4a/wCX5vBPNBRct03I4NTFxmCs421Nm/Tpie74wmxp2eyupZLCzeQx8PMZbFr2VMTDnfEwuESthNuNT2QzvZZW3b8jed+NlLz3NvLHwbeX596S2yG1el7V6fGZ0vG33rEdtwL8MTCnwTH3xwlEX8PVanT0OW5YyDfybVwo9K30T+erwlnwGOgQAAAAAAAAAAAAAAAAAAAAAAAAAAAAAAAAAAAAAAAAAAABb6jnstpuSxc3nsfDwMthV7K+Jed0RDE7X7VaXsrp05rVMeItMT2rBpxxMWfBWPv5oRp28241Pa/OdlmrdoyNJ34OUpPc18s/Ct5fm3Mixh6rs/BPZHyDfylVwuTb6Z/HX4Qz/Kdym5naW2Jp2kziZbR4ndbovmPLbwV/y/P4I5oNh2L2S1La3Uoy2nYfY4Vd042YvHcYUeXwz4I6ftS1NNFmnVqh02zYwuS8Pop0U0U7Z+89crTZnQNQ2k1XCyGl4M4mLbja08K4dem1p6IhKPYLY7IbIaVGXysRi5rEiJzGZtG62JP3Vjoj71zsdstp2ymlVyem4fdTunFxrR3eLbwzPojmhnkXiMTN3VGxznL2cFeUavJWtVuO/wCM/aABitaAAAAAAAAAAAAAAAAAAAAAAAAAAAAAAAAAAAAAAAAAAAAAAAAAAAAAAAAAAAAAAAAAAYDb/vH17zLG9SUPkwdv+8fXvMsb1JQ+SmA5Mui5ler3d8eDc+R795Gi/Hv/AE7JWxzIpcj37yNF+Pf+nZK2OZYx3ORuROefrtHyx4ywm2/ebrvmON6kodJi7b95uu+Y43qSh0vYDkylcyuYu748ABnt2AAAAAAAAAAAAAAAAAAAAAAAAAAAAAAAAAAF7o+qZ3Rs/h53TMziZbM4f6t6T9k+GPJKyCYidUqaqKa6ZpqjTEpHcnvKzkdb7Vkdd7XkdRndWuJv3YWNPkn+GfJPDwT0OpIPuibBcqWq7Nxh5TPdlqGl14Rh3t+kw4/yWno8k8OpHXsF/Nb7GjZXzS06buB/t/E/ae1JwYXZfajSdp8n+UaRmq4u6O7wp7nEw/jV546+ZmkfMTE6JaJdtV2apouRomOiQB4tgAAAAAAAAAAAAAAAAAAAAAAAAAAAAAAAAAAAAMPtNtLpWzWSnM6vmqYNZ/Uw443xJ8Fa88+h7ETM6IV27Vd2qKLcaZnohmHMOULlXyGhRi5HRJw89qcb6zeJ34WDPlmP1p8kfLPQ5rt7yqaptF2zKab2enaZbhNK2/SYsf5rRzR5I+1zhIWMF/Nc7G95IzS0aLuO/t/M/aO3oX2s6rnta1DEzuqZnEzOZxOe956PBEdEeSFi+8LDvi4lcPCpa+JaYrWtY3zMz0RDtXJzyQWtOHqO1lOxrwth5Dfxny4k/wDjHy+BmXLlFmnW2vG5Qw2TLPCuTojoiNs/CI/6GncnPJzn9rMauZzHZ5TSKz3WPMd1ieGKR09fNHl5klNC0fI6FpuFkNLy9MDLYccIjnmemZnpmfDK9wcLDwcKmHg0rh4dIita1jdFYjmiI6H2ib1+q7OvY5flfLV/KdfpaqI2U/nrkAWEMAAAAAAAAAAAAAAAAAAAAAAAAAAAAAAAAAAAAAAAAAAAAAAAAAAAAAAAAAAAAAAAAAAAAwG3/ePr3mWN6kofJg7f94+veZY3qSh8lMByZdFzK9Xu748G58j37yNF+Pf+nZK2OZFLke/eRovx7/07JWxzLGO5yNyJzz9do+WPGWE237zdd8xxvUlDpMXbfvN13zHG9SUOl7AcmUrmVzF3fHgAM9uwAAAAAAAAAAAAAAAAAAAAAAAAAAAAAAAAAAE8FK2i0b4DT0KgAutNz+b0zOYea0/MYuWzGHO+uJh27GY/++B2bYrlp/Z5XavB8kZ3Ar9t6R6a/M4eLVyzRdj0oR2UMlYbKFPBv06+iemPr/0JraZqOT1TKUzWnZnCzOXvzYmFaLR//vkXSGeg69qmgZuMzpGdxsridPYT3NvJas8J+V2XZDlry+NFMvtPlvyfE5vyrLxM0ny2pzx8m/qR13B10a6dcNByjmnicNprw/p09/Z0/TsdnFnpWqZHVspXM6Zm8HNYE/x4V4tHVPgnySvGHMaGrVUzRPBqjRMAApAAAAAAAAAeeYx6YFItidl2O/dviN+4HoKVmLViazExPGJhUAAAAAAAAAAAAAAAAAFrqWo5PTMrbM6jmsHLYFefExbxWPtNr2mmap4NMaZXS21HP5TTcpfNZ/MYWWy9I32xMW0VrHyy5Ltfy15TLRfL7M5ac3i835TjxNcOPLFee3y7nGNodotV2hzX5RrGdxczaJ7mtp3Up8WscI+Rl2sHXXrq1Q2nJ2amKxOiu/6FPf2dH17HXttuWmlO2ZXZTC7O3NOdx68I8tKTz9c/M4tqeo5zVc5fN6jmcXM5i/62JiW3z1eSPItHtk8rj53M4eXymDiY+PiT2NMPDrNrWnyRCSt2aLUei37AZLwuTaP4NOjrmdv1n/oeLYNkdktW2qznadKy8zh1ndiY9+GHh9c/dHF0rYXkZxMWcPObV3nDw+FoyWFbup+PaObqjj5Ydt07I5XTcph5XIZfCy+Xw43Vw8OvYxDHvYymnVRrlA5Wzss4fTawnp1dfRH58Pi1LYHk70rZPDrjRWM3qcxutmsSv6vkpH8Mfb5W7AjK65rnTVLnmJxV3FXJu3quFVIApWAAAAAAAAAAAAAAAAAAAAAAAAAAAAAAAAAAAAAAAAAAAAAAAAAAAAAAAAAAAAAAAAAAAAAAGA2/7x9e8yxvUlD5MHb/ALx9e8yxvUlD5KYDky6LmV6vd3x4Nz5Hv3kaL8e/9OyVscyKXI9+8jRfj3/p2StjmWMdzkbkTnn67R8seMsJtv3m675jjepKHSYu2/ebrvmON6kodL2A5MpXMrmLu+PAAZ7dgAAAAAAAAAAAAAAAAAAAAAAAAAAAAAAAAngTwefHEnwU9Ipqq0ao2nHEnwU9L0jgRwApp0a52gAqAAAAX2katn9HzUZnS85j5XHj+LCvNd/knwx5JdV2X5bc7l+wwdosnXN4fNOPl91MTrmv6s/JuccFu5ZoucqGBjcl4XHRov0RM9fT27Uu9m9uNn9oorGnajhTjz/0MWe14n0Z5/k3tlQgiZiYmOeHXeQvarVcXanD0jO6hmMxksXAv2vCxbdn2NqxExumeMcInhzI+9g+BE1Uy0nKuacYa1ViMPXpimNOidvbH4SCAYLSgAAAAABS0RasxaImJ4TEqgMf3Wn36bZW09c0n2L+sxasTWYmJ4xMFoi1Zi0RMTwmJWHdaffptlbT1zSfYDIClZi1YmsxMTxiYVAAAAAAAAAAAGA1zbHZ/RItGparlcLEj/p1v2d/o13y51r/AC45HB7Kmh6bjZm/Ri5me11+jG+Z+xdos118mElhMkY3F8zbmY69kds6nZGvbR7Z6Bs7W0anqODTGj/oUns8Sf8ATHGPl3I47Q8pG0+uRamPqFstl7f9HKfoq9UzHdT8stPmZtMzMzMzxmZ6WXbwM/zy2nBZmVToqxdzR8KfzP4dl2n5bs1jdng7OZKuWpzRmMzutfriscI+Xe5TrOs6jrWanMarncfN43ROJbfu6o5o+Rj3rl8DFzONTBy+FfFxbzurSlZta0+SIZtuzRb5MNuweS8JgI/g0RHx6e2Xk+qUtiXrSlZta07oiI3zMum7J8jut6pNMbWLV0vKzx7G8dljTHxej5Z+R2nZPYXQtl6Vtp+Ui+aiOOaxu7xJ6p/h+TctXcXRRqjXKMyjnRg8Jpptzw6uqNn1n8aXE9jeSLWdZ7DMavv0vJTx3Xrvxrx5K9HXPzS7rspsho2y+X7XpOUrTFmN18e/dYt+u33RuhnxHXcRXd27Gg5Sy7i8o6rlWinqjZ9ev6gCwhwAAAAAAAAAAAAAAAAAAAAAAAAAAAAAAAAAAAAAAAAAAAAAAAAAAAAAAAAAAAAAAAAAAAAAAAAAGA2/7x9e8yxvUlD5MHb/ALx9e8yxvUlD5KYDky6LmV6vd3x4Nz5Hv3kaL8e/9OyVscyKXI9+8jRfj3/p2StjmWMdzkbkTnn67R8seMsJtv3m675jjepKHSYu2/ebrvmON6kodL2A5MpXMrmLu+PAAZ7dgAAAAAAAAAAAAAAAAAAAAAAAAAAAAAAngTwefHEnwU9Ipqq0ao2nHEnwU9L0jgRwApp0a52gAqAAAAAAAAG18leZ/JOULQ8Tfu7LMRhT/ria/e1RlNlsacvtNpONE7pw83hW+a8KLkaaJhjYy35TD3KOuJjuTMjmCBAOHAAAAAAAACloi1Zi0RMTwmJVAY/utPv02ytp65pPsX9Zi1YmsxMTxiYLRFqzFoiYnhMS5TtzymxsTtFfSsHTvy3DjDriWmcbsOwm3HdzT0bp+VVRRVXOillYTB3sZc8nYp0zt/7S6uOD35d81P7PQsCOvM2n/wAVrjcuesT+x0rIU+Pa9vvhf4pd6kxTmrlKf5Ij6x+UghGzMctO0+L+zw9Owfi4Mz6bMVm+VTbDM7491e1RPRhYOHX7d29XGCuT1MmjM/H1cqaY+s/aEqHhms5lspTss1mMHAr4cS8Vj7UQ87tdtFnt8ZrW9RvWeev5RaI+aJ3MLi4uJjXm+Ne2JaeebTMz9q5GAnpln2sya5529Ebo0/eEs9S5Q9lNP7Lt+t5S9o/hwJnFn/tiWp6py3aFl98ZDJ57OW8MxGFX55mZ+xHUXqcDbjbrStjM/A29dyaqvroju197rGrct2uZmLV03JZPJVnmtbfi3j5Z3R9jR9Z2y2h1nso1HV83iUtz4db9hT6Nd0NfV3L9Ni3RshN4bJOCwuu1aiJ69Gme2dYo2PRNito9a7GdP0nNWw55sS9e10+lbdDoOhch2exexvrepYOXr04eWrOJb6U7oj7Su/bo2ypxWWMFhOduRp6ts9kONs5s/snrm0F4jSdNx8ekzu7b2PY4cddp3Qkhs/yZ7MaLNb00+M3j1/6ubntk/N+rHzNzpStKxWlYrWI3RERuiGJXjo/khq+Mz0oj0cLb0/Gr8R+YcQ2Z5D/1MXaPUPLOXyn33mPRHyusbPbM6Ps9g9r0jIYOXndum8RvvbrtPGfnZgYVy/Xc5UtSxuWMZjuernR1Rqjs/IAtIwAAAAAAAAAAAAAAAAAAAAAAAAAAAAAAAAAAAAAAAAAAAAAAAAAAAAAAAAAAAAAAAAAAAAAAAAAAAAABgNv+8fXvMsb1JQ+TB2/7x9e8yxvUlD5KYDky6LmV6vd3x4Nz5Hv3kaL8e/8ATslbHMilyPfvI0X49/6dkrY5ljHc5G5E55+u0fLHjLCbb95uu+Y43qSh0mLtv3m675jjepKHS9gOTKVzK5i7vjwAGe3YAAAAAAAAAAAAAAAAAAAAAAAAAAAAJ4E8HnxxJ8FPSKaqtGqNpxxJ8FPS9I4EcAKadGudoAKgAAAAAAAAAB75G84edy96zMTXErMTHXDweuV/vOF8evpJ2KauTKbccwRzDXXBwAAAAAAAAABELlF1GNW221nNxPZUtmLUpPhrXuY+yqUu2Gqxomy+p6jM7rZfAtanlvu3Vj55hDiZmZmZnfM88pDAUa5qb3mVhtM3cRPwpjxn7PLjhz4aeh6RxZbZTSZ13aTTtM32iuZxq0vNeeK/xTHVETLuPvN7N5HFi2LfUcbLTzzONETX5qsu7fotToqbNlDLWGyZXFu9p1xp1QjwqlBleSXY+kRachiY0Txib5m8xPzTDLZbk+2Uy27tehZKd3/uVnE9aZWZx1HREomvPPBxyaKp7PyiTuZDI6HqufmIyOm53Mb+btWBa3ohMDKaNpmT3fkenZPA/wDiwK19EL/ctzj+qlg3c9vd2e2f2+6Kuncl212e3TGlWwKT/FmMSuHu+SZ3/Y2rTOQzU8XsZ1LVcpl46YwaWxZ+3sYSAFmrG3J2akXfzvx9zkaKd0fnS5fpPIts5ld1s9i5zPX6YtiRh1n5K8ftbtpGyuhaPunTdKyeBeOa8YcTf6U75+1mhYqu118qUJiMp4vE89cmY6tOrs2AC2wQAAAAAAAAAAAAAAAAAAAAAAAAAAAAAAAAAAAAAAAAAAAAAAAAAAAAAAAAAAAAAAAAAAAAAAAAAAAAAAAAAAAGA2/7x9e8yxvUlD5MHb/vH17zLG9SUPkpgOTLouZXq93fHg3Pke/eRovx7/07JWxzIpcj37yNF+Pf+nZK2OZYx3ORuROefrtHyx4ywm2/ebrvmON6kodJi7b95uu+Y43qSh0vYDkylcyuYu748ABnt2AAAAAAAAAAAAAAAAAAAAAAAAAACeBPB58cSfBT0imqrRqjaccSfBT0vSOBHACmnRrnaACoAAAAAAAAAAAAXui4Xb9ZyGDz9szGHT57RCybFyd5b8s250LB3b4nN4dpjyVnsp9CmudFMys4mvydmuvqiZ7kvoCBr7hYAAAAAAAABMxETMzugHIP7RWtxl9EyOj4Vv0mbxO3Ykf5Kc2/rtMfRR+bXynbQfnJtjns5h27LK4c9oy/g7XXhE/LO+flaom8Nb8nbiHY8hYLiWBot1cqdc75/Gz6Osf2eNHnN7TZvVL1/R5LB7Gs/wCe/D1Yt86Q9qxas1tETE8JiWi8i2he4uw2Vvi07HMZ6fyrE3xx3W/Vj6MR88t7ReJr4dyZc3zhxnG8fXVGyNUfT99LH91p9+m2VtPXNJ9i/rMWrE1mJieMTBaItWYtETE8JiVh3Wn36bZW09c0n2LCEZAUrMWrE1mJieMTCoAAAAAAAAAAAAAAAAAAAAAAAAAAAAAAAAAAAAAAAAAAAAAAAAAAAAAAAAAAAAAAAAAAAAAAAAAAAAAAAAAAAAAAAAAAMBt/3j695ljepKHyYO3/AHj695ljepKHyUwHJl0XMr1e7vjwbnyPfvI0X49/6dkrY5kUuR795Gi/Hv8A07JWxzLGO5yNyJzz9do+WPGWE237zdd8xxvUlDpMXbfvN13zHG9SUOl7AcmUrmVzF3fHgAM9uwAAAAAAAAAAAAAAAAAAAAAAAATwJ4PPjiT4KekU1VaNUbTjiT4Kel6RwI4AU06Nc7QAVAAAAAAAAAAAAAADonIPkZzfKDl8bsd9cpgYmNPDm4djHrOdu6/2btLmuW1fVb1/XtTLYc7vBHZW9NfmWMTVwbUobODEeQyddq640dup2sBCOPAAAAAAAADn/LTtRGz+ymJl8vfsc/qETgYW6eNa/wAdvmnd1zDes5mcHJ5XGzOaxK4WBhUm972nhWsRvmZRK5Qtp8XavaXMZ+3ZVy1f0eWw5/gw45vlnnnyyycLZ8pXpnZDY82slzjsVFdcehRrn4z0R/3Q1psWwGgW2l2ryOnbpnBtftmPMdGHXjb5+brmGupG8guy86VoF9YzVN2b1CInD3xxrgxzfSnj1dik8Rd8nRM9Lf8ALmUYyfg6rkT6U6o3z+NrqWHSuHStKVitaxuiI5ohUEG46KWiLVmLRExPCYlUBj+60+/TbK2nrmk+xf1mLViazExPGJgtEWrMWiJieExKw7rT79NsraeuaT7AZAUrMWrE1mJieMTCoAAAAAAAAAAAAAAAAAAAAAAAAAAAAAAAAAAAAAAAAAAAAAAAAAAAAAAAAAAAAAAAAAAAAAAAAAAAAAAAAAAAAAAAAMBt/wB4+veZY3qSh8mDt/3j695ljepKHyUwHJl0XMr1e7vjwbnyPfvI0X49/wCnZK2OZFLke/eRovx7/wBOyVscyxjucjcic8/XaPljxlhNt+83XfMcb1JQ6TF237zdd8xxvUlDpewHJlK5lcxd3x4ADPbsAAAAAAAAAAAAAAAAAAAAAAE8CeDz44k+CnpFNVWjVG044k+CnpekcCOAFNOjXO0AFQAAAAAAAAAAAAAAAAlryXaNOh7D6Xlb17HHvh9vxfD2d+63T1RMR8iOfJpoE7R7Y5DJ2r2WWpbt+Y8Ha68Zj5Z3R8qW8cIR2OubKGhZ6Y3m8JT80+EfcARzQgAAAAAAHIuWHlIrpeHjaHoONv1C0djmMxSf2EdNYn4fo6+au3bquVcGlm4DAXsfeizZjXPZEdctf5ctu4z2NfZ3ScXflsK3/F4lZ4Yl4n9SPJE8/l6nHFZnfO+eddaTp2a1bUcvkchhWxszj3ilKR0z90dO9N27dNqnRDr2BwVnJuGi1RsjXM9fXMtm5L9kr7WbSYeDiVt7n5fdi5q8fB38K9dp4dW+ehK3DpXDw60w6xWlYiK1iN0REdENe2C2Wy2yWz+DkMDsb4893mMaI/aYk889Uc0eRsaJxN7ytWrZDmOX8rTlLE6aeRTqj8/XwAGOggABS0RasxaImJ4TEqgMf3Wn36bZW09c0n2L+sxasTWYmJ4xMFoi1Zi0RMTwmJWHdaffptlbT1zSfYDIClZi1YmsxMTxiYVAAAAAAAAAAAAAAAAAAAAAAAAAAAAAAAAAAAAAAAAAAAAAAAAAAAAAAAAAAAAAAAAAAAAAAAAAAAAAAAAAAAAAABgNv+8fXvMsb1JQ+TB2/wC8fXvMsb1JQ+SmA5Mui5ler3d8eDc+R795Gi/Hv/TslbHMilyPfvI0X49/6dkrY5ljHc5G5E55+u0fLHjLCbb95uu+Y43qSh0mLtv3m675jjepKHS9gOTKVzK5i7vjwAGe3YAAAAAAAAAAAAAAAAAAAAJ4E8HnxxJ8FPSKaqtGqNpxxJ8FPS9I4EcAKadGudoAKgAAAAAAAAAAAAAAAAG4cl+yd9rNpcLAxK29z8vuxc1ePg7+Fd/htPDq3z0Ka6ooiapWcTiKMNaqvXJ0U0xpdf5BdmJ0nZy+rZqm7N6jutTfHGuDH6vzzx6tzqL5w6Vw8OtMOsVpWIitYjdERHQ+kFcrm5VNUuLY/GV43EV4ivbVPZ1R9IAFDEAAAAFL3rh0te9orWsb5mZ3REeFru122mi7K4E21PNR+UTG+mWw+6xb/J0R5Z3Qj5t7yk6ttVN8vSZyWl7+GWw7cbx/nt09XMv2cPXd2bE5kvIOJyjMVRHBo9qft1+Hxbxyn8rNYjF0rZTG3zO+uNnq9HhjD/F83hcOtM2tNrTMzPGZnpUEvatU2o0UunZOyZYyda8nZjfPTO8SY5G9iMvoGj4Oq5nsMXU87hVv2ccYwsO0RMVjyzw3z8nRxjQmVsp3r6P5ng+pDGx1UxTER0tfzyxNy1hqLdE6IqmdPx0MqAinNQAAAAABS0RasxaImJ4TEqgMf3Wn36bZW09c0n2L+sxasTWYmJ4xMFoi1Zi0RMTwmJWHdaffptlbT1zSfYDIClZi1YmsxMTxiYVAAAAAAAAAAAAAAAAAAAAAAAAAAAAAAAAAAAAAAAAAAAAAAAAAAAAAAAAAAAAAAAAAAAAAAAAAAAAAAAAAAAABgNv+8fXvMsb1JQ+TB2/7x9e8yxvUlD5KYDky6LmV6vd3x4Nz5Hv3kaL8e/8ATslbHMilyPfvI0X49/6dkrY5ljHc5G5E55+u0fLHjLCbb95uu+Y43qSh0mLtv3m675jjepKHS9gOTKVzK5i7vjwAGe3YAAAAAAAAAAAAAAAAAAJ4E8HnxxJ8FPSKaqtGqNpxxJ8FPS9I4EcAKadGudoAKgAAAAAAAAAAAAAAAAAF5pOnZrVtSy+Q0/CtjZrHtFKUjw+XwRHPMpY7BbLZbZLQMLIYHY3x57vMY0R+0xOmeqOaI8DmPJNnditlslGazmtZa+s5iu7EtNLxGDWf4KzNfnnp6nSK8oOylubXcj8t933IvFXK7k8GInQ53nLjMXja+L2bdXk6f0zrns2dXb1NpGp35RdkqRMzruT4eCZn0QtcflT2Pwomfdet/JTBxJ/8WJFqudkS1anJuMq2Wav7Z/DdhzTN8tGy+DH6GM/mJ/yYER60w1/UOXbBiJjT9ExLT0Wx8eK/ZWJ9K5GGuzspZlrN/KN3ZamN+iPF2t84mJTCw7XxL1pSsb5tad0RHWjVq3LJtRnOyrlbZTI1nm7Thdlb57b/AENJ1fXtW1i821TUc1mvJi4kzWOqOaF6nA1zyp0JjDZm4qvXerimO2ftHekrtHyobMaLF6flsZ7MV/6WUjtnHy2/Vj53JtquWLXNVi+DpNa6Xlp4dlSezxZj4083yR8rmAy7eEt0a51tnwObGBwmiqqnh1dc/jZ4vTHxsTHxb4uPiXxMW877XvabTafDMzzvMdv2B5HcHGwMtqO0uPGLTErXEplMCZiJiY3x2duf5I+deuXabUaaklj8pYfJtvh350dURtnc5lsfsfq21ec7VpmBPaazuxczib4w8PrnpnyRxWO1Glxom0Gf0yuLONGVxZwu2TG7st3Tu6ExMjk8tp+Uw8rkcDDy+Xw43Uw8OsVrEdUIm8pnf/r3nd/Sx7GIm9cmOhC5Fy7cypi66dHBoiNUdO2Ncy1pMrZTvX0fzPB9SENUytlO9fR/M8H1IUY/ZSws9uas758IZUBGOeAAAAAAAACloi1Zi0RMTwmJVAY/utPv02ytp65pPsX9Zi1YmsxMTxiYLRFqzFoiYnhMSsO60+/TbK2nrmk+wGQFKzFqxNZiYnjEwqAAAAAAAAAAAAAAAAAAAAAAAAAAAAAAAAAAAAAAAAAAAAAAAAAAAAAAAAAAAAAAAAAAAAAAAAAAAAAAAAAADAbf94+veZY3qSh8mDt/3j695ljepKHyUwHJl0XMr1e7vjwbnyPfvI0X49/6dkrY5kUuR795Gi/Hv/TslbHMsY7nI3InPP12j5Y8ZYTbfvN13zHG9SUOkxdt+83XfMcb1JQ6XsByZSuZXMXd8eAAz27AAAAAAAAAAAAAAAABPAng8+OJPgp6RTVVo1RtOOJPgp6XpHAjgBTTo1ztABUAAAAAAAAAAAAAAAAAAAAqKAKqAAAAAAACqZ+zne/pnmuF6kIYJn7Od7+mea4XqQj8fspaNntzdnfP2ZBEXlM7/wDXvO7+lLpEXlM7/wDXvO7+lbwHLncwcy/Wrny/eGtJlbKd6+j+Z4PqQhqmVsp3r6P5ng+pC7j9lKQz25qzvnwhlQEY54AAAAAAAAAAKWiLVmLRExPCYlUBj+60+/TbK2nrmk+xf1mLViazExPGJgtEWrMWiJieExKw7rT79NsraeuaT7AZAUrMWrE1mJieMTCoAAAAAAAAAAAAAAAAAAAAAAAAAAAAAAAAAAAAAAAAAAAAAAAAAAAAAAAAAAAAAAAAAAAAAAAAAAAAAAAAMBt/3j695ljepKHyYO3/AHj695ljepKHyUwHJl0XMr1e7vjwbnyPfvI0X49/6dkrY5kUuR795Gi/Hv8A07JWxzLGO5yNyJzz9do+WPGWE237zdd8xxvUlDpMXbfvN13zHG9SUOl7AcmUrmVzF3fHgAM9uwAAAAAAAAAAAAAATwJ4PPjiT4KekU1VaNUbTjiT4Kel6RwI4AU06Nc7QAVAAAAAAAAAAAAAAAAAAAAAAAAAAAAAAAAKpn7Od7+mea4XqQhgmfs53v6Z5rhepCPx+ylo2e3N2d8/ZkEReUzv/wBe87v6UukReUzv/wBe87v6VvAcudzBzL9aufL94a0mVsp3r6P5ng+pCGqZWynevo/meD6kLuP2UpDPbmrO+fCGVARjngAAAAAAAAAAAApaItWYtETE8JiVQGP7rT79NsraeuaT7F/WYtWJrMTE8YmC0RasxaImJ4TErDutPv02ytp65pPsBkBSsxasTWYmJ4xMKgAAAAAAAAAAAAAAAAAAAAAAAAAAAAAAAAAAAAAAAAAAAAAAAAAAAAAAAAAAAAAAAAAAAAAAAAAAAAAAwG3/AHj695ljepKHyYO3/ePr3mWN6kofJTAcmXRcyvV7u+PBufI9+8jRfj3/AKdkrY5kUuR795Gi/Hv/AE7JWxzLGO5yNyJzz9do+WPGWE237zdd8xxvUlDpMXbfvN13zHG9SUOl7AcmUrmVzF3fHgAM9uwAAAAAAAAAAAATwJ4PPjiT4KekU1VaNUbTjiT4Kel6RwI4AU06Nc7QAVAAAAAAAAAAAAAAAAAAAAAAAAAAAAAAAAAAKpn7Od7+mea4XqQhgmfs53v6Z5rhepCPx+ylo2e3N2d8/ZkEReUzv/17zu/pS6RF5TO//XvO7+lbwHLncwcy/Wrny/eGtJlbKd6+j+Z4PqQhqmVsp3r6P5ng+pC7j9lKQz25qzvnwhlQEY54AAAAAAAAAAAAAAKWiLVmLRExPCYlUBj+60+/TbK2nrmk+xf1mLViazExPGJgtEWrMWiJieExKw7rT79NsraeuaT7AZAUrMWrE1mJieMTCoAAAAAAAAAAAAAAAAAAAAAAAAAAAAAAAAAAAAAAAAAAAAAAAAAAAAAAAAAAAAAAAAAAAAAAAAAAAAMBt/3j695ljepKHyYO3/ePr3mWN6kofJTAcmXRcyvV7u+PBufI9+8jRfj3/p2StjmRS5Hv3kaL8e/9OyVscyxjucjcic8/XaPljxlhNt+83XfMcb1JQ6TF237zdd8xxvUlDpewHJlK5lcxd3x4ADPbsAAAAAAAAAAE8CeDz44k+CnpFNVWjVG044k+CnpekcCOAFNOjXO0AFQAAAAAAAAAAAAAAAAAAAAAAAAAAAAAAAAAAACqZ+zne/pnmuF6kIYJn7Od7+mea4XqQj8fspaNntzdnfP2ZBEXlM7/APXvO7+lLpEXlM7/APXvO7+lbwHLncwcy/Wrny/eGtJlbKd6+j+Z4PqQhqmVsp3r6P5ng+pC7j9lKQz25qzvnwhlQEY54AAAAAAAAAAAAAAAAKWiLVmLRExPCYlUBj+60+/TbK2nrmk+xf1mLViazExPGJgtEWrMWiJieExKw7rT79NsraeuaT7AZAUrMWrE1mJieMTCoAAAAAAAAAAAAAAAAAAAAAAAAAAAAAAAAAAAAAAAAAAAAAAAAAAAAAAAAAAAAAAAAAAAAAAAAAAMBt/3j695ljepKHyYO3/ePr3mWN6kofJTAcmXRcyvV7u+PBufI9+8jRfj3/p2StjmRS5Hv3kaL8e/9OyVscyxjucjcic8/XaPljxlZa5kvdLRs/kd+78pwMTB3+DsqzH3oY5rL4uUzOLl8xScPGwrzh3pPPW0TumPnTbcq5U+S/8AOHMX1XQ7YeFqVo/S4N+5pj7unf0W+yfJzvMJei3MxVslbzWyvawNyqzfnRTVo19Ux170dBns/sftHkMacLM6JqFbR01wLXrPVNd8Stvzd1vxPqX1W/sSkV0z0ukU4qzVGmmuJjfDFDK/m7rfifUvqt/Yfm7rfifUvqt/YcOnrVcYte3HbDFDK/m7rfifUvqt/Yfm7rfifUvqt/YcOnrOMWvbjthihlfzd1vxPqX1W/sPzd1vxPqX1W/sOHT1nGLXtx2wxQyv5u634n1L6rf2H5u634n1L6rf2HDp6zjFr247YYongyk7Pa1ETM6RqMRHTOVv7HnXZ7WsbjXSNR7Dwxlr8fsOHT1qasTajZVHbDF8cSfBT0vSODKRs7rUf/8AH1L6rf2K/m7rfifUvqt/YcKnrKb1qNc1xp3wxQyv5u634n1L6rf2H5u634n1L6rf2HDp61XGLXtx2wxQyv5u634n1L6rf2H5u634n1L6rf2HDp6zjFr247YYoZX83db8T6l9Vv7D83db8T6l9Vv7Dh09Zxi17cdsMUMr+but+J9S+q39h+but+J9S+q39hw6es4xa9uO2GKGV/N3W/E+pfVb+w/N3W/E+pfVb+w4dPWcYte3HbDFDK/m7rfifUvqt/Yfm7rfifUvqt/YcOnrOMWvbjthihlfzd1vxPqX1W/sPzd1vxPqX1W/sOHT1nGLXtx2wxQyv5u634n1L6rf2H5u634n1L6rf2HDp6zjFr247YYoZX83db8T6l9Vv7D83db8T6l9Vv7Dh09Zxi17cdsMUMr+but+J9S+q39h+but+J9S+q39hw6es4xa9uO2GKGV/N3W/E+pfVb+w/N3W/E+pfVb+w4dPWcYte3HbDFDK/m7rfifUvqt/Yfm7rfifUvqt/YcOnrOMWvbjthihlfzd1vxPqX1W/sPzd1vxPqX1W/sOHT1nGLXtx2wxQyv5u634n1L6rf2H5u634n1L6rf2HDp6zjFr247YYoZX83db8T6l9Vv7D83db8T6l9Vv7Dh09Zxi17cdsMUMr+but+J9S+q39h+but+J9S+q39hw6es4xa9uO2GKGV/N3W/E+pfVb+w/N3W/E+pfVb+w4dPWcYte3HbDFDK/m7rfifUvqt/Yfm7rfifUvqt/YcOnrOMWvbjthihlfzd1vxPqX1W/sPzd1vxPqX1W/sOHT1nGLXtx2wxQyv5u634n1L6rf2LvTdjNpNRxowsromfmZnd2WJgzh1jrtbdBNdMdKmrFWKY4VVcRG+GI03JY2o6hlsllaTfHzGJXCpWOmZncmhkMvGUyWXy1Z31wcOuHE+GIiI+5znks5M6bMYsanq18PH1Wa7sOtONMCJ5909Nujf83hdNRWLvRcqiKdkOa50ZWt4+7TbsTppo06+uZ+wiLymd/wDr3nd/Sl0iLymd/wDr3nd/SrwHLncysy/Wrny/eGtJlbKd6+j+Z4PqQhqmVsp3r6P5ng+pC7j9lKQz25qzvnwhlQEY54AAAAAAAAAAAAAAAAAAKWiLVmLRExPCYlUBj+60+/TbK2nrmk+xf1mLViazExPGJgtEWrMWiJieExKw7rT79NsraeuaT7AZAUrMWrE1mJieMTCoAAAAAAAAAAAAAAAAAAAAAAAAAAAAAAAAAAAAAAAAAAAAAAAAAAAAAAAAAAAAAAAAAAAAAAAAMBt/3j695ljepKHyYO3/AHj695ljepKHyUwHJl0XMr1e7vjwbnyPfvI0X49/6dkrY5kUuR795Gi/Hv8A07JWxzLGO5yNyJzz9do+WPGQBhNQAAAAAAAAFLTFazNp3RHGZmS0xWszaYiI4zMrDutQv01ytZ6pvPsA7rUL9NcrWflvPsX9axWsRWN0RwiIKxFaxFYiIjhEQqAAAAAAAAAAAAAAAAAAAAAAAAAAAAAAAAAAAAAAAAAAAAAiLymd/wDr3nd/Sl0iLymd/wDr3nd/SzsBy53NzzL9aufL94a0mVsp3r6P5ng+pCGqZWynevo/meD6kLuP2UpDPbmrO+fCGVARjngAAAAAAAAAAAAAAAAAAAApaItWYtETE8JiVQGP7rT79NsraeuaT7F/WYtWJrMTE8YmC0RasxaImJ4TErDutPv02ytp65pPsBkBSsxasTWYmJ4xMKgAAAAAAAAAAAAAAAAAAAAAAAAAAAAAAAAAAAAAAAAAAAAAAAAAAAAAAAAAAAAAAAAAAAAAAwG3/ePr3mWN6kofJg7f94+veZY3qSh8lMByZdFzK9Xu748G58j37yNF+Pf+nZK2OZFLke/eRovx7/07JWxzLGO5yNyJzz9do+WPGQBhNQAAAAAAFLTFazNpiIjjMyWmK1mbTERHGZlYd1qF+muVrPVN59gHdahfprlaz1TefYv6xFaxFYiIjhEQViK1iKxERHCIhUAAAAAAAAAAAHjnc1gZHK4uZzmNTBy+FWbXxLzurWPDMj2ImZ0Q9mv7T7Y6Hszh79Wz2Hh427fXAp3eJb/THH5Z3Q5Dt/yw5nN3xMlsrNstluac5aN2Jf4kfwx5efqcgxsXEx8W+LjYl8TFvO+17zMzafDMzzs6zgpq116m5ZLzRuXoi5jJ4MdUbfr1eO52fX+XLHva1NB0umHXoxc3bspn/TXhHzy0fUeUza3P2ns9YxcGvwcvWuHEfLEb/taaM6nD26NkNyw2Q8Bho0UWo3zrnv0svjbS67jWm2LrOpXmeffmr+0wNptdwLRbB1rUqTHgzV/axAucCnqZ/FrOjRwI7IbppvKdtbkLR2OrYmPSP4cxSuJE/LMb/tbzoHLleLVw9f0us16cbJ23T9C3tcSFurD26tsI/E5DwGJj07UR8Y1T3Jh7NbWaLtLhdlpGew8a8Rvtgz3OJXrrPH5eZnUJMtmMbK49MfLYuJg41J30xMO01tWfDExzOycn3LFi4V8LI7WT2zCnua56te6r8eI548scetg3sFNOujW03KmaV2xE3MJPDjq6f38Xdx55bHwszgYePl8SmLg4lYtS9J31tE80xL0YLTpiYnRIAPAAAAAAAAAAAAAAAAAAAABEXlM7/wDXvO7+lLpEXlM7/wDXvO7+lnYDlzubnmX61c+X7w1pMrZTvX0fzPB9SENUytlO9fR/M8H1IXcfspSGe3NWd8+EMqAjHPAAAAAAAAAAAAAAAAAAAAAABS0RasxaImJ4TEqgMf3Wn36bZW09c0n2L+sxasTWYmJ4xMFoi1Zi0RMTwmJWHdaffptlbT1zSfYDIClZi1YmsxMTxiYVAAAAAAAAAAAAAAAAAAAAAAAAAAAAAAAAAAAAAAAAAAAAAAAAAAAAAAAAAAAAAAAAAAAABgNv+8fXvMsb1JQ+TB2/7x9e8yxvUlD5KYDky6LmV6vd3x4Nz5Hv3kaL8e/9OyVscyKXI9+8jRfj3/p2StjmWMdzkbkTnn67R8seMgDCagAAAAKWmK1mbTERHGZktMVrM2mIiOMzKw7rUL9NcrWeqbz7AO61C/TXK1nqm8+xf1iK1iKxERHCIgrEVrEViIiOERCoAAAAAAAAAAAALfUM7l9OyWPnM7jVwctg1m+JiWnhWIRg5TNv83tdnrYODN8DR8K36LA37pv/AJ7+GfJ0fazfLfttbWNUtomnYv8A/HZO+7FtWeGNixz9cV5o8u+fA5WlMJh+DHDq2uk5s5Cpw9EYu/Hpzsjqj8z3C603T83qecw8pp+WxczmcT9XDw69lM/7eVmdh9kdQ2u1WMrka9hg03Tj5i0dzhV++Z6I6ftSe2Q2T0vZTT4y2mYERiWiO249+OJiz4Zn7o4Qu38TFrVGuUjlnOCzk2PJ0+lc6urf+HJ9leRHGxq0x9pc72iJ4zlstutbqm88I+SJ63TNH5PdltJiv5Po+WxLx/1MxHbbdfdb/sbWIyu/cr2y53jMuY7GTPlLkxHVGqO77vDAyeWy9YrgZfBw6xzRSkV9CmYyOVzFZrmMtgYtZ54vhxaJ+eFwLOlF8OrTp062pazydbLatFu36RgYOJP/AFMtHarR9Hh88OYbV8ieay1L4+zeb/KqRx/JsxuridUW5p+Xc74L1GIuUbJSuDy7jsHMcC5Mx1Trj9vpoQnz+SzOn5vEyuewMXL5jDndfDxKzW0fJK3S8202O0ra3Izg6jhdjmKxMYOZpERiYc9fTHkngjBtjsvqGymr2yOo03xPdYWNWO4xa+GPvjoSdjE03dWyXRMjZfs5TjgT6NyOjr+MNj5LuULM7KZuuUz1r42i4tu7pzzgzP8AFT746etJvJ5nBzmVwszlcWmLgYtYvS9J3xaJ5phCR1/kK22tkM9TZ7UsX/g8xb/hb2n9niT/AAdVvT1rOLw+mOHTtRec+Qqb1E4zDx6UcqOuOvfHekCAjHOAAAAAAAAAAAAAAAAAAAABEXlM7/8AXvO7+lLpEXlM7/8AXvO7+lnYDlzubnmX61c+X7w1pMrZTvX0fzPB9SENUytlO9fR/M8H1IXcfspSGe3NWd8+EMqAjHPAAAAAAAAAAAAAAAAAAAAAAAABS0RasxaImJ4TEqgMf3Wn36bZW09c0n2L+sxasTWYmJ4xMFoi1Zi0RMTwmJWHdaffptlbT1zSfYDIClZi1YmsxMTxiYVAAAAAAAAAAAAAAAAAAAAAAAAAAAAAAAAAAAAAAAAAAAAAAAAAAAAAAAAAAAAAAAAAABgNv+8fXvMsb1JQ+TB2/wC8fXvMsb1JQ+SmA5Mui5ler3d8eDc+R795Gi/Hv/TslbHMilyPfvI0X49/6dkrY5ljHc5G5E55+u0fLHjIAwmoAAClpitZm0xERxmZLTFazNpiIjjMysO61C/TXK1nqm8+wDutQv01ytZ6pvPsX9YitYisRERwiIKxFaxFYiIjhEQqAAAAAAAAAAAAA0vla2mnZnZHHxMC/Y57Nf8AD5fdzxMxxt8kb569zdEa+XzW51HbKMhS2/A07DjD3dHbLbrWn1Y+Rfw1vylyInYm83sBGOxtNFUejTrn6fmdDmkzvnfLIbPaPmte1nK6bkKdlj49+xjwVjptPkiN8sckD/Z72arldJx9fzFP0+bmcLAmY/Vw6zxmOu0f9qVv3fJUcJ0vLGUYydhar3TsjfP/AGl0bZHZ3JbMaJgadkK9zSN+JiTHdYt+m0+WfsjgzIISZmZ0y45du13a5uXJ0zO2QB4oAAAAGA222Yye1eh42QzlYrifrYGNu3zhX6LR98dMM+PYmaZ0wuWbtdmuLludExrhCzWdNzOj6pmdPz2H2vM5e80vX748k88eSVpS1qXrelpras74mJ3TEu6f2h9mq3yuW2hy1N2JhzGXzO6Oes/qWnqnh8seBwlOWbnlaIqdkyTj6co4Wm/07Jj49P8A3UlryZbS/nRsllc5iWic3h/oMzH/AOSvT8sbp+VtaO39nrW5ye0+Y0rEt+hz+FNqR/8Akpxj/t7L5oSJROIt+TuTEOX5ewEYHG126Y9Gdcbp/E6YAFhDgAAAAAAAAAAAAAAAAACIvKZ3/wCved39KXSIvKZ3/wCved39LOwHLnc3PMv1q58v3hrSZWynevo/meD6kIaplbKd6+j+Z4PqQu4/ZSkM9uas758IZUBGOeAAAAAAAAAAAAAAAAAAAAAAAAAACloi1Zi0RMTwmJVAY/utPv02ytp65pPsX9Zi1YmsxMTxiYLRFqzFoiYnhMSsO60+/TbK2nrmk+wGQFKzFqxNZiYnjEwqAAAAAAAAAAAAAAAAAAAAAAAAAAAAAAAAAAAAAAAAAAAAAAAAAAAAAAAAAAAAAAAADAbf94+veZY3qSh8mDt/3j695ljepKHyUwHJl0XMr1e7vjwbnyPfvI0X49/6dkrY5kUuR795Gi/Hv/TslbHMsY7nI3InPP12j5Y8ZAGE1AUtMVrM2mIiOMzJaYrWZtMREcZmVh3WoX6a5Ws9U3n2Ad1qF+muVrPVN59i/rEVrEViIiOERBWIrWIrEREcIiFQAAAAAAAAAAAAAAUvaK1m1p3REb5lC/Xs9bU9bz+evMzbM498Xj5bTKX+0+N+T7N6rj7+xnDymLff4N1JlDFI4COVLfsybUfxru6PH9npl8G+Yx8PBwo34mJaKVjwzM7oTO0PT8PSdGyWn4ERGHlsGuFHl3Ru3oocnWWjN7daFhWiJrObw7TE+Cs9l9yXsPMfVrilbz1vzNdqz0aJn7faQBHtFAAAAAAAAYrarS6a1s5qOnXiJ/KMC1K7+i27uZ+SYiUNbVmtpraN0xO6YTfQ42yy0ZPa3WcvWN1cPOYtYjydnO5I4CrXNLfMyb86btmdmqftP2NjtQnStqtJzsTujBzOHa3xd+6fsmUx0IPLCa2l435RpuUxp/6mFS/z1iXmPjXTLzPa1EVWbu+PD8yuQEe0QAAAAAAAAAAAAAAAAAARF5TO/wD17zu/pS6RF5TO/wD17zu/pZ2A5c7m55l+tXPl+8NaTK2U719H8zwfUhDVMrZTvX0fzPB9SF3H7KUhntzVnfPhDKgIxzwAAAAAAAAAAAAAAAAAAAAAAAAAAAAUtEWrMWiJieExKoDH91p9+m2VtPXNJ9i/rMWrE1mJieMTBaItWYtETE8JiVh3Wn36bZW09c0n2AyApWYtWJrMTE8YmFQAAAAAAAAAAAAAAAAAAAAAAAAAAAAAAAAAAAAAAAAAAAAAAAAAAAAAAAAAAAAAAYDb/vH17zLG9SUPkwdv+8fXvMsb1JQ+SmA5Mui5ler3d8eDc+R795Gi/Hv/AE7JWxzIpcj37yNF+Pf+nZK2OZYx3ORuROefrtHyx4yKWmK1mbTERHGZktMVrM2mIiOMzKw7rUL9NcrWeqbz7GE1A7rUL9NcrWeqbz7F/WIrWIrEREcIiCsRWsRWIiI4REKgAAAAAAAAAAAAAAAAxG2OHONsjreHE7pvkcesfy5Q2TazmBXM5TGwL/q4tLUnqmN33oVZnBvl8xi4OJG6+HaaWjwTE7klgJ1VQ6BmTcjgXqPjE+LZOS7ErhcoOhWvO6JzNa/LMTEelLeOZCzRM7Om6zkc7Xfvy2PTF4f5bRP3JoYOJXGwqYmHaLUvEWrMdMTxhRj49KJYuetqYv2rnRMTHZP7vsBgNJAAAAAAAAEPtv8AEri7ca9enGs53G9aUu89mcPJ5LHzONO7CwcO2JefBFY3z6ELM7mLZvO4+ZxP18bEtiW65nf96QwEa5lvOZNqZuXbnRERHb/8eCaWg0nC0TT8O3PTL4dZ+SsIcaVlbZ7VMnlKRM2x8amFG7/NaI+9NSlYpSK1jdERuiHuPnkwu57XI0WaPmnwVARzQQAAAAAAAAAAAAAAAAABEXlM7/8AXvO7+lLpEXlM7/8AXvO7+lnYDlzubnmX61c+X7w1pMrZTvX0fzPB9SENUytlO9fR/M8H1IXcfspSGe3NWd8+EMqAjHPAAAAAAAAAAAAAAAAAAAAAAAAAAAAAABS0RasxaImJ4TEqgMf3Wn36bZW09c0n2L+sxasTWYmJ4xMFoi1Zi0RMTwmJWHdaffptlbT1zSfYDIClZi1YmsxMTxiYVAAAAAAAAAAAAAAAAAAAAAAAAAAAAAAAAAAAAAAAAAAAAAAAAAAAAAAAAAAAABgNv+8fXvMsb1JQ+TB2/wC8fXvMsb1JQ+SmA5Mui5ler3d8eDc+R795Gi/Hv/TslZMxWszaYiIjfMyijyQWrTlG0W15itYvffM//HZJ+Oy1C/TXK1n5bz7FjHc5G5E55+u0fLHjJ3WoX6a5Ws9U3n2L+sRWsRWIiI4REFYitYisRERwiIVYTUAAAAAAAAAAAAAAAAAABFLle0idI2+1OkV3YWZv+VYfli/Gf+7so+RK1yX+0Hs7Oe0LL61l6b8bIz2GLujjOFaef5LbvnllYS5wLmvpbJmtjYwuOimrZXq+vR36vqjylJyL6/GubE5XDxL781kP+FxYnn3RHcT8td3yxKLbcuSza2dk9paY2Pafc/MxGFmax0V38L9dZ49W9IYq15SjVthvOcWTZx+DmmiPSp1x94+sd+hK4fGDi0xsKmLhXrfDvWLVtWd8WieMTEvtCuRTGgAAAAAAB5ZrMYWUy2LmMziVwsDCrN73tO6K1iN8zI9iJmdEOfcumv10nY3EyWHfdmtRntFYjnikcbz826P9SMrauUjam+1m02NnK9lXJ4f6LLUnopE88+WZ4z83Q1VNYa15OjRO117IGTpyfg4or5U653z0fSG+8iWkTqm32TxJrvwclW2avO7pjhX/ALpj5ko3L+QPZ2dL2XvqeYp2OZ1K0XrvjjGFX9X553z1TDqCOxdzh3J0dDQc58bGLx9UUzqo9Hs294AxmvAAAAAAAAAAAAAAAAAACIvKZ3/6953f0pdIi8pnf/r3nd/SzsBy53NzzL9aufL94a0mVsp3r6P5ng+pCGqZWynevo/meD6kLuP2UpDPbmrO+fCGVARjngAAAAAAAAAAAAAAAAAAAAAAAAAAAAAAAApaItWYtETE8JiVQGP7rT79NsraeuaT7F/WYtWJrMTE8YmC0RasxaImJ4TErDutPv02ytp65pPsBkBSsxasTWYmJ4xMKgAAAAAAAAAAAAAAAAAAAAAAAAAAAAAAAAAAAAAAAAAAAAAAAAAAAAAAAAAAw+2WDOY2S1rBiN83yWNER5ewlDeeCbmYpTEwMSmLu7Xas1tv8ExxQo1LLWy2o5nK33x2jFthz5ZrMx9yRwFWqqG/Zl3tFN6106p8Wc5NsWsbeaHOLO7CnNUpPl7LufvS+rWK1itYiIiN0RCE+QzN8lncvmcL9fAxK4leusxMehNLT81h57I5fN4E78LHw64tJ8MWjfHpU46nRVEsfPSxNN21e64mOzX93uAwGkgAAAAAAAAAAAAAAAAADyzeWws5lcbLZmlcTAxaTh3pbmtWY3TD1B7EzE6YRD2/2Xx9k9osfI4sWtl7fpMtiz/HhzPD5Y5p8sNbS55QdkcrtfodspjTGFmsPffLY+7fOHby/wCWeaY9iKut6TndE1PHyGpYFsHM4M7rVnp8ExPTE9EpnDX4u06J2w6zm/lmnKNngVz/ABKdvx+P56p+jpvI/wApNdGjD0XXsWfc+Z3ZfMW49omf4bf5PL0dXNIOl64lK3paLUtG+LRO+JjwoQN82B5StV2V7DK4u/PaXE/3e9t1sP4lujq5upaxGE4U8KjajMvZscZqnE4TVVO2Ov4x1T3SlINX2W270DaWlIyGdpTMzHHLY89hiRPVPP8AJvbQjKqZpnRMOe3rF3D18C7TNM/EAeLQDUtq+UHZ/Zql65vOVx83HNlsvMXvv8vRX5ZhVTTNU6KYXrGHu4ivgWaZqn4NqxsXDwMK+LjXrh4dIm1r2ndFYjnmZ6IR25XuUf8AOC9tI0XEtGlUt+lxY4flFo/8I+3n8DBbe8ourbWWtgTP5HpkTvjK4dv1vBN5/i6ubyNISWHwnA9Kva6HkHNnilUYjFa6+iOiPzPdA2zk12TxdrdpMLLTW0ZHB3YmaxI6Kb/1d/htzR8s9DC7P6Nndf1bA0/TMGcXMYs/JWOm1p6IjwpW7DbLZTZLQsPIZTdfFnu8fGmN04t+meroiOiFzFX/ACdOiNss/OHLVOT7Pk7c/wASrZ8Pj+Piz2DhUwcGmFhUrTDpWK1rWN0REcIiH2CHcnmdIAAAAAAAAAAAAAAAAAAAAh5t1mIze2euY8TvrfO4u6fJ2UxHoS11zP00rRs7n8WYimWwb4s7/wDLEzuQwxcS2Ni3xMSd972m1p8MzxlIYCnXNTe8ybM8K7e6NUff8PlNHQsH8n0TT8GY3Th5fDp81YhD/ZzIzqe0Gm5KsTM5jMYeHw8E2iJ+xM6IiIiI4Q9x88mFWe12P4NvfPh+4AjmhAAAAAAAAAAAAAAAAAAAAAAAAAAAAAAAAAACloi1Zi0RMTwmJVAY/utPv02ytp65pPsX9Zi1YmsxMTxiYLRFqzFoiYnhMSsO60+/TbK2nrmk+wGQFKzFqxNZiYnjEwqAAAAAAAAAAAAAAAAAAAAAAAAAAAAAAAAAAAAAAAAAAAAAAAAAAAAAAApaYrWZtMREcZmS0xWszaYiI4zMrDutQv01ytZ6pvPsA7rUL9NcrWeqbz7EbeW3RvcnbvM4mHTscDO1rmabo4b54Wj6UTPypQ1iK1iKxERHCIhzTl42dnVtlI1DL07LM6bacSd0cZwp/X+bdE/JLJwlzgXI09LYM2cbGEx1PCnVX6M/XZ3o1pLcg+0FdV2QjT8W8TmtNt2qYnnnDnjSfTHyI0tp5ONqL7KbT4Gdnspyl/0WZpHThzPGeuOEx1eVJYm15SjRG10DL+Tpyhg6qKeVGuN8dH1hLceeWx8LNZfCx8viVxMHFrF6XrO+LVmN8TD0QjkExMTokAHgAAAAAAAAAAAAAAAAAA1Tb7YnT9sNPjDzMdpzuFH6DNVjfanknw18nzNrHtNU0zphesYi5h7kXbU6Ko6UPNrdldV2Wz85bVcvNazP6PGrxw8WPDWfu52CTW1PTsnqmSxMpqOWwszlsT9bDxK74n/fyuObXciVL2vmNmM3GHv4/kuZmZjqrfn+f50nZxtNWqvVLoeS87bN6It4z0auvon8eHxcNid07452yaPt1tNpFa0yOs5qMOvNh4lu21j5Lb1tr2ymuaDe0arpmZwKxO7tnY9lSeq0b4YNl+hcjrbRNOHxlGmYiun6TDpODyy7VYdd17ZDFnw3y+6fsmFMfll2rxa7qXyODPhpl98/bMubiji9r2WJ/wCJk/Tp8jT2Nj1jbbaTWKzTP6xm74dufDpbtdZ+Su6GuDP6Bshr2vWr7maZmMXDn/q2r2GHH+q26FfoW46mXow+Do06qKfpEMA2LY7ZDVdrM7GDpuBMYNZiMXM3jdh4ceWemfJHF1fZHkTwMG2HmNps1GYtHH8ly8zFOq1+efk3dbr+QyWW0/KYeVyOBhZfL4cbqYeHWK1j5IYl7GxGq3ratlTO6zaibeD9Krr6I/PgwWw+x2m7Iad2jI17ZmbxHb8zeO7xJ+6PBH38WygjKqpqnTLnl+/cxFc3bs6ap6QB4tAAAAAAAAAAAAAAAAAAAPDP5vAyGTx83m8SuFl8Gk4mJe3NWsRvmR7ETVOiHMf7QO0EZDZnC0nBv/xGoX7uInjGFWd8/PPYx86OjYdvNpMXaraXNaliRauDM9hgYc/wYcfqx19M+WZa8m8Pa8nRETtdiyHk/wD8/B02quVOud8/jY6TyCaPOo7bRnL134On4VsWZ6Ozt3NY+2Z+RJdz3kR2dnQ9jsPMY9OxzeoTGYvvjjFN3cR83H/U6EjMVc4dydHQ5znHjYxmPqmmfRp9GPpt79IAx0EAAAAAAAAAAAAAAAAAAAAAAAAAAAAAAAAAAAAKWiLVmLRExPCYlUBj+60+/TbK2nrmk+xf1mLViazExPGJgtEWrMWiJieExKw7rT79NsraeuaT7AZAUrMWrE1mJieMTCoAAAAAAAAAAAAAAAAAAAAAAAAAAAAAAAAAAAAAAAAAAAAAAAAAAClpitZm0xERxmZLTFazNpiIjjMysO61C/TXK1nqm8+wDutQv01ytZ6pvPsX9YitYisRERwiIKxFaxFYiIjhEQqA+cXDpi4V8PErF6Xia2raN8TE88S+gNiJfKXspibJ7S42WrW35Djb8XK3nppM/q7/AA15vmnpaml3t/spltrtBxMljTGHmKd3l8bd+zv7J5pj2QijrGmZvR9Sx8hqGDbBzOBbsb1n0x4YnniUzhr/AJWnRO2HWc3ssU5QscCuf4lO34/H8/F1TkV5Qq6bfD0DW8aK5K9t2Vx7zwwrT/BM/BmeaeifJPDv6D7rHJnyrY2i0wtM2hnEzGnV7nDzEd1iYMeCfhV+2PLzLGJwszPDoRGcObdV6qcVhI19NPX8Y+PXHTvSIFtp2fyupZPDzWQzGFmMviRvriYduyiVyjXPqqZpnRVGiQAeAAAAAAAAAAAAAAAAAAAAKTETExMb4nnhgtS2P2d1K02zujZDEvPPftMVtPyxulnh7EzGxct3rlqdNuqYn4ToaNi8lOx2JO/3J7D4uYxI/wDJXB5KtjsOd/uT2fx8fEn/AMm8Cvytz2p7WX/6uN0aPLVf3T+WD03ZLZ/TJi2R0fI4V45rxgxNvnnizkRERujmBRMzO1iXLty7Om5VMz8Z0gDxbAAAAAAAAAAAAAAAAAAAAAWmq6lktJyWJnNSzOFlstT9bExJ3R1eWfJBtVU0zXMU0xpmV1aYrWZtMREcZmUd+WblBjXMa2i6Ni79MwrfpsWs8Me8dEf5Y+2ePRDw5TeVLMbQ1xNN0TtmV0qd9cTEnhiZiPL8Gvk556fA5ek8NheD6dboebubk4eYxWLj0uiOr4z8erq37DdeSnZK21W0uHXHpM6blZjFzNuiY6Kf6p+ze1vQNHzuvargafpuFOLmca26I6Kx02meiI6ZSx2J2Zymymg4On5Tda8d3jYu7dOLiTz2n0RHRELuKv8Ak6dEbZSOceWIwFjyVuf4lWz4R1/j47mdrEVrEViIiOERCoIdykAAAAAAAAAAAAAAAAAAAAAAAAAAAAAAAAAAAAAAAAUtEWrMWiJieExKoDH91p9+m2VtPXNJ9i/rMWrE1mJieMTBaItWYtETE8JiVh3Wn36bZW09c0n2AyApWYtWJrMTE8YmFQAAAAAAAAAAAAAAAAAAAAAAAAAAAAAAAAAAAAAAAAAAAAAAFLTFazNpiIjjMyWmK1mbTERHGZlYd1qF+muVrPVN59gHdahfprlaz1TefYv6xFaxFYiIjhEQViK1iKxERHCIhUAAAABpXKTsFlNsMlF6zXL6rg13YOY3cJj4F/DX0fPE7qKqK5onhUr+GxN3C3YvWZ0VQhfrmkZ7Q9SxchqmXvgZnDnjW3NMdExPTE+GGPTD2t2V0rarIfk2q4HZWr+zxqcMTCnw1n7uZHrbfkw1rZu2Jj5eltQ06OPb8GvdUj/PXnjrjfCWs4qm5qnVLp2SM5cPjoi3dngXOrondP2272tbN7Tavs3mu36PncTA3zvvh89L/GrPCfS6/s3y4ZbErTC2h0++DfmnHyvdVnyzWeMfJMuDi5csUXOVCRx+RsHj9d6jX1xqn/t6XWlbebMapWPyXWsnFp/gxr9qt81tzP4Oby2NG/Bx8LEjw1vEoTK1tNZ31mYnycGLOAjoqa5dzJtTP8O7Mb40/hNzttPh1+c7bT4dfnQl7bifDt9KTtuJ8O30pecQ/V3LPmR/X/x/2Ta7bT4dfnO20+HX50Je24nw7fSk7bifDt9KTiH6u48yP6/+P+ybXbafDr8522nw6/OhL23E+Hb6UnbcT4dvpScQ/V3HmR/X/wAf9k2u20+HX5zttPh1+dCXtuJ8O30pO24nw7fSk4h+ruPMj+v/AI/7Jtdtp8OvznbafDr86EvbcT4dvpSdtxPh2+lJxD9XceZH9f8Ax/2Ta7bT4dfnO20+HX50Je24nw7fSk7bifDt9KTiH6u48yP6/wDj/sm122nw6/Odtp8OvzoS9txPh2+lJ23E+Hb6UnEP1dx5kf1/8f8AZNrttPh1+c7bT4dfnQl7bifDt9KTtuJ8O30pOIfq7jzI/r/4/wCybXbafDr8522nw6/OhL23E+Hb6UnbcT4dvpScQ/V3HmR/X/x/2Ta7bT4dfnO20+HX50Je24nw7fSk7bifDt9KTiH6u48yP6/+P+ybXbafDr8522nw6/OhL23E+Hb6UnbcT4dvpScQ/V3HmR/X/wAf9k2u20+HX5zttPh1+dCXtuJ8O30pO24nw7fSk4h+ruPMj+v/AI/7Jtdtp8OvznbafDr86EvbcT4dvpSdtxPh2+lJxD9XceZH9f8Ax/2Ta7bT4dfnO20+HX50Je24nw7fSk7bifDt9KTiH6u48yP6/wDj/sm122nw6/Odtp8OvzoS9txPh2+lJ23E+Hb6UnEP1dx5kf1/8f8AZNrttPh1+c7bT4dfnQl7bifDt9KTtuJ8O30pOIfq7jzI/r/4/wCybXbafDr8522nw6/OhL23E+Hb6UnbcT4dvpScQ/V3HmR/X/x/2Ta7bT4dfnO20+HX50Je24nw7fSk7bifDt9KTiH6u48yP6/+P+ybXbafDr8522nw6/OhL23E+Hb6UnbcT4dvpScQ/V3HmR/X/wAf9k2u20+HX5zttPh1+dCXtuJ8O30pO24nw7fSk4h+ruPMj+v/AI/7Jtdtp8OvznbafDr86EvbcT4dvpSdtxPh2+lJxD9XceZH9f8Ax/2Ta7bT4dfnO20+HX50Je24nw7fSk7bifDt9KTiH6u48yP6/wDj/sm122nw6/Odtp8OvzoS9txPh2+lJ23E+Hb6UnEP1dx5kf1/8f8AZNbHzuWwI34+YwcOPDfEiPS17Vtv9l9LrP5TrOUtaP4MC3bbfNXeiRaZtO+0758qiqMBHTUvWsyrMT/FuzO6Ij8u6bS8uGFWt8LZ3T7XtzRj5vhEeWKRO+flmHIdototV2izf5RrGdxcxeP1azO6lPJWscIYlWI38zKt2KLfJhsmByPhMBrs0a+udc9v4UZPZ7Q9Q2g1LDyOlZe2Nj35936tI+FaeiPK3HYjkq1naC2HmM/W2m6dPHtmLX9JeP8ALT753R1pB7L7NaXsxp8ZTScvGHWeN8SeN8SfDa3T6I6Fm/i6beqnXKLyvnNYwUTbsTw7ndG+ftHcxXJ3sRktjtNmmHux9Qxoj8ozMx+t/lr4Kx9vPPk24EVVVNc8KpzLEYi5ibk3bs6apAFKyAAAAAAAAAAAAAAAAAAAAAAAAAAAAAAAAAAAAAAAAAAKWiLVmLRExPCYlUBj+60+/TbK2nrmk+xf1mLViazExPGJgtEWrMWiJieExKw7rT79NsraeuaT7AZAUrMWrE1mJieMTCoAAAAAAAAAAAAAAAAAAAAAAAAAAAAAAAAAAAAAAAAAAClpitZm0xERxmZLTFazNpiIjjMysO61C/TXK1nqm8+wDutQv01ytZ6pvPsX9YitYisRERwiIKxFaxFYiIjhEQqAAAAAAAAAADT9qOTnZzaGb4mYyUZbNW58xlf0dpnwzHNPyw5hrnIdqODa19G1LL5mnRTMROHb543xP2O/i/RiLlGyUxg8vY7BxwbdzTHVOuP2+iJ2ocm+1uRtMYmi5jEiP4sCa4sT9GZYXG2c1vBmYxtH1Gkx8LLXj7kyxkRj6umE5bz1xER6dumd2mPyhh7iar4sz31e/sPcTVfFme+r39iZ+43PePz7K757XPcx2/shh7iar4sz31e/sPcTVfFme+r39iZ+43HH59k89rnuY7f2Qw9xNV8WZ76vf2HuJqvizPfV7+xM/cbjj8+yee1z3Mdv7IYe4mq+LM99Xv7D3E1XxZnvq9/YmfuNxx+fZPPa57mO39kMPcTVfFme+r39h7iar4sz31e/sTP3G44/Psnntc9zHb+yGHuJqvizPfV7+w9xNV8WZ76vf2Jn7jccfn2Tz2ue5jt/ZDD3E1XxZnvq9/Ye4mq+LM99Xv7Ez9xuOPz7J57XPcx2/shh7iar4sz31e/sPcTVfFme+r39iZ+43HH59k89rnuY7f2Qw9xNV8WZ76vf2HuJqvizPfV7+xM/cbjj8+yee1z3Mdv7IYe4mq+LM99Xv7D3E1XxZnvq9/YmfuNxx+fZPPa57mO39kMPcTVfFme+r39h7iar4sz31e/sTP3G44/Psnntc9zHb+yGHuJqvizPfV7+w9xNV8WZ76vf2Jn7jccfn2Tz2ue5jt/ZDD3E1XxZnvq9/Ye4mq+LM99Xv7Ez9xuOPz7J57XPcx2/shh7iar4sz31e/sPcTVfFme+r39iZ+43HH59k89rnuY7f2Qw9xNV8WZ76vf2HuJqvizPfV7+xM/cbjj8+yee1z3Mdv7IYe4mq+LM99Xv7D3E1XxZnvq9/YmfuNxx+fZPPa57mO39kMPcTVfFme+r39h7iar4sz31e/sTP3G44/Psnntc9zHb+yGHuJqvizPfV7+w9xNV8WZ76vf2Jn7jccfn2Tz2ue5jt/ZDD3E1XxZnvq9/Ye4mq+LM99Xv7Ez9xuOPz7J57XPcx2/shh7iar4sz31e/sPcTVfFme+r39iZ+43HH59k89rnuY7f2Qw9xNV8WZ76vf2HuJqvizPfV7+xM/cbjj8+yee1z3Mdv7IYe4mq+LM99Xv7D3E1XxZnvq9/YmfuNxx+fZPPa57mO39kMPcTVfFme+r39h7iar4sz31e/sTP3G44/Psnntc9zHb+yGuDs3rmPMRg6PqWJM/By15+5m9P5Ndrc9aIpo2PhVn+LHtXCiPpTvSvFM4+rohauZ6YmY/h26Y36Z/Dgeh8huexZrfWtTwMCnPOHlqziW6t87oj7XUNl+T7Z3Zya4mSyNcXNV/9RmJ7Zf5N/CPkiG2DHrxFyvbKCxmXcdjI4Ny5q6o1R3bfqALKIAAAAAAAAAAAAAAAAAAAAAAAAAAAAAAAAAAAAAAAAAAAAAAAAFLRFqzFoiYnhMSqAx/daffptlbT1zSfYv6zFqxNZiYnjEwWiLVmLRExPCYlYd1p9+m2VtPXNJ9gMgKVmLViazExPGJhUAAAAAAAAAAAAAAAAAAAAAAAAAAAAAAAAAAAAAABS0xWszaYiI4zMlpitZm0xERxmZWHdahfprlaz1TefYB3WoX6a5Ws9U3n2L+sRWsRWIiI4REFYitYisRERwiIVAAAAAAAAAAAAAAAAAAAAAAAAAAAAAAAAAAAAAAAAAAAAAAAAAAAAAAAAAAAAAAAAAAAAAAAAAAAAAAAAAAAAAAAAAAAAAAAAAAAAAAAAAAAAAAAAAAAAAAAUtEWrMWiJieExKoDH91p9+m2VtPXNJ9i/rMWrE1mJieMTBaItWYtETE8JiVh3Wn36bZW09c0n2AyApWYtWJrMTE8YmFQAAAAAAAAAAAAAAAAAAAAAAAAAAAAAAAAAAFLTFazNpiIjjMyWmK1mbTERHGZlYd1qF+muVrPVN59gHdahfprlaz1TefYv6xFaxFYiIjhEQViK1iKxERHCIhUAAAAAAAAAAAAAAAAAAAAAAAAAAAAAAAAAAAAAAAAAAAAAAAAAAAAAAAAAAAAAAAAAAAAAAAAAAAAAAAAAAAAAAAAAAAAAAAAAAAAAAAAAAAAAAAAAAAAAAAAAABS0RasxaImJ4TEqgMf3Wn36bZW09c0n2L+sxasTWYmJ4xMFoi1Zi0RMTwmJWHdaffptlbT1zSfYDIClZi1YmsxMTxiYVAAAAAAAAAAAAAAAAAAAAAAAAAAAAAAAUtMVrM2mIiOMzJaYrWZtMREcZmVh3WoX6a5Ws9U3n2Ad1qF+muVrPVN59i/rEVrEViIiOERBWIrWIrEREcIiFQAAAAAAAAAAAAAAAAAAAAAAAAAAAAAAAAAAAAAAAAAAAAAAAAAAAAAAAAAAAAAAAAAAAAAAAAAAAAAAAAAAAAAAAAAAAAAAAAAAAAAAAAAAAAAAAAAAAAAAAAAAAAAAFLRFqzFoiYnhMSqAx/daffptlbT1zSfYv6zFqxNZiYnjEwWiLVmLRExPCYlYd1p9+m2VtPXNJ9gMgKVmLViazExPGJhUAAAAAAAAAAAAAAAAAAAAAAAAAABS0xWszaYiI4zMlpitZm0xERxmZWHdahfprlaz1TefYB3WoX6a5Ws9U3n2L+sRWsRWIiI4REFYitYisRERwiIVAAAAAAAAAAAAAAAAAAAAAAAAAAAAAAAAAAAAAAAAAAAAAAAAAAAAAAAAAAAAAAAAAAAAAAAAAAAAAAAAAAAAAAAAAAAAAAAAAAAAAAAAAAAAAAAAAAAAAAAAAAAAAAAAAAAUtEWrMWiJieExKoDH91p9+m2VtPXNJ9i/rMWrE1mJieMTBaItWYtETE8JiVh3Wn36bZW09c0n2AyApWYtWJrMTE8YmFQAAAAAAAAAAAAAAAAAAAAAAFLTFazNpiIjjMyWmK1mbTERHGZlYd1qF+muVrPVN59gHdahfprlaz1TefYv6xFaxFYiIjhEQViK1iKxERHCIhUAAAAAAAAAAAAAAAAAAAAAAAAAAAAAAAAAAAAAAAAAAAAAAAAAAAAAAAAAAAAAAAAAAAAAAAAAAAAAAAAAAAAAAAAAAAAAAAAAAAAAAAAAAAAAAAAAAAAAAAAAAAAAAAAAAAAAABS0RasxaImJ4TEqgMf3Wn36bZW09c0n2L+sxasTWYmJ4xMFoi1Zi0RMTwmJWHdaffptlbT1zSfYDIClZi1YmsxMTxiYVAAAAAAAAAAAAAAAAAAAUtMVrM2mIiOMzJaYrWZtMREcZmVh3WoX6a5Ws9U3n2Ad1qF+muVrPVN59i/rEVrEViIiOERBWIrWIrEREcIiFQAAAAAAAAAAAAAAAAAAAAAAAAAAAAAAAAAAAAAAAAAAAAAAAAAAAAAAAAAAAAAAAAAAAAAAAAAAAAAAAAAAAAAAAAAAAAAAAAAAAAAAAAAAAAAAAAAAAAAAAAAAAAAAAAAAAAAAAAAAFLRFqzFoiYnhMSqAx/daffptlbT1zSfYv6zFqxNZiYnjEwWiLVmLRExPCYlYd1p9+m2VtPXNJ9gMgKVmLViazExPGJhUAAAAAAAAAAAAAABS0xWszaYiI4zMlpitZm0xERxmZWHdahfprlaz1TefYB3WoX6a5Ws9U3n2L+sRWsRWIiI4REFYitYisRERwiIVAAAAAAAAAAAAAAAAAAAAAAAAAAAAAAAAAAAAAAAAAAAAAAAAAAAAAAAAAAAAAAAAAAAAAAAAAAAAAAAAAAAAAAAAAAAAAAAAAAAAAAAAAAAAAAAAAAAAAAAAAAAAAAAAAAAAAAAAAAAAAAAUtEWrMWiJieExKoDH91p9+m2VtPXNJ9i/rMWrE1mJieMTBaItWYtETE8JiVh3Wn36bZW09c0n2AyApWYtWJrMTE8YmFQAAAAAAAAAAFLTFazNpiIjjMyWmK1mbTERHGZlYd1qF+muVrPVN59gHdahfprlaz1TefYv6xFaxFYiIjhEQViK1iKxERHCIhUAAAAAAAAAAAAAAAAAAAAAAAAAAAAAAAAAAAAAAAAAAAAAAAAAAAAAAAAAAAAAAAAAAAAAAAAAAAAAAAAAAAAAAAAAAAAAAAAAAAAAAAAAAAAAAAAAAAAAAAAAAAAAAAAAAAAAAAAAAAAAAAAAABS0RasxaImJ4TEqgMf3Wn36bZW09c0n2L+sxasTWYmJ4xMFoi1Zi0RMTwmJWHdaffptlbT1zSfYDIClZi1YmsxMTxiYVAAAAAAAUtMVrM2mIiOMzJaYrWZtMREcZmVh3WoX6a5Ws9U3n2Ad1qF+muVrPVN59i/rEVrEViIiOERBWIrWIrEREcIiFQAAAAAAAAAAAAAAAAAAAAAAAAAAAAAAAAAAAAAAAAAAAAAAAAAAAAAAAAAAAAAAAAAAAAAAAAAAAAAAAAAAAAAAAAAAAAAAAAAAAAAAAAAAAAAAAAAAAAAAAAAAAAAAAAAAAAAAAAAAAAAAAAAAAAAAFLRFqzFoiYnhMSqAx/daffptlbT1zSfYv6zFqxNZiYnjEwWiLVmLRExPCYlYd1p9+m2VtPXNJ9gMgKVmLViazExPGJhUAABS0xWszaYiI4zMlpitZm0xERxmZWHdahfprlaz1TefYB3WoX6a5Ws9U3n2L+sRWsRWIiI4REFYitYisRERwiIVAAAAAAAAAAAAAAAAAAAAAAAAAAAAAAAAAAAAAAAAAAAAAAAAAAAAAAAAAAAAAAAAAAAAAAAAAAAAAAAAAAAAAAAAAAAAAAAAAAAAAAAAAAAAAAAAAAAAAAAAAAAAAAAAAAAAAAAAAAAAAAAAAAAAAAAAAAAUtEWrMWiJieExKoDH91p9+m2VtPXNJ9i/rMWrE1mJieMTBaItWYtETE8JiVh3Wn36bZW09c0n2AyApWYtWJrMTE8YmAGPzszjZ7Cy1pntUx2UxHTz+xkKxFaxFYiIjhEQAKgAAAAAAAAAAAAAAAAAAAAAAAAAAAAAAAAAAAAAAAAAAAAAAAAAAAAAAAAAAAAAAAAAAAAAAAAAAAAAAAAAAAAAAAAAAAAAAAAAAAAAAAAAAAAAAAAAAAAAAAAAAAAAAAAAAAAAAAAAAAAAAAAAAAAAAAAAAAAAKWiLVmLRExPCYkAYLMY2Lk8fEwcDEtXDid8RPHcAD//2Q==;" vertex="1" parent="lkSrRiJItYOf4TimFyNU-1">
          <mxGeometry width="1300" height="1300" as="geometry" />
        </mxCell>
      </root>
    </mxGraphModel>
  </diagram>
</mxfile>
